<?xml version="1.0" standalone="no"?>
<!DOCTYPE svg PUBLIC "-//W3C//DTD SVG 20010904//EN"
 "http://www.w3.org/TR/2001/REC-SVG-20010904/DTD/svg10.dtd">
<svg version="1.0" xmlns="http://www.w3.org/2000/svg"
 width="512.000000pt" height="512.000000pt" viewBox="0 0 512.000000 512.000000"
 preserveAspectRatio="xMidYMid meet">
<metadata>
Created by potrace 1.16, written by Peter Selinger 2001-2019
</metadata>
<g transform="translate(0.000000,512.000000) scale(0.100000,-0.100000)"
fill="#000000" stroke="none">
<path d="M780 4258 c-75 -37 -197 -154 -312 -298 -260 -326 -412 -684 -459
-1084 -17 -145 -6 -549 19 -691 47 -263 101 -433 204 -640 103 -207 237 -394
398 -556 133 -133 216 -172 290 -134 40 21 60 53 60 98 0 58 -20 86 -163 236
-154 160 -243 281 -326 442 -109 209 -172 406 -208 645 -26 178 -23 519 5 676
73 401 215 675 521 1006 75 81 144 159 154 174 36 56 13 125 -50 149 -40 15
-67 11 -133 -23z"/>
<path d="M4192 4260 c-18 -11 -40 -37 -48 -57 -26 -61 0 -107 135 -248 166
-172 253 -287 344 -455 246 -456 301 -1105 137 -1611 -88 -268 -234 -498 -481
-753 -63 -65 -122 -131 -133 -147 -23 -38 -16 -93 17 -126 68 -69 178 -25 337
136 320 323 527 730 595 1171 25 164 30 478 11 639 -63 527 -288 999 -634
1333 -131 126 -212 161 -280 118z"/>
<path d="M2115 4193 c-28 -7 -43 -23 -21 -23 32 0 131 -113 172 -194 32 -66
37 -86 41 -168 9 -162 -34 -295 -217 -673 -151 -311 -194 -437 -221 -640 -37
-286 68 -565 291 -767 123 -112 253 -172 326 -153 27 7 28 8 10 19 -210 127
-274 198 -312 348 -19 74 -14 146 15 231 26 76 68 143 185 300 111 149 158
229 181 311 21 71 15 155 -14 222 -23 50 -20 52 56 29 74 -22 132 -89 171
-198 43 -119 58 -221 43 -307 -14 -89 -14 -173 1 -188 21 -21 74 -14 107 13
48 41 65 100 57 198 l-6 82 35 -54 c70 -110 101 -263 84 -411 -20 -165 -100
-350 -199 -462 -23 -27 -38 -48 -33 -48 15 0 196 154 246 210 180 200 313 636
293 960 -24 384 -132 628 -357 805 -41 32 -60 43 -55 30 62 -153 70 -181 70
-275 1 -88 -1 -100 -32 -162 -51 -105 -107 -140 -161 -102 -37 26 -52 77 -62
213 -32 402 -162 668 -392 795 -102 57 -218 79 -302 59z"/>
<path d="M1353 1430 c-42 -25 -63 -68 -63 -127 0 -60 26 -104 73 -126 32 -16
136 -17 1247 -17 1337 0 1249 -4 1290 63 13 21 20 50 20 85 0 48 -4 57 -39 95
l-40 42 -1228 3 c-1204 2 -1229 2 -1260 -18z"/>
</g>
</svg>
