<?xml version="1.0" standalone="no"?>
<!DOCTYPE svg PUBLIC "-//W3C//DTD SVG 20010904//EN"
 "http://www.w3.org/TR/2001/REC-SVG-20010904/DTD/svg10.dtd">
<svg version="1.0" xmlns="http://www.w3.org/2000/svg"
 width="918.000000pt" height="616.000000pt" viewBox="0 0 918.000000 616.000000"
 preserveAspectRatio="xMidYMid meet">
<metadata>
Created by potrace 1.16, written by Peter Selinger 2001-2019
</metadata>
<g transform="translate(0.000000,616.000000) scale(0.100000,-0.100000)"
fill="#000000" stroke="none">
<path d="M0 3080 l0 -3080 4580 0 4580 0 0 3080 0 3080 -4580 0 -4580 0 0
-3080z m9080 5 l0 -3005 -4505 0 -4505 0 0 3005 0 3005 4505 0 4505 0 0 -3005z"/>
<path d="M150 3085 l0 -2925 4425 0 4425 0 0 2925 0 2925 -4425 0 -4425 0 0
-2925z m8770 0 l0 -2845 -4345 0 -4345 0 0 2845 0 2845 4345 0 4345 0 0 -2845z"/>
<path d="M300 5485 l0 -375 4275 0 4275 0 0 375 0 375 -4275 0 -4275 0 0 -375z
m4150 43 l0 -143 -70 -3 c-92 -4 -110 12 -110 98 0 83 21 104 96 98 l54 -5 0
42 c0 41 5 55 22 55 4 0 8 -64 8 -142z m-486 122 c31 -12 55 -55 39 -71 -8 -8
-15 -3 -25 18 -10 22 -21 29 -49 31 -56 5 -69 -15 -69 -103 0 -88 5 -104 37
-116 35 -13 73 -1 83 27 10 26 30 33 30 10 0 -7 -9 -25 -21 -40 -27 -34 -93
-37 -133 -5 -25 19 -26 25 -26 110 0 50 5 99 11 110 18 35 74 48 123 29z m919
-12 c19 -19 30 -55 19 -62 -5 -3 -19 8 -31 24 -16 23 -30 30 -54 30 -50 0 -57
-14 -57 -111 0 -97 9 -112 62 -112 22 0 38 8 53 27 24 31 38 24 24 -11 -18
-50 -109 -60 -150 -17 -22 23 -24 34 -24 116 0 87 1 91 29 115 25 21 37 24 72
20 24 -2 49 -11 57 -19z m1093 -50 c8 -15 14 -43 14 -63 0 -34 14 -48 22 -23
3 9 8 6 15 -7 22 -41 19 -95 -6 -126 l-19 -24 5 28 c4 22 2 27 -14 27 -31 0
-43 21 -43 74 l0 50 -31 -49 c-17 -28 -34 -67 -37 -89 l-5 -39 -19 22 c-29 36
-22 81 22 157 22 38 40 82 40 98 0 29 0 29 21 10 12 -10 27 -31 35 -46z m-874
-28 c13 -16 18 -40 18 -84 0 -34 5 -67 12 -74 18 -18 1 -27 -27 -14 -15 7 -27
8 -30 2 -10 -16 -87 -11 -107 7 -10 9 -18 29 -18 44 0 41 38 63 95 57 42 -5
45 -4 45 18 0 57 -102 59 -123 2 -2 -7 -8 -10 -12 -6 -13 13 4 54 27 66 34 17
100 7 120 -18z m-1570 3 c21 -24 30 -56 22 -77 -5 -13 -21 -16 -81 -16 -71 0
-74 -1 -71 -22 2 -12 15 -29 30 -38 25 -13 32 -13 75 2 54 20 64 17 38 -12
-24 -26 -119 -28 -147 -3 -25 22 -26 138 -1 165 22 25 113 25 135 1z m229 -4
c14 -14 19 -30 17 -52 -3 -31 -4 -32 -58 -34 -30 -1 -63 -2 -72 -2 -12 -1 -18
-9 -18 -26 0 -43 59 -58 114 -30 35 18 36 18 36 0 0 -22 -33 -35 -89 -35 -72
0 -91 21 -91 100 0 79 19 100 90 100 37 0 55 -5 71 -21z m451 4 c25 -22 26
-138 1 -165 -24 -26 -116 -25 -143 2 -26 26 -29 134 -3 162 22 24 118 25 145
1z m442 1 c19 -19 30 -58 22 -80 -5 -12 -20 -15 -78 -13 -81 3 -98 -11 -59
-50 25 -25 61 -27 102 -5 37 19 49 11 24 -16 -14 -15 -31 -20 -73 -20 -78 0
-92 15 -92 101 0 59 3 70 22 83 30 21 112 21 132 0z m698 3 c4 -7 8 -51 8 -99
0 -72 -3 -88 -15 -88 -12 0 -15 16 -15 84 0 86 -6 101 -34 90 -12 -4 -16 -25
-18 -87 -2 -53 -7 -82 -15 -85 -10 -3 -13 18 -13 82 0 86 -6 101 -34 90 -13
-5 -16 -22 -16 -79 0 -78 -6 -108 -21 -99 -5 3 -9 49 -9 103 l0 98 87 1 c57 0
90 -3 95 -11z m215 -17 c16 -31 17 -101 1 -135 -14 -30 -44 -40 -104 -31 l-44
6 0 -51 c0 -31 -4 -48 -10 -44 -6 4 -10 63 -10 144 l0 137 77 -1 c72 0 78 -2
90 -25z"/>
<path d="M4322 5544 c-17 -12 -22 -25 -22 -63 0 -70 44 -101 101 -71 15 9 19
22 19 69 0 52 -2 59 -25 69 -34 16 -46 15 -73 -4z"/>
<path d="M4098 5549 c-14 -8 -18 -23 -18 -70 0 -54 2 -61 25 -71 16 -7 35 -8
57 -2 32 9 33 11 36 69 3 47 0 62 -14 72 -21 15 -62 16 -86 2z"/>
<path d="M5450 5547 c-21 -11 -25 -21 -28 -65 -3 -50 -2 -52 31 -68 26 -12 42
-14 63 -7 26 9 29 14 32 62 5 81 -33 111 -98 78z"/>
<path d="M4310 4220 c0 -123 1 -130 20 -130 18 0 20 7 20 69 0 61 2 70 20 76
36 11 50 -12 50 -81 0 -57 2 -64 20 -64 18 0 20 7 20 59 0 33 -4 71 -10 85
-11 30 -49 42 -79 26 -20 -10 -21 -8 -21 40 0 43 -3 50 -20 50 -19 0 -20 -7
-20 -130z"/>
<path d="M4670 4220 c0 -123 1 -130 20 -130 17 0 20 7 20 40 0 26 5 40 13 40
7 0 23 -18 37 -40 17 -28 32 -40 48 -40 23 0 23 0 -8 45 -33 49 -33 70 0 100
25 23 25 35 1 35 -10 0 -31 -16 -45 -35 -15 -19 -31 -35 -37 -35 -5 0 -9 34
-9 75 0 68 -2 75 -20 75 -19 0 -20 -7 -20 -130z"/>
<path d="M4865 4245 c-19 -18 -25 -35 -25 -65 0 -79 77 -117 136 -67 21 19 27
32 27 67 0 35 -6 48 -27 67 -36 30 -80 30 -111 -2z"/>
<path d="M5110 3420 c0 -105 3 -130 14 -130 8 0 16 6 19 13 4 10 7 10 18 0 20
-20 53 -15 76 10 61 67 18 178 -58 150 l-29 -11 0 49 c0 42 -3 49 -20 49 -19
0 -20 -7 -20 -130z"/>
<path d="M2800 3416 c0 -119 1 -126 20 -126 17 0 20 7 20 50 0 42 3 50 19 50
12 0 31 -19 51 -50 24 -37 38 -50 56 -50 l25 0 -35 52 -35 51 24 23 c30 27 32
63 6 95 -15 19 -30 24 -85 27 l-66 4 0 -126z"/>
<path d="M4564 3524 c3 -9 20 -65 38 -125 27 -93 35 -109 53 -109 17 0 25 16
49 93 l29 92 31 -93 c26 -78 34 -92 50 -90 16 2 27 27 56 126 l37 122 -22 0
c-20 0 -25 -10 -44 -82 -12 -46 -23 -87 -25 -93 -1 -5 -16 31 -33 80 -23 71
-34 90 -49 90 -14 0 -24 -17 -44 -82 -14 -46 -28 -83 -31 -83 -3 0 -16 38 -28
85 -21 78 -25 85 -48 85 -19 0 -24 -4 -19 -16z"/>
<path d="M5370 3415 l0 -125 55 0 c103 0 155 42 155 125 0 83 -52 125 -155
125 l-55 0 0 -125z m131 82 c22 -17 39 -51 39 -81 0 -59 -39 -96 -100 -96
l-30 0 0 95 0 95 38 0 c20 0 44 -6 53 -13z"/>
<path d="M3036 3449 c-21 -17 -26 -29 -26 -65 0 -76 57 -113 125 -82 39 17 30
31 -15 23 -43 -7 -70 5 -70 31 0 10 15 14 55 14 54 0 55 0 55 29 0 34 -39 71
-75 71 -12 0 -34 -9 -49 -21z"/>
<path d="M3350 3350 c0 -113 1 -120 20 -120 16 0 20 7 20 34 0 34 1 35 33 30
56 -10 95 52 76 122 -13 45 -47 63 -86 45 -19 -9 -29 -9 -31 -2 -2 6 -10 11
-18 11 -11 0 -14 -23 -14 -120z"/>
<path d="M3555 3445 c-19 -18 -25 -35 -25 -65 0 -79 77 -117 136 -67 21 19 27
32 27 67 0 35 -6 48 -27 67 -36 30 -80 30 -111 -2z"/>
<path d="M3730 3380 c0 -83 1 -90 20 -90 18 0 20 7 20 64 0 69 14 92 50 81 18
-6 20 -15 20 -76 0 -62 2 -69 20 -69 18 0 20 7 20 70 0 57 -4 74 -20 90 -23
23 -42 25 -73 9 -16 -9 -22 -9 -25 0 -2 6 -10 11 -18 11 -11 0 -14 -19 -14
-90z"/>
<path d="M4353 3446 c-22 -19 -28 -32 -28 -66 0 -34 6 -47 28 -66 30 -26 66
-31 98 -14 33 18 23 33 -17 25 -27 -5 -41 -2 -55 11 -31 28 -23 34 41 34 58 0
60 1 60 25 0 33 -42 75 -74 75 -14 0 -37 -11 -53 -24z"/>
<path d="M4945 3445 c-19 -18 -25 -35 -25 -65 0 -72 59 -108 125 -78 39 17 30
31 -15 23 -43 -7 -70 5 -70 31 0 10 15 14 55 14 54 0 55 0 55 29 0 35 -40 71
-77 71 -13 0 -35 -11 -48 -25z"/>
<path d="M5635 3445 c-19 -18 -25 -35 -25 -65 0 -72 59 -108 125 -78 39 17 30
31 -15 23 -43 -7 -70 5 -70 31 0 10 15 14 55 14 54 0 55 0 55 29 0 35 -40 71
-77 71 -13 0 -35 -11 -48 -25z"/>
<path d="M6053 3455 c-25 -17 -30 -54 -11 -73 8 -8 8 -15 -1 -26 -7 -8 -10
-24 -6 -35 3 -10 1 -22 -5 -26 -20 -13 -10 -43 20 -55 40 -17 96 -5 115 24 28
42 8 61 -70 68 -16 2 -30 8 -30 13 0 6 14 12 30 13 35 4 65 28 65 52 0 9 5 21
12 28 16 16 11 19 -47 26 -38 5 -55 3 -72 -9z"/>
<path d="M6210 3380 c0 -83 1 -90 20 -90 18 0 20 7 20 64 0 69 14 92 50 81 18
-6 20 -15 20 -76 0 -62 2 -69 20 -69 18 0 20 7 20 70 0 57 -4 74 -20 90 -23
23 -42 25 -73 9 -16 -9 -22 -9 -25 0 -2 6 -10 11 -18 11 -11 0 -14 -19 -14
-90z"/>
<path d="M5242 2228 c-16 -53 -41 -164 -67 -305 -13 -72 -31 -161 -40 -198
-17 -75 -53 -165 -66 -165 -20 0 -40 114 -43 237 -3 101 -6 128 -17 128 -9 0
-15 -14 -17 -40 -1 -22 -5 -51 -8 -65 -5 -22 -7 -23 -15 -7 -13 23 -29 12 -29
-20 0 -43 -46 -76 -107 -77 -62 -1 -56 14 15 40 92 34 84 45 -36 51 l-89 4
-34 -33 c-19 -18 -45 -46 -58 -63 l-22 -30 5 30 c2 17 1 37 -4 45 -8 12 -14
11 -37 -6 l-28 -21 -18 23 c-24 32 -47 30 -82 -6 -16 -16 -34 -30 -41 -30 -20
0 -75 -51 -107 -100 l-29 -45 6 155 c4 85 9 183 12 216 8 76 -11 96 -19 21 -3
-28 -9 -115 -13 -192 -4 -77 -8 -147 -10 -155 -1 -8 -3 -39 -3 -68 -1 -39 -5
-54 -18 -59 -21 -8 -107 37 -156 82 l-38 35 20 38 c38 74 54 151 48 232 -6 91
-24 136 -76 190 -40 42 -70 49 -79 20 -4 -12 -3 -13 10 -2 23 19 70 -25 104
-96 35 -74 37 -169 5 -263 -12 -36 -28 -74 -35 -84 -12 -17 -15 -15 -41 25
-43 67 -75 147 -75 183 0 38 33 113 62 144 17 18 25 20 40 12 11 -6 22 -8 25
-5 8 8 -24 36 -41 36 -19 0 -59 -53 -84 -110 l-19 -45 -13 53 c-6 29 -10 62
-7 74 6 23 -17 78 -33 78 -14 0 -13 -7 12 -118 16 -72 22 -131 22 -229 1 -117
3 -134 22 -160 24 -33 74 -43 94 -19 17 22 27 20 61 -8 l29 -25 -28 -4 c-25
-4 -24 -4 6 -6 19 0 53 -14 77 -31 48 -33 85 -38 109 -15 8 8 26 40 41 71 26
55 89 134 107 134 6 0 7 -16 3 -40 -5 -30 -2 -47 9 -65 20 -31 27 -31 64 0 16
13 32 22 35 18 12 -11 37 20 37 46 0 14 9 40 21 56 l20 30 -3 -60 c-4 -78 14
-80 58 -5 56 94 73 109 129 116 l50 6 -39 -34 c-56 -49 -46 -69 31 -66 56 3
58 2 56 -22 -3 -32 -81 -105 -128 -120 -19 -6 -35 -16 -35 -22 0 -18 69 -1
104 26 l32 24 11 -29 c14 -36 41 -38 77 -4 15 14 31 25 36 25 4 0 14 22 21 50
13 53 29 58 29 9 0 -17 7 -43 15 -58 8 -16 11 -31 8 -35 -4 -3 7 -6 23 -6 25
0 34 7 51 38 27 47 58 165 83 317 26 150 68 342 81 366 7 15 6 19 -5 19 -8 0
-19 -15 -24 -32z"/>
<path d="M8071 1894 c-81 -22 -118 -42 -182 -102 -42 -38 -70 -76 -96 -130
-38 -75 -38 -77 -38 -197 0 -120 0 -122 38 -197 107 -218 353 -303 572 -198
98 47 192 160 224 270 19 63 17 194 -3 262 -65 219 -297 351 -515 292z m240
-101 c184 -82 255 -324 151 -510 -28 -51 -98 -114 -155 -142 -141 -68 -326
-15 -420 120 -135 196 -53 459 172 545 53 20 194 13 252 -13z"/>
<path d="M8125 1794 c-118 -30 -195 -86 -243 -179 -37 -72 -42 -188 -12 -267
29 -79 94 -148 171 -183 55 -24 70 -27 143 -23 92 5 139 25 198 82 166 161
127 437 -75 535 -60 29 -141 45 -182 35z m85 -292 c0 -38 2 -43 19 -37 28 9
48 -45 31 -85 -17 -41 -39 -58 -33 -26 4 20 0 25 -18 28 -21 3 -25 10 -29 58
l-5 55 -29 -49 c-16 -27 -32 -65 -36 -85 l-6 -36 -18 34 c-20 37 -16 91 8 111
20 15 56 95 56 122 1 21 3 20 30 -12 23 -26 30 -44 30 -78z"/>
<path d="M560 1750 l0 -120 120 0 120 0 0 120 0 120 -120 0 -120 0 0 -120z
m200 5 l0 -85 -85 0 -85 0 0 85 0 85 85 0 85 0 0 -85z"/>
<path d="M830 1855 c0 -11 12 -15 50 -15 l50 0 0 -35 c0 -24 -5 -35 -15 -35
-8 0 -15 7 -15 15 0 8 -7 15 -15 15 -8 0 -15 -7 -15 -15 0 -8 7 -15 15 -15 10
0 15 -11 15 -35 0 -24 -5 -35 -15 -35 -8 0 -15 -7 -15 -15 0 -8 -9 -15 -20
-15 -16 0 -20 -7 -20 -35 0 -28 4 -35 20 -35 13 0 20 -7 20 -20 0 -11 7 -20
15 -20 8 0 15 -7 15 -15 0 -8 -7 -15 -15 -15 -8 0 -15 7 -15 15 0 10 -11 15
-35 15 -24 0 -35 -5 -35 -15 0 -8 7 -15 15 -15 8 0 15 -7 15 -15 0 -10 11 -15
35 -15 24 0 35 5 35 15 0 8 7 15 15 15 8 0 15 7 15 15 0 8 -7 15 -15 15 -10 0
-15 11 -15 35 0 24 5 35 15 35 8 0 15 9 15 20 0 11 -7 20 -15 20 -8 0 -15 7
-15 15 0 8 7 15 15 15 8 0 15 -7 15 -15 0 -8 9 -15 20 -15 18 0 20 -7 20 -55
0 -42 3 -55 15 -55 8 0 15 9 15 20 0 13 7 20 20 20 16 0 20 -7 20 -35 0 -24 5
-35 15 -35 8 0 15 -7 15 -15 0 -8 -7 -15 -15 -15 -8 0 -15 -9 -15 -20 0 -11 7
-20 15 -20 11 0 15 -12 15 -50 0 -43 3 -50 20 -50 11 0 20 7 20 15 0 8 7 15
15 15 8 0 15 9 15 20 0 11 -7 20 -15 20 -10 0 -15 11 -15 35 0 24 5 35 15 35
8 0 15 7 15 15 0 8 -7 15 -15 15 -8 0 -15 7 -15 15 0 10 10 15 30 15 23 0 30
4 30 20 0 11 -7 20 -15 20 -10 0 -15 11 -15 35 0 24 -5 35 -15 35 -10 0 -15
-11 -15 -35 0 -28 -4 -35 -20 -35 -18 0 -20 7 -20 65 0 51 -3 65 -15 65 -8 0
-15 9 -15 20 0 11 7 20 15 20 8 0 15 7 15 15 0 8 -7 15 -15 15 -8 0 -15 9 -15
20 0 11 7 20 15 20 8 0 15 7 15 15 0 8 -7 15 -15 15 -8 0 -15 -7 -15 -15 0
-10 -11 -15 -35 -15 -24 0 -35 5 -35 15 0 12 -14 15 -70 15 -56 0 -70 -3 -70
-15z"/>
<path d="M1110 1855 c0 -8 7 -15 15 -15 8 0 15 -9 15 -20 0 -11 -7 -20 -15
-20 -11 0 -15 -12 -15 -50 0 -38 4 -50 15 -50 8 0 15 7 15 15 0 8 7 15 15 15
8 0 15 -7 15 -15 0 -10 11 -15 35 -15 24 0 35 5 35 15 0 8 9 15 20 15 11 0 20
-7 20 -15 0 -10 10 -15 30 -15 20 0 30 -5 30 -15 0 -8 -7 -15 -15 -15 -8 0
-15 -9 -15 -20 0 -11 7 -20 15 -20 8 0 15 -7 15 -15 0 -8 9 -15 20 -15 13 0
20 -7 20 -20 0 -17 -7 -20 -50 -20 -38 0 -50 -4 -50 -15 0 -8 -9 -15 -20 -15
-11 0 -20 7 -20 15 0 8 9 15 20 15 18 0 20 7 20 70 0 63 -2 70 -20 70 -16 0
-20 -7 -20 -35 0 -24 -5 -35 -15 -35 -8 0 -15 -7 -15 -15 0 -8 7 -15 15 -15 8
0 15 -9 15 -20 0 -11 -7 -20 -15 -20 -8 0 -15 -7 -15 -15 0 -8 -9 -15 -20 -15
-11 0 -20 -7 -20 -15 0 -8 -7 -15 -15 -15 -8 0 -15 -9 -15 -20 0 -16 7 -20 35
-20 33 0 35 2 35 35 0 24 5 35 15 35 8 0 15 -7 15 -15 0 -10 11 -15 35 -15 24
0 35 5 35 15 0 8 7 15 15 15 8 0 15 -7 15 -15 0 -8 9 -15 20 -15 16 0 20 7 20
30 0 20 5 30 15 30 12 0 15 13 15 55 0 42 -3 55 -15 55 -8 0 -15 7 -15 15 0 8
-9 15 -20 15 -11 0 -20 7 -20 15 0 8 -7 15 -15 15 -8 0 -15 9 -15 20 0 11 7
20 15 20 8 0 15 7 15 15 0 8 -7 15 -15 15 -10 0 -15 11 -15 35 0 24 -5 35 -15
35 -11 0 -15 -12 -15 -50 l0 -50 -70 0 c-56 0 -70 3 -70 15 0 8 7 15 15 15 8
0 15 9 15 20 0 13 7 20 20 20 13 0 20 -7 20 -20 0 -11 7 -20 15 -20 8 0 15 9
15 20 0 11 -7 20 -15 20 -8 0 -15 7 -15 15 0 8 -9 15 -20 15 -11 0 -20 -7 -20
-15 0 -8 -7 -15 -15 -15 -8 0 -15 7 -15 15 0 8 -7 15 -15 15 -8 0 -15 -7 -15
-15z"/>
<path d="M1450 1750 l0 -120 115 0 115 0 0 120 0 120 -115 0 -115 0 0 -120z
m200 5 l0 -85 -85 0 -85 0 0 85 0 85 85 0 85 0 0 -85z"/>
<path d="M560 1580 c0 -11 7 -20 15 -20 8 0 15 -7 15 -15 0 -8 -7 -15 -15 -15
-11 0 -15 -12 -15 -50 0 -38 4 -50 15 -50 10 0 15 -11 15 -35 0 -24 -5 -35
-15 -35 -8 0 -15 -9 -15 -20 0 -11 7 -20 15 -20 8 0 15 -7 15 -15 0 -8 9 -15
20 -15 11 0 20 -7 20 -15 0 -8 -9 -15 -20 -15 -13 0 -20 -7 -20 -20 0 -11 -7
-20 -15 -20 -12 0 -15 -18 -15 -100 l0 -100 35 0 c24 0 35 5 35 15 0 8 7 15
15 15 8 0 15 9 15 20 0 13 7 20 20 20 13 0 20 -7 20 -20 0 -16 7 -20 30 -20
20 0 30 -5 30 -15 0 -10 11 -15 35 -15 28 0 35 -4 35 -20 0 -16 7 -20 35 -20
24 0 35 -5 35 -15 0 -8 -7 -15 -15 -15 -8 0 -15 -7 -15 -15 0 -8 -9 -15 -20
-15 -16 0 -20 -7 -20 -35 0 -28 4 -35 20 -35 16 0 20 7 20 35 0 24 5 35 15 35
8 0 15 -9 15 -20 0 -11 7 -20 15 -20 8 0 15 -7 15 -15 0 -8 -7 -15 -15 -15 -8
0 -15 -9 -15 -20 0 -16 7 -20 35 -20 32 0 35 -2 35 -30 l0 -30 70 0 70 0 0 65
c0 58 -2 65 -20 65 -16 0 -20 7 -20 35 0 28 4 35 20 35 11 0 20 -7 20 -15 0
-8 7 -15 15 -15 8 0 15 7 15 15 0 8 7 15 15 15 8 0 15 7 15 15 0 8 9 15 20 15
17 0 20 -7 20 -50 0 -43 -3 -50 -20 -50 -11 0 -20 -7 -20 -15 0 -8 9 -15 20
-15 13 0 20 -7 20 -20 0 -13 -7 -20 -20 -20 -11 0 -20 -7 -20 -15 0 -8 -7 -15
-15 -15 -8 0 -15 -7 -15 -15 0 -8 7 -15 15 -15 8 0 15 7 15 15 0 12 13 15 55
15 42 0 55 3 55 15 0 8 7 15 15 15 8 0 15 9 15 20 0 11 -7 20 -15 20 -10 0
-15 11 -15 35 0 28 -4 35 -20 35 -11 0 -20 7 -20 15 0 11 12 15 50 15 38 0 50
-4 50 -15 0 -8 -7 -15 -15 -15 -8 0 -15 -9 -15 -20 0 -11 7 -20 15 -20 8 0 15
-7 15 -15 0 -8 9 -15 20 -15 11 0 20 7 20 15 0 8 7 15 15 15 8 0 15 -7 15 -15
0 -8 9 -15 20 -15 11 0 20 7 20 15 0 11 12 15 50 15 43 0 50 3 50 20 0 16 7
20 35 20 24 0 35 5 35 15 0 10 -11 15 -35 15 -24 0 -35 5 -35 15 0 11 12 15
50 15 l50 0 0 35 c0 24 -5 35 -15 35 -8 0 -15 9 -15 20 0 16 7 20 30 20 20 0
30 5 30 15 0 8 -7 15 -15 15 -8 0 -15 7 -15 15 0 8 -7 15 -15 15 -10 0 -15
-10 -15 -30 0 -23 -4 -30 -20 -30 -13 0 -20 -7 -20 -20 0 -13 7 -20 20 -20 11
0 20 -7 20 -15 0 -8 -9 -15 -20 -15 -11 0 -20 7 -20 15 0 8 -7 15 -15 15 -8 0
-15 9 -15 20 0 16 -7 20 -35 20 -28 0 -35 -4 -35 -20 0 -11 -7 -20 -15 -20
-10 0 -15 11 -15 35 0 28 -4 35 -20 35 -16 0 -20 -7 -20 -35 0 -24 -5 -35 -15
-35 -10 0 -15 -11 -15 -35 l0 -35 -85 0 c-78 0 -85 2 -85 20 0 17 -7 20 -50
20 l-50 0 0 65 0 65 30 0 c23 0 30 4 30 20 0 11 -7 20 -15 20 -8 0 -15 7 -15
15 0 8 -7 15 -15 15 -8 0 -15 -7 -15 -15 0 -10 -11 -15 -35 -15 -33 0 -35 -2
-35 -35 0 -24 5 -35 15 -35 8 0 15 -7 15 -15 0 -8 -7 -15 -15 -15 -8 0 -15 -9
-15 -20 0 -11 7 -20 15 -20 8 0 15 -7 15 -15 0 -8 -7 -15 -15 -15 -12 0 -15
-14 -15 -70 l0 -70 -55 0 c-48 0 -55 2 -55 20 0 11 -7 20 -15 20 -8 0 -15 7
-15 15 0 8 7 15 15 15 8 0 15 -7 15 -15 0 -8 9 -15 20 -15 11 0 20 7 20 15 0
8 7 15 15 15 8 0 15 7 15 15 0 11 -12 15 -50 15 -43 0 -50 3 -50 20 0 11 -7
20 -15 20 -8 0 -15 7 -15 15 0 8 7 15 15 15 8 0 15 9 15 20 0 11 7 20 15 20
10 0 15 -11 15 -35 0 -33 2 -35 35 -35 33 0 35 2 35 35 0 24 -5 35 -15 35 -8
0 -15 7 -15 15 0 10 -11 15 -35 15 -24 0 -35 5 -35 15 0 8 -7 15 -15 15 -8 0
-15 9 -15 20 0 13 -7 20 -20 20 -11 0 -20 7 -20 15 0 8 -7 15 -15 15 -8 0 -15
-7 -15 -15 0 -10 -11 -15 -35 -15 -28 0 -35 -4 -35 -20 0 -11 -7 -20 -15 -20
-8 0 -15 9 -15 20 0 13 -7 20 -20 20 -18 0 -20 7 -20 65 0 51 -3 65 -15 65
-10 0 -15 11 -15 35 0 24 5 35 15 35 8 0 15 9 15 20 0 11 -7 20 -15 20 -8 0
-15 7 -15 15 0 8 -9 15 -20 15 -13 0 -20 7 -20 20 0 16 7 20 35 20 33 0 35 -2
35 -35 0 -28 4 -35 20 -35 16 0 20 7 20 35 0 28 -4 35 -20 35 -11 0 -20 7 -20
15 0 8 -7 15 -15 15 -10 0 -15 11 -15 35 0 33 -2 35 -35 35 -28 0 -35 -4 -35
-20z"/>
<path d="M660 1580 c0 -13 7 -20 20 -20 11 0 20 -7 20 -15 0 -8 7 -15 15 -15
8 0 15 -7 15 -15 0 -10 11 -15 35 -15 28 0 35 -4 35 -20 0 -16 -7 -20 -35 -20
-24 0 -35 -5 -35 -15 0 -10 11 -15 35 -15 28 0 35 -4 35 -20 0 -16 -7 -20 -35
-20 -33 0 -35 -2 -35 -35 0 -24 5 -35 15 -35 8 0 15 -7 15 -15 0 -8 9 -15 20
-15 11 0 20 -7 20 -15 0 -8 -9 -15 -20 -15 -13 0 -20 -7 -20 -20 0 -13 7 -20
20 -20 13 0 20 7 20 20 0 11 7 20 15 20 10 0 15 10 15 30 0 23 4 30 20 30 16
0 20 7 20 35 0 28 -4 35 -20 35 -13 0 -20 7 -20 20 0 16 7 20 35 20 28 0 35
-4 35 -20 0 -11 7 -20 15 -20 10 0 15 11 15 35 l0 35 -50 0 c-43 0 -50 3 -50
20 0 11 -7 20 -15 20 -8 0 -15 7 -15 15 0 10 -11 15 -35 15 -33 0 -35 2 -35
35 0 33 -2 35 -35 35 -28 0 -35 -4 -35 -20z"/>
<path d="M1450 1580 c0 -11 7 -20 15 -20 8 0 15 -7 15 -15 0 -10 -11 -15 -35
-15 -33 0 -35 -2 -35 -35 0 -28 4 -35 20 -35 13 0 20 7 20 20 0 11 7 20 15 20
8 0 15 -9 15 -20 0 -11 -7 -20 -15 -20 -8 0 -15 -7 -15 -15 0 -8 7 -15 15 -15
8 0 15 -9 15 -20 0 -11 7 -20 15 -20 10 0 15 11 15 35 l0 35 55 0 c42 0 55 -3
55 -15 0 -10 10 -15 30 -15 20 0 30 5 30 15 0 10 -10 15 -30 15 -23 0 -30 4
-30 20 0 18 -7 20 -55 20 -42 0 -55 3 -55 15 0 8 9 15 20 15 11 0 20 7 20 15
0 10 -11 15 -35 15 -28 0 -35 4 -35 20 0 11 -7 20 -15 20 -8 0 -15 -9 -15 -20z"/>
<path d="M1380 1445 c0 -8 -9 -15 -20 -15 -13 0 -20 -7 -20 -20 0 -16 7 -20
35 -20 33 0 35 -2 35 -35 0 -24 -5 -35 -15 -35 -8 0 -15 9 -15 20 0 16 -7 20
-35 20 -33 0 -35 -2 -35 -35 0 -33 -2 -35 -35 -35 -24 0 -35 -5 -35 -15 0 -10
-11 -15 -35 -15 -24 0 -35 5 -35 15 0 11 -12 15 -50 15 -38 0 -50 -4 -50 -15
0 -8 -7 -15 -15 -15 -10 0 -15 10 -15 30 0 23 -4 30 -20 30 -13 0 -20 7 -20
20 0 11 -7 20 -15 20 -8 0 -15 -9 -15 -20 0 -13 -7 -20 -20 -20 -13 0 -20 7
-20 20 0 11 -7 20 -15 20 -8 0 -15 -9 -15 -20 0 -11 7 -20 15 -20 10 0 15 -10
15 -30 0 -27 -3 -30 -30 -30 -23 0 -30 -4 -30 -20 0 -16 7 -20 30 -20 23 0 30
4 30 20 0 13 7 20 20 20 11 0 20 7 20 15 0 8 7 15 15 15 8 0 15 -7 15 -15 0
-8 -7 -15 -15 -15 -8 0 -15 -9 -15 -20 0 -11 7 -20 15 -20 8 0 15 -7 15 -15 0
-8 9 -15 20 -15 11 0 20 7 20 15 0 10 11 15 35 15 28 0 35 4 35 20 0 16 7 20
30 20 23 0 30 -4 30 -20 0 -16 7 -20 35 -20 28 0 35 4 35 20 0 13 7 20 20 20
13 0 20 -7 20 -20 0 -11 7 -20 15 -20 8 0 15 -7 15 -15 0 -11 12 -15 50 -15
38 0 50 4 50 15 0 8 9 15 20 15 11 0 20 -7 20 -15 0 -8 7 -15 15 -15 10 0 15
-11 15 -35 l0 -35 50 0 c38 0 50 4 50 15 0 10 -11 15 -35 15 -28 0 -35 4 -35
20 0 11 -7 20 -15 20 -10 0 -15 11 -15 35 0 33 2 35 35 35 24 0 35 5 35 15 0
8 7 15 15 15 8 0 15 7 15 15 0 8 9 15 20 15 13 0 20 7 20 20 0 13 -7 20 -20
20 -13 0 -20 -7 -20 -20 0 -16 -7 -20 -35 -20 -28 0 -35 4 -35 20 0 11 -7 20
-15 20 -8 0 -15 -9 -15 -20 0 -11 -7 -20 -15 -20 -12 0 -15 13 -15 55 0 48 -2
55 -20 55 -11 0 -20 7 -20 15 0 8 -7 15 -15 15 -8 0 -15 -7 -15 -15z"/>
<path d="M7907 1072 c-14 -24 -138 -354 -135 -357 2 -2 43 26 91 62 49 36 91
63 94 60 3 -3 12 -43 19 -89 28 -159 21 -162 102 44 40 101 72 189 72 195 0 5
-24 13 -52 16 -31 4 -81 21 -120 41 -37 19 -69 32 -71 28z"/>
<path d="M8370 1043 c-37 -19 -88 -36 -118 -40 -28 -3 -52 -9 -52 -12 0 -4 33
-90 74 -191 58 -145 75 -180 80 -160 6 27 36 190 36 196 0 10 24 2 45 -13 12
-10 33 -25 45 -33 12 -8 42 -30 67 -48 l44 -34 -15 37 c-9 20 -41 103 -72 185
-31 83 -60 149 -63 148 -3 0 -35 -16 -71 -35z"/>
<path d="M560 865 l0 -115 120 0 120 0 0 115 0 115 -120 0 -120 0 0 -115z
m200 0 l0 -85 -85 0 -85 0 0 85 0 85 85 0 85 0 0 -85z"/>
<path d="M1550 865 c0 -8 -9 -15 -20 -15 -13 0 -20 -7 -20 -20 0 -17 -7 -20
-50 -20 -38 0 -50 -4 -50 -15 0 -8 -7 -15 -15 -15 -8 0 -15 -7 -15 -15 0 -10
11 -15 35 -15 24 0 35 5 35 15 0 10 10 15 30 15 20 0 30 -5 30 -15 0 -8 9 -15
20 -15 11 0 20 7 20 15 0 12 14 15 65 15 l65 0 0 35 c0 24 -5 35 -15 35 -8 0
-15 -9 -15 -20 0 -16 -7 -20 -35 -20 -28 0 -35 4 -35 20 0 13 7 20 20 20 11 0
20 7 20 15 0 10 -11 15 -35 15 -24 0 -35 -5 -35 -15z"/>
</g>
</svg>
