<?xml version="1.0" encoding="UTF-8"?>
<svg version="1.1" xmlns="http://www.w3.org/2000/svg" width="512" height="512">
<path d="M0 0 C2.86129644 -0.00434407 5.72100915 -0.04068306 8.58203125 -0.07861328 C39.208552 -0.26600106 66.78338453 8.85033956 90.39453125 28.37060547 C91.14347656 28.96615234 91.89242188 29.56169922 92.6640625 30.17529297 C98.38517016 34.89210362 102.88858057 40.5096044 107.39453125 46.37060547 C108.00296875 47.15177734 108.61140625 47.93294922 109.23828125 48.73779297 C127.18856226 72.97067233 132.02706287 101.24217461 131.91210938 130.66894531 C131.91754361 133.03651863 131.92467349 135.40408856 131.93334961 137.77165222 C131.9514171 144.13645634 131.94458831 150.50099803 131.93183327 156.8658061 C131.92575714 160.84734402 131.92608038 164.82884499 131.92979431 168.81038284 C131.93040724 169.47480277 131.93102018 170.13922269 131.93165168 170.82377655 C131.93293075 172.1740685 131.93422761 173.52436043 131.93554205 174.87465234 C131.94688924 187.47018917 131.93392044 200.06560863 131.91234058 212.66112621 C131.89441669 223.45757338 131.89762837 234.25384877 131.91601562 245.05029297 C131.93742639 257.62773701 131.94585195 270.2050793 131.93356657 282.78253901 C131.92725181 289.42683066 131.92649015 296.07102657 131.93971252 302.71531296 C131.95125471 308.94868862 131.94327483 315.18173868 131.9201355 321.41507912 C131.91484294 323.7024017 131.91637146 325.98975165 131.92518616 328.27706337 C131.93610126 331.39653645 131.9224268 334.5149627 131.90246582 337.6343689 C131.91585015 338.99426754 131.91585015 338.99426754 131.92950487 340.38163888 C131.84816194 346.92519119 130.40583189 350.27095371 125.796875 355.01513672 C120.36522587 359.34597163 116.26965948 359.52648505 109.53613281 359.54760742 C108.63010315 359.55417862 107.72407349 359.56074982 106.79058838 359.56752014 C103.78877683 359.58724887 100.78701532 359.59891502 97.78515625 359.60888672 C96.24679737 359.61500001 96.24679737 359.61500001 94.67736053 359.6212368 C89.24877626 359.64209606 83.82021725 359.65639823 78.39160156 359.66577148 C72.78830467 359.67683356 67.18540515 359.71123178 61.58224869 359.75094318 C57.27048002 359.77710536 52.95880608 359.785463 48.64696503 359.78905296 C46.58173693 359.79392019 44.5165131 359.80553802 42.45136261 359.82409096 C39.55742529 359.84847279 36.66451669 359.84751896 33.77050781 359.84057617 C32.49687378 359.85979126 32.49687378 359.85979126 31.19750977 359.87939453 C25.4452382 359.82922895 22.13690924 358.66235674 17.39453125 355.37060547 C12.17427592 349.86817417 11.09605597 344.87669937 11.13624573 337.46058655 C11.13257002 336.66989963 11.12889432 335.87921272 11.12510723 335.0645656 C11.11513597 332.41789651 11.11927641 329.77143789 11.12329102 327.12475586 C11.11890321 325.2255735 11.11360086 323.32639306 11.10745239 321.42721558 C11.0959514 317.33701971 11.09049286 313.24687566 11.089571 309.15666389 C11.08762863 302.67921883 11.06956379 296.20188052 11.04881287 289.72447205 C10.99963689 273.62803072 10.96879614 257.53156025 10.94750977 241.43505859 C10.93095482 228.93862798 10.90803462 216.44228862 10.86448902 203.94591898 C10.84279918 197.5178644 10.83464687 191.08998353 10.83688176 184.66189492 C10.83520478 180.64485518 10.8210929 176.62792695 10.80366898 172.61092758 C10.79810984 170.76075877 10.79754657 168.91056644 10.80260658 167.06039619 C10.84076046 151.46281868 10.41810823 136.34403266 -0.609375 124.15576172 C-10.91487327 114.25584656 -24.45711848 110.32132837 -38.50830078 110.2734375 C-48.03048621 110.7146284 -56.22769616 114.59187801 -63.60546875 120.37060547 C-64.49234375 120.96873047 -65.37921875 121.56685547 -66.29296875 122.18310547 C-76.53851982 131.87484297 -81.08652441 145.69082026 -81.69756567 159.44341409 C-81.73425645 161.5174387 -81.74186399 163.58928167 -81.73677063 165.66362 C-81.73888634 166.44703492 -81.74100206 167.23044985 -81.74318188 168.03760463 C-81.74912327 170.63519166 -81.74818599 173.23272931 -81.74731445 175.83032227 C-81.75034968 177.70366497 -81.75387214 179.57700694 -81.75784302 181.4503479 C-81.76570163 185.47063464 -81.77086529 189.49091264 -81.77413368 193.51120567 C-81.7800648 199.8691362 -81.7966227 206.22701139 -81.81547546 212.58491516 C-81.82181175 214.76471612 -81.82813739 216.94451711 -81.83445263 219.12431812 C-81.83761844 220.215477 -81.84078425 221.30663587 -81.844046 222.43086016 C-81.88608254 237.22334712 -81.91912508 252.01580681 -81.93139648 266.80834961 C-81.93977116 276.80124011 -81.96223297 286.79399195 -82.00075215 296.78681308 C-82.02051929 302.07089511 -82.03291483 307.35476984 -82.02791786 312.63889122 C-82.02327883 317.60405998 -82.03703601 322.56883478 -82.06492996 327.5339241 C-82.07185208 329.35520065 -82.07195735 331.17651784 -82.06472969 332.9977932 C-82.05585536 335.48517915 -82.07151052 337.97126177 -82.09321594 340.45854187 C-82.08055214 341.53787437 -82.08055214 341.53787437 -82.0676325 342.63901156 C-82.14874328 347.66944811 -83.44267414 350.50199541 -86.60546875 354.37060547 C-92.09424172 359.48875186 -97.69674505 360.09258051 -104.93359375 360.00170898 C-105.93628296 360.00886429 -106.93897217 360.01601959 -107.9720459 360.02339172 C-111.26699203 360.04021875 -114.56056607 360.0209102 -117.85546875 359.99951172 C-120.15657666 360.00034096 -122.45768451 360.00280244 -124.75878906 360.00682068 C-129.57374979 360.0096746 -134.38824431 359.99501639 -139.203125 359.9675293 C-145.36340332 359.93344796 -151.52284829 359.93946901 -157.6831665 359.95819187 C-162.43252461 359.96877926 -167.18169006 359.9598081 -171.93103027 359.94480705 C-174.20193916 359.93963759 -176.47286827 359.94009197 -178.74377441 359.94635201 C-181.92206828 359.95182503 -185.09918423 359.93136095 -188.27734375 359.90405273 C-189.67406311 359.91384155 -189.67406311 359.91384155 -191.09899902 359.92382812 C-197.0213641 359.83765524 -201.70250574 358.83815564 -206.60546875 355.37060547 C-210.77269876 350.241707 -211.72862072 346.32812906 -211.73689651 339.869174 C-211.74073766 338.74387333 -211.7445788 337.61857265 -211.74853635 336.45917195 C-211.74766987 335.2227128 -211.74680338 333.98625366 -211.74591064 332.71232605 C-211.74888177 331.39894345 -211.75185289 330.08556085 -211.75491405 328.73237878 C-211.76298323 325.08361979 -211.76477357 321.43488048 -211.76551151 317.78611362 C-211.76736219 313.85212926 -211.77490956 309.9181551 -211.78164673 305.98417664 C-211.79522958 297.38091349 -211.80125458 288.77765501 -211.80565739 280.17438293 C-211.80841966 274.80327426 -211.81265696 269.4321674 -211.81716156 264.06105995 C-211.82935372 249.19204286 -211.83965343 234.32302722 -211.84303665 219.45400524 C-211.84325622 218.50233584 -211.84347578 217.55066643 -211.843702 216.57015856 C-211.84392028 215.61620592 -211.84413856 214.66225329 -211.84436345 213.67939299 C-211.84480692 211.74630431 -211.84525348 209.81321563 -211.84570312 207.88012695 C-211.84592455 206.92124718 -211.84614598 205.9623674 -211.84637412 204.97443066 C-211.85032294 189.43386266 -211.86777975 173.89334152 -211.89106265 158.35279163 C-211.91477005 142.40024426 -211.92723821 126.44772043 -211.92840457 110.49515516 C-211.92932163 101.53725813 -211.93508174 92.57942219 -211.95322418 83.62154198 C-211.96861686 75.99446871 -211.97375053 68.3674754 -211.96548608 60.74038955 C-211.96157673 56.84889724 -211.96252299 52.95756599 -211.97654343 49.06609344 C-211.99160447 44.84722428 -211.9834244 40.62871878 -211.97296143 36.40983582 C-211.98101783 35.18006883 -211.98907423 33.95030185 -211.99737477 32.6832692 C-211.95626831 25.61501147 -211.69520811 20.05884156 -206.9921875 14.44482422 C-206.43144531 13.98720703 -205.87070313 13.52958984 -205.29296875 13.05810547 C-204.46345703 12.35234375 -204.46345703 12.35234375 -203.6171875 11.63232422 C-198.26508226 8.27556695 -192.98777061 8.07699148 -186.88134766 8.09594727 C-186.02525406 8.09083633 -185.16916046 8.0857254 -184.28712463 8.08045959 C-181.46868823 8.06660653 -178.65049757 8.06751724 -175.83203125 8.06982422 C-173.86436879 8.06593474 -171.89670717 8.06159955 -169.92904663 8.05683899 C-165.80846432 8.04938584 -161.6879677 8.04966136 -157.56738281 8.05493164 C-152.29949313 8.06072288 -147.03195543 8.04379914 -141.76412392 8.02058697 C-137.70107997 8.00582002 -133.6381202 8.004982 -129.57505417 8.00809669 C-127.63348061 8.0075849 -125.69190217 8.00237393 -123.75035477 7.99228477 C-121.02946683 7.97988119 -118.30925684 7.9867356 -115.58837891 7.99829102 C-114.79435165 7.99064728 -114.0003244 7.98300354 -113.18223572 7.97512817 C-107.1016106 8.03190692 -101.43739951 9.0635113 -96.58203125 13.01904297 C-96.13601563 13.58880859 -95.69 14.15857422 -95.23046875 14.74560547 C-94.53824219 15.59251953 -94.53824219 15.59251953 -93.83203125 16.45654297 C-91.08370798 20.7453277 -90.31309858 24.63821967 -89.98046875 29.68310547 C-89.86832031 31.28605469 -89.86832031 31.28605469 -89.75390625 32.92138672 C-89.70492187 33.72962891 -89.6559375 34.53787109 -89.60546875 35.37060547 C-89.11820312 34.83693359 -88.6309375 34.30326172 -88.12890625 33.75341797 C-72.66515747 17.5024238 -52.41958976 7.21603008 -30.60546875 2.37060547 C-29.80802246 2.1865918 -29.01057617 2.00257813 -28.18896484 1.81298828 C-18.85483719 -0.05084714 -9.48009457 -0.00160353 0 0 Z M-83.35546875 56.62060547 C-88.23612583 62.01317451 -93.33964039 67.16450975 -98.49609375 72.29248047 C-99.27871582 73.07284668 -100.06133789 73.85321289 -100.86767578 74.65722656 C-102.77912783 76.56284212 -104.69174468 78.46727208 -106.60546875 80.37060547 C-106.62092995 79.37795433 -106.62092995 79.37795433 -106.63670349 78.36524963 C-106.74452824 71.50389234 -106.85914484 64.64267281 -106.9777832 57.78149414 C-107.02120941 55.21772126 -107.0628786 52.65391801 -107.1027832 50.09008789 C-107.16030022 46.41396919 -107.22404738 42.73800448 -107.2890625 39.06201172 C-107.30577499 37.9078627 -107.32248749 36.75371368 -107.33970642 35.56459045 C-107.36962425 33.97305397 -107.36962425 33.97305397 -107.40014648 32.34936523 C-107.42346291 30.94038719 -107.42346291 30.94038719 -107.44725037 29.50294495 C-107.37092034 27.38753881 -107.37092034 27.38753881 -108.60546875 26.37060547 C-136.32546875 26.37060547 -164.04546875 26.37060547 -192.60546875 26.37060547 C-192.60546875 130.32060547 -192.60546875 234.27060547 -192.60546875 341.37060547 C-161.91546875 341.37060547 -131.22546875 341.37060547 -99.60546875 341.37060547 C-99.56808594 327.81740234 -99.53070313 314.26419922 -99.4921875 300.30029297 C-99.46190547 291.70523073 -99.43087706 283.11018187 -99.39648438 274.51513672 C-99.34205422 260.87794216 -99.29063871 247.24078475 -99.2590332 233.60351562 C-99.23599815 223.67032044 -99.20253883 213.73722325 -99.15676719 203.80410588 C-99.13290913 198.54873987 -99.11413185 193.29347046 -99.10785484 188.03805161 C-99.10177031 183.08205059 -99.08164987 178.12629653 -99.05119324 173.17038727 C-99.04246669 171.36054581 -99.03867914 169.55067201 -99.04046059 167.74081039 C-99.05363809 148.15944732 -95.84355086 131.26867475 -83.60546875 115.37060547 C-82.86296875 114.33935547 -82.12046875 113.30810547 -81.35546875 112.24560547 C-68.965388 99.29233923 -51.87980999 92.51330473 -34.10546875 91.99560547 C-14.79119642 92.5353725 2.31785708 100.21166268 15.6171875 114.19091797 C25.12130378 125.84651551 28.49303135 140.84288522 28.5907135 155.57737732 C28.59973503 156.37556745 28.60875656 157.17375758 28.61805147 157.99613529 C28.64698738 160.65535714 28.66931663 163.3145921 28.69165039 165.97387695 C28.7111034 167.88621931 28.73096555 169.79855754 28.75120544 171.71089172 C28.80488582 176.89209551 28.85285022 182.07333825 28.89978337 187.25460696 C28.94984006 192.67319425 29.00516066 198.09172774 29.05992126 203.51026917 C29.16277291 213.76646623 29.26089511 224.02270287 29.35731548 234.27896219 C29.46733543 245.95729439 29.58263187 257.63557263 29.6983701 269.31384933 C29.93629228 293.33271381 30.16689632 317.35164114 30.39453125 341.37060547 C57.78453125 341.37060547 85.17453125 341.37060547 113.39453125 341.37060547 C113.46076884 311.94311294 113.51612227 282.51566402 113.54772724 253.08811643 C113.55147899 249.6074909 113.55536199 246.12686553 113.55932617 242.64624023 C113.5601131 241.95336165 113.56090003 241.26048306 113.56171081 240.54660816 C113.57473574 229.35345983 113.59837337 218.1603581 113.62598964 206.96723735 C113.6541252 195.46702907 113.67050037 183.96685346 113.67679673 172.46661144 C113.68069763 166.01342997 113.68982536 159.56035393 113.71172142 153.10720634 C113.73219243 147.02435091 113.73834366 140.94164363 113.73385429 134.85875702 C113.73467476 132.63488267 113.74057672 130.41100299 113.75214767 128.18715858 C113.90710095 96.85030592 105.41151598 69.32323183 82.95703125 46.55810547 C61.91771099 25.83641693 35.78056394 17.99443192 6.81542969 18 C4.29422285 17.99564809 1.77480295 17.95926905 -0.74609375 17.92138672 C-34.8282446 17.68529448 -60.82567779 31.50778115 -83.35546875 56.62060547 Z " fill="#000000" transform="translate(380.60546875,148.62939453125)"/>
<path d="M0 0 C1.03301491 -0.00503792 1.03301491 -0.00503792 2.0868988 -0.01017761 C4.34855995 -0.01962442 6.61014656 -0.02162761 8.87182617 -0.02270508 C10.45594818 -0.02592223 12.04006989 -0.02928665 13.62419128 -0.03279114 C16.94022306 -0.0387669 20.25622884 -0.04063266 23.57226562 -0.04003906 C27.80194071 -0.03993758 32.0314474 -0.05358236 36.26108265 -0.07081127 C39.53237154 -0.08198132 42.80362038 -0.08395673 46.07492638 -0.08342934 C47.63329333 -0.0846022 49.19166155 -0.08898463 50.75000954 -0.0967617 C72.722394 -0.19614581 72.722394 -0.19614581 81.85229492 8.14526367 C88.96372484 15.64109521 89.29104859 22.88700039 89.2467041 32.76448059 C89.25584076 34.67397107 89.25584076 34.67397107 89.26516199 36.62203711 C89.28153143 40.14427305 89.27924976 43.66628472 89.27378702 47.18854535 C89.27111309 50.99167623 89.28565547 54.79474782 89.29788208 58.59785461 C89.31892337 66.04456924 89.32347766 73.49120599 89.3216942 80.93794683 C89.32038584 86.99224259 89.32419444 93.04651409 89.33161926 99.10080528 C89.33371849 100.84569078 89.33581609 102.59057629 89.33791208 104.3354618 C89.33895561 105.20398418 89.33999914 106.07250657 89.34107429 106.96734782 C89.35997161 123.38902823 89.3589281 139.81066395 89.35210496 156.23235073 C89.3465306 171.2469612 89.36735125 186.26140098 89.40046543 201.27597157 C89.43422005 216.70092543 89.44936851 232.12579758 89.4447484 247.55078906 C89.44250541 256.20751982 89.44772187 264.86409284 89.47264099 273.52079201 C89.4936771 280.89121175 89.49722335 288.26138729 89.4783414 295.63181714 C89.46919744 299.39013773 89.4679987 303.14800328 89.48869705 306.90628815 C89.51091784 310.98624346 89.49415615 315.06513114 89.47375488 319.14509583 C89.48627273 320.32516844 89.49879058 321.50524106 89.51168776 322.72107345 C89.4196218 331.31843009 87.52904922 338.15518596 81.60620117 344.58276367 C80.88303711 345.09838867 80.15987305 345.61401367 79.41479492 346.14526367 C78.69420898 346.68151367 77.97362305 347.21776367 77.23120117 347.77026367 C71.96608532 350.81348334 66.97191588 351.44606259 60.98608398 351.45166016 C60.22098511 351.45998367 59.45588623 351.46830719 58.66760254 351.47688293 C56.15098908 351.50087681 53.63463546 351.50974264 51.11791992 351.51635742 C49.35683113 351.52533294 47.59574308 351.53445495 45.83465576 351.54371643 C42.14618075 351.56018096 38.45779622 351.56790171 34.76928711 351.57080078 C30.06410663 351.57617709 25.35978769 351.61383663 20.65485001 351.65954494 C17.01720141 351.68942515 13.37975737 351.69652673 9.74199677 351.69752693 C8.00858369 351.70170873 6.27516885 351.71406025 4.54187775 351.73504448 C-5.99633471 351.85245759 -15.10922748 351.71448546 -23.27362061 344.18455505 C-30.96329007 336.32421851 -31.5892878 328.03267987 -31.53538513 317.51968384 C-31.54077067 316.25808642 -31.54615621 314.996489 -31.55170494 313.69666135 C-31.56611896 310.21088119 -31.56192761 306.72533828 -31.55453813 303.23954535 C-31.54979867 299.47392928 -31.56232321 295.70836397 -31.57255554 291.94276428 C-31.58973391 284.57171301 -31.59058552 277.20074702 -31.58534264 269.82968093 C-31.58129775 263.83690878 -31.58274828 257.84416179 -31.5880909 251.85139084 C-31.58921353 250.57096763 -31.58921353 250.57096763 -31.59035884 249.26467728 C-31.59189035 247.53043386 -31.5934287 245.79619044 -31.59497381 244.06194703 C-31.60869548 227.80574043 -31.6032636 211.54958199 -31.5917886 195.29337649 C-31.58185755 180.43081525 -31.59479525 165.56837853 -31.61872279 150.70583649 C-31.64312262 135.4345344 -31.65271943 120.16329028 -31.64607006 104.89196908 C-31.64257968 96.32246999 -31.6447979 87.75306664 -31.66232109 79.18358231 C-31.67705416 71.88823489 -31.67766416 64.59305063 -31.66025018 57.29770638 C-31.65174666 53.57792028 -31.64957445 49.8584255 -31.66490173 46.13865471 C-31.68133458 42.10047139 -31.66658157 38.06298881 -31.64891052 34.02481079 C-31.65851553 32.85709314 -31.66812054 31.68937549 -31.6780166 30.48627245 C-31.59728336 21.50875971 -30.00702623 13.98529129 -23.83520508 7.20776367 C-16.94928814 0.95452713 -9.05240955 0.02785878 0 0 Z M-11.14770508 21.14526367 C-13.11020806 24.26650746 -13.39933747 26.68651514 -13.40497398 30.33993435 C-13.41142288 31.39680051 -13.41787177 32.45366668 -13.42451608 33.54255909 C-13.42141888 34.70256351 -13.41832167 35.86256793 -13.41513062 37.057724 C-13.41966173 38.29084668 -13.42419284 39.52396937 -13.42886126 40.7944594 C-13.43934544 44.21911371 -13.44082875 47.64355831 -13.43847251 51.06821382 C-13.4380648 54.76085888 -13.44909906 58.45347247 -13.45858765 62.14610291 C-13.47520776 69.38098336 -13.48069763 76.61583122 -13.4818124 83.85072916 C-13.48276229 89.73017286 -13.48686961 95.6096058 -13.49321365 101.4890461 C-13.51082795 118.15202423 -13.5200521 134.81497659 -13.51855271 151.4779641 C-13.51847279 152.37646153 -13.51839288 153.27495896 -13.51831055 154.20068359 C-13.51822879 155.1002757 -13.51814702 155.9998678 -13.51806279 156.92672027 C-13.51724958 171.51161618 -13.53639546 186.09640889 -13.56458728 200.68127494 C-13.59329459 215.65070737 -13.6071288 230.62008942 -13.60539973 245.58955008 C-13.60473513 253.99631295 -13.61025783 262.40296762 -13.63175583 270.80970573 C-13.64993923 277.96621407 -13.65433838 285.12256513 -13.64073698 292.27908652 C-13.63419317 295.93139946 -13.63414058 299.58341041 -13.65144348 303.23569489 C-13.66999679 307.19254416 -13.65765668 311.14894915 -13.6421814 315.1058197 C-13.65246852 316.2635934 -13.66275565 317.4213671 -13.67335451 318.61422485 C-13.6564464 324.7785259 -13.6564464 324.7785259 -11.24180031 330.33522892 C-7.56475433 333.51348982 -5.11098336 333.28517856 -0.29882812 333.32226562 C0.40544312 333.32883682 1.10971436 333.33540802 1.83532715 333.34217834 C4.1704112 333.36191918 6.50543091 333.37357582 8.84057617 333.38354492 C9.63787832 333.38762045 10.43518047 333.39169598 11.2566433 333.395895 C15.47691973 333.41675943 19.69716361 333.43105932 23.91748047 333.44042969 C28.2756201 333.45149302 32.63324898 333.4858905 36.99120808 333.52560139 C40.34298143 333.55175351 43.69463285 333.56012026 47.04649925 333.56371117 C48.65285884 333.56858106 50.25921284 333.58020661 51.86547279 333.59874916 C54.11580421 333.62311128 56.36481131 333.6221817 58.61523438 333.61523438 C60.53478691 333.62403374 60.53478691 333.62403374 62.49311829 333.63301086 C66.75001128 333.01491666 68.03880419 332.43542878 70.85229492 329.14526367 C71.62714222 325.1339679 71.52147814 321.14827002 71.48048401 317.07421875 C71.4875784 315.82405629 71.49467278 314.57389383 71.50198215 313.28584766 C71.5209478 309.81348604 71.50864728 306.34182666 71.49125922 302.86948252 C71.47791085 299.12570854 71.49331315 295.38203905 71.50508118 291.63827515 C71.52348119 284.30337944 71.51492984 276.96874974 71.49699295 269.63386226 C71.4829796 263.67382726 71.47907142 257.71386459 71.48243523 251.7538147 C71.48315139 250.48246917 71.48315139 250.48246917 71.48388202 249.18543988 C71.48490833 247.46374693 71.48596369 245.74205399 71.48704778 244.02036107 C71.49561962 228.78882999 71.47892421 213.55742752 71.44921875 198.32592773 C71.42038016 183.5387634 71.41329716 168.75178435 71.42871094 153.96459961 C71.44546376 137.87071136 71.44951671 121.77691112 71.43200058 105.68302059 C71.43015615 103.96758462 71.42832142 102.25214864 71.42649651 100.53671265 C71.42512837 99.27060023 71.42512837 99.27060023 71.4237326 97.97890979 C71.41812147 92.02454987 71.42143974 86.07023284 71.42804146 80.11587524 C71.43576495 72.86159713 71.42905774 65.60750155 71.40386642 58.35326028 C71.39134832 54.65045853 71.38525252 50.94794129 71.39640808 47.24512863 C71.40826081 43.23525672 71.38923602 39.22613589 71.36695862 35.21630859 C71.37519939 34.04005826 71.38344015 32.86380793 71.39193064 31.65191364 C71.38088295 30.5804972 71.36983526 29.50908075 71.3584528 28.40519714 C71.35726131 27.47932895 71.35606983 26.55346075 71.35484225 25.59953594 C70.69836489 22.39352113 69.34093509 21.19743931 66.85229492 19.14526367 C63.42242744 17.75898852 59.80373392 18.00492585 56.14355469 17.98413086 C55.47800568 17.97916595 54.81245667 17.97420105 54.1267395 17.96908569 C51.93238276 17.95452037 49.73809824 17.94767244 47.54370117 17.94213867 C46.0143992 17.93638372 44.48509724 17.93062603 42.95579529 17.92486572 C39.75226507 17.91437256 36.54875982 17.90851851 33.34521484 17.9050293 C29.24504869 17.89954018 25.14521387 17.87549642 21.04515171 17.84705734 C17.8872532 17.82841586 14.7294344 17.82322462 11.57148552 17.82169342 C10.06003948 17.81867107 8.54859471 17.81065661 7.03720284 17.79750824 C4.9213561 17.78041126 2.80631789 17.78233603 0.69042969 17.78881836 C-0.51218002 17.78517273 -1.71478973 17.7815271 -2.95384216 17.777771 C-6.51153588 18.18712682 -8.3438047 18.94089332 -11.14770508 21.14526367 Z " fill="#000000" transform="translate(39.147705078125,156.854736328125)"/>
<path d="M0 0 C14.13347483 11.28555312 25.66323852 27.32821967 27.87109375 45.7421875 C29.30004059 66.36093102 25.21939605 84.50361267 12.18359375 101.0546875 C1.02780441 113.72941941 -14.62716385 123.7545273 -31.77441406 124.92236328 C-53.4481868 125.92120415 -70.32156717 122.17597106 -87.12890625 107.7421875 C-87.721875 107.24460937 -88.31484375 106.74703125 -88.92578125 106.234375 C-99.89564765 96.22059787 -108.32687376 80.12872874 -109.29003906 65.25366211 C-109.64333632 43.3019886 -106.65872163 25.33915114 -91.12890625 8.7421875 C-67.11230525 -15.51103026 -28.26863356 -20.39858951 0 0 Z M-79.09375 22.2265625 C-89.9446595 35.63920303 -92.48332386 48.95735685 -91.12890625 65.7421875 C-90.52041093 69.31819986 -89.58129973 72.4269415 -88.12890625 75.7421875 C-87.74605469 76.74185547 -87.74605469 76.74185547 -87.35546875 77.76171875 C-83.37682719 87.01479798 -75.41301894 94.29392251 -67.12890625 99.7421875 C-66.05640625 100.4640625 -64.98390625 101.1859375 -63.87890625 101.9296875 C-53.00265544 107.7449536 -38.80527708 108.57042278 -26.84765625 106.05078125 C-13.96388964 101.72603375 -1.37537271 91.89232654 4.87109375 79.7421875 C7.3766776 73.59065792 9.36914891 67.39295663 9.87109375 60.7421875 C9.9484375 59.78699219 9.9484375 59.78699219 10.02734375 58.8125 C10.65234518 44.59371742 5.67248143 32.16021954 -3.37890625 21.4296875 C-11.79545795 12.53380119 -23.91070201 6.34742313 -36.22265625 5.5390625 C-53.20971763 5.3052956 -67.23481611 9.57129367 -79.09375 22.2265625 Z " fill="#000000" transform="translate(109.12890625,16.2578125)"/>
</svg>
