<?xml version="1.0" standalone="no"?>
<!DOCTYPE svg PUBLIC "-//W3C//DTD SVG 20010904//EN"
 "http://www.w3.org/TR/2001/REC-SVG-20010904/DTD/svg10.dtd">
<svg version="1.0" xmlns="http://www.w3.org/2000/svg"
 width="1024.000000pt" height="1024.000000pt" viewBox="0 0 1024.000000 1024.000000"
 preserveAspectRatio="xMidYMid meet">

<g transform="translate(0.000000,1024.000000) scale(0.100000,-0.100000)"
fill="#000000" stroke="none">
<path d="M4580 8643 c-14 -3 -86 -20 -161 -38 -751 -188 -1362 -510 -1833
-965 -500 -484 -810 -979 -1003 -1605 -101 -329 -153 -620 -173 -974 -11 -199
-8 -241 21 -267 33 -30 62 -11 135 88 83 114 153 198 165 198 5 0 9 -48 9
-107 0 -118 20 -330 45 -476 30 -176 122 -490 204 -694 l20 -52 -32 -5 c-18
-3 -95 -13 -172 -21 -77 -9 -157 -21 -177 -26 -69 -18 -128 -88 -128 -152 0
-22 -6 -25 -50 -31 -27 -4 -165 -6 -307 -6 -407 1 -390 2 -407 -16 -20 -20
-20 -58 0 -78 13 -14 63 -16 390 -16 l374 0 0 -60 0 -60 -339 0 c-295 0 -342
-2 -355 -16 -32 -31 -18 -54 116 -193 249 -256 232 -236 216 -260 -9 -12 -73
-87 -144 -167 -182 -206 -204 -234 -204 -258 1 -52 -6 -51 367 -56 l348 -5 5
-210 c6 -237 11 -258 92 -350 103 -117 224 -143 503 -110 66 8 230 26 365 40
135 15 255 28 267 31 41 8 53 31 53 100 l0 64 33 0 c19 0 173 -20 343 -45 477
-68 742 -100 1268 -149 l259 -25 61 -59 c113 -109 304 -252 366 -273 26 -10
38 -7 83 15 76 38 220 144 318 234 l85 80 335 31 c412 39 733 78 1173 142 186
27 351 49 367 49 l29 0 0 -65 c0 -88 13 -100 116 -109 43 -4 220 -22 392 -41
172 -19 343 -35 380 -35 73 0 147 17 201 45 62 31 137 111 167 178 28 61 29
66 32 264 l4 203 337 0 c366 0 381 2 381 55 0 26 -16 45 -225 274 -71 79 -134
149 -138 157 -6 10 41 67 172 205 126 132 181 198 181 214 0 48 -8 49 -371 46
l-339 -2 0 60 0 61 370 0 c357 0 371 1 390 20 22 22 26 60 8 78 -9 9 -104 12
-367 12 -196 0 -366 3 -377 6 -17 4 -23 16 -26 49 -7 56 -41 103 -92 125 -26
12 -103 25 -211 35 -93 10 -178 20 -187 24 -15 5 -13 16 22 105 124 307 210
690 225 1006 3 63 8 140 11 170 l6 55 30 -35 c16 -19 68 -85 114 -147 47 -62
94 -115 104 -118 24 -8 57 13 64 40 10 34 6 304 -5 425 -62 680 -324 1369
-718 1894 -132 176 -228 285 -390 446 -170 169 -308 280 -526 425 -433 288
-881 477 -1448 610 -130 31 -157 28 -179 -20 -20 -45 1 -69 114 -125 399 -200
609 -456 727 -890 53 -196 76 -508 52 -706 -34 -276 -121 -533 -266 -785 l-27
-46 49 -74 c98 -147 205 -372 261 -549 33 -103 69 -276 60 -285 -10 -10 -97
33 -179 90 -108 73 -113 73 -152 -16 -32 -74 -56 -89 -134 -89 -51 0 -64 -3
-73 -19 -16 -30 -3 -46 52 -66 68 -24 113 -66 150 -139 30 -60 31 -62 25 -183
-3 -68 -3 -123 -2 -123 2 0 11 24 20 53 19 57 51 137 90 221 14 30 25 59 25
65 0 24 35 81 50 81 27 0 104 -54 137 -96 17 -21 45 -63 63 -92 36 -59 68 -74
109 -51 14 8 62 68 106 134 110 164 174 209 271 190 47 -8 125 -81 155 -143
12 -26 30 -92 39 -147 23 -131 25 -135 65 -135 39 0 53 17 105 120 120 239
307 420 488 472 77 23 215 27 280 9 l42 -12 0 -182 c0 -100 -7 -241 -15 -314
-17 -151 -65 -401 -99 -518 l-24 -80 -421 -3 -421 -2 -16 -25 c-18 -27 -12
-60 14 -70 9 -4 192 -8 405 -10 214 -2 391 -6 394 -9 7 -7 -45 -153 -81 -232
l-24 -50 -68 7 c-38 4 -171 15 -296 25 -220 17 -228 17 -248 -1 -28 -25 -27
-73 3 -84 12 -5 99 -16 192 -25 94 -9 305 -32 470 -51 165 -19 347 -39 405
-45 130 -13 145 -16 164 -36 14 -13 16 -49 16 -233 l0 -218 -40 -28 c-66 -46
-70 -36 -70 185 0 186 0 188 -22 193 -43 11 -492 67 -813 101 -486 53 -1076
96 -1325 96 l-125 0 95 51 c124 67 172 103 256 191 139 148 207 342 183 530
-18 145 -56 154 -134 34 -162 -252 -408 -390 -753 -422 l-73 -7 45 65 c87 124
129 231 147 368 28 215 -52 446 -216 627 -99 110 -281 231 -407 272 l-38 13 0
334 0 334 35 0 c33 0 35 -1 29 -27 -4 -16 -7 -32 -8 -37 0 -5 30 -15 69 -22
140 -27 260 -115 326 -239 23 -44 23 -45 5 -76 -24 -40 -10 -51 57 -46 44 4
47 3 47 -20 0 -13 -5 -33 -11 -45 -14 -26 -9 -29 31 -18 49 14 96 50 119 91
27 48 26 57 -5 65 -16 4 -55 42 -105 102 -100 121 -117 170 -50 142 34 -13
107 -88 136 -137 16 -27 23 -31 47 -26 27 5 30 2 50 -46 12 -28 27 -50 33 -48
16 6 52 63 68 112 15 44 15 45 -13 80 -24 31 -45 75 -75 162 -2 7 -18 9 -43 6
-36 -5 -42 -2 -64 28 -29 40 -48 90 -48 130 0 20 -13 43 -46 76 -156 163 -342
458 -360 572 -7 43 -27 54 -52 29 -14 -14 -16 -144 -3 -201 l9 -37 -59 51
c-57 49 -58 51 -43 74 15 23 14 27 -15 78 -34 60 -40 107 -15 131 13 14 48 16
227 16 l211 0 27 -26 c56 -54 159 -38 204 30 42 63 23 159 -39 198 -45 28
-123 21 -166 -15 l-32 -27 -217 0 -217 0 -54 55 -55 56 -3 369 -3 369 34 38
c47 53 68 96 74 158 7 68 -16 139 -63 194 -121 141 -354 111 -435 -57 -18 -36
-23 -63 -23 -117 1 -75 14 -112 65 -176 l29 -37 0 -374 0 -375 -54 -52 -55
-51 -217 0 -218 0 -27 26 c-37 35 -109 43 -158 17 -94 -49 -93 -200 0 -249 44
-22 109 -14 153 20 l35 26 205 0 c220 0 229 -2 242 -55 5 -21 -7 -51 -54 -128
l-17 -28 45 -42 c42 -39 45 -45 43 -90 0 -27 -3 -50 -5 -52 -2 -2 -41 10 -87
26 -96 34 -276 58 -295 39 -7 -7 -8 -13 -1 -18 99 -68 137 -98 175 -136 49
-51 46 -66 -16 -66 -54 0 -186 -39 -272 -80 -77 -37 -161 -95 -162 -112 0 -5
23 -8 51 -8 52 0 174 -24 198 -39 10 -7 5 -20 -27 -62 -51 -70 -95 -156 -122
-247 -21 -69 -22 -71 -43 -57 -12 8 -45 40 -73 72 -219 250 -369 586 -419 934
-19 136 -19 394 0 543 30 224 107 468 195 617 124 209 349 408 580 511 83 38
100 53 100 94 0 52 -35 70 -110 57z m1835 -371 c301 -121 512 -232 765 -403
363 -244 724 -604 934 -928 25 -39 27 -46 15 -69 -8 -13 -24 -31 -37 -40 -20
-13 -24 -13 -43 4 -11 10 -43 52 -71 93 -155 229 -368 467 -577 645 -237 201
-564 421 -1011 679 -85 49 -148 87 -140 84 8 -2 83 -32 165 -65z m-2460 12
c-344 -197 -624 -375 -803 -511 -534 -406 -842 -786 -1312 -1618 -41 -71 -75
-124 -77 -118 -2 6 8 47 23 90 136 399 342 766 609 1088 86 104 326 346 440
444 308 264 667 473 1095 637 115 44 119 42 25 -12z m1282 -8 c27 -32 24 -41
-15 -49 -47 -9 -89 -52 -97 -97 -6 -37 -8 -38 -32 -27 -31 14 -53 56 -53 103
0 28 8 44 35 71 33 33 38 35 87 31 40 -4 57 -11 75 -32z m-80 -457 c45 -28 43
-63 -4 -67 -29 -3 -33 0 -33 20 0 13 -3 33 -6 46 -8 27 0 28 43 1z m33 -244
l0 -45 -38 0 -38 0 2 43 c2 23 3 43 3 45 1 1 17 2 36 2 35 0 35 0 35 -45z m-2
-219 c4 -43 -7 -56 -48 -56 -24 0 -26 3 -25 43 0 47 9 58 45 55 21 -3 25 -9
28 -42z m39 -222 c43 -33 43 -54 1 -54 -18 0 -48 -9 -65 -20 -28 -17 -33 -25
-33 -57 0 -21 7 -47 15 -57 21 -28 19 -36 -11 -36 -39 0 -82 36 -95 80 -17 56
-5 103 37 139 46 41 102 43 151 5z m-35 -367 c135 2 143 -9 46 -62 l-71 -38
-78 39 c-56 27 -79 43 -79 56 0 17 5 18 38 11 20 -4 85 -7 144 -6z m284 -249
c42 -40 72 -74 67 -75 -4 -2 -42 10 -83 25 l-75 28 -3 47 c-2 28 1 47 7 47 6
0 45 -32 87 -72z m-302 -33 c6 -11 21 -37 33 -57 l23 -38 0 -1235 0 -1236 -77
3 -78 3 -3 1323 -2 1324 46 -34 c26 -18 52 -42 58 -53z m-254 -570 c0 -521 10
-484 -96 -373 -72 75 -109 136 -145 237 l-26 75 -21 -40 c-26 -52 -49 -134
-58 -209 l-7 -60 -15 40 c-11 29 -16 79 -16 175 -1 113 3 146 21 205 45 142
153 280 282 364 35 22 68 41 73 41 4 0 8 -205 8 -455z m928 277 c32 -24 43
-52 20 -52 -18 1 -54 31 -67 57 -21 41 -14 41 47 -5z m-3603 -907 c99 -18 198
-66 287 -139 108 -90 175 -179 294 -391 34 -61 43 -70 71 -73 41 -4 52 16 70
128 29 178 125 300 237 300 90 0 149 -52 258 -230 59 -96 77 -112 119 -108 30
3 43 15 106 98 119 157 203 224 298 237 90 12 178 -48 224 -152 12 -26 21 -51
21 -55 0 -5 -19 -11 -42 -15 -189 -29 -391 -128 -512 -251 -69 -70 -84 -101
-43 -90 27 6 176 10 181 5 2 -2 -28 -32 -68 -65 -40 -34 -95 -92 -123 -129
-53 -70 -99 -153 -90 -161 3 -3 20 1 38 9 19 7 46 17 61 20 l27 7 -20 -67
c-35 -121 -36 -388 -1 -388 7 0 22 17 35 38 l23 37 36 -92 c20 -51 35 -95 32
-97 -2 -2 -77 -8 -166 -12 -216 -11 -447 -27 -643 -45 -417 -38 -1174 -131
-1192 -146 -9 -7 -13 -62 -15 -187 l-3 -176 -34 -17 c-25 -12 -39 -14 -53 -7
-17 9 -18 27 -18 247 0 130 4 243 9 251 6 9 51 18 132 27 68 8 259 30 424 49
165 19 374 42 465 50 207 20 204 19 219 51 10 22 9 31 -4 50 -14 21 -23 24
-78 24 -34 0 -168 -11 -297 -24 -218 -23 -236 -23 -245 -8 -20 34 -105 247
-105 265 0 17 18 18 310 16 330 -1 340 0 340 47 0 53 -4 54 -360 54 l-329 0
-26 83 c-58 191 -100 459 -116 747 -6 107 -9 213 -7 235 l3 40 65 11 c88 16
112 16 205 -1z m3170 -37 c14 -6 25 -14 25 -18 0 -9 -59 -64 -63 -59 -5 5 4
89 9 89 1 0 15 -5 29 -12z m176 -96 c24 -16 71 -55 104 -87 l59 -58 -39 -33
c-22 -19 -44 -34 -49 -34 -4 0 -31 22 -60 50 -28 27 -67 61 -86 75 -19 14 -35
29 -35 33 0 10 49 82 56 82 3 0 25 -13 50 -28z m271 -313 c20 -41 40 -88 43
-106 6 -28 3 -34 -24 -47 -16 -9 -35 -16 -40 -16 -6 0 -25 28 -42 63 -17 34
-41 75 -52 91 l-20 28 39 34 c21 18 44 32 49 30 6 -1 27 -36 47 -77z m-944
-45 l-3 -56 -75 -28 c-199 -72 -296 -135 -396 -255 -73 -87 -97 -147 -102
-252 -4 -81 -2 -97 21 -145 36 -77 87 -130 164 -170 122 -64 212 -80 535 -98
188 -10 315 -27 398 -54 l45 -14 -81 -1 c-45 -1 -171 -10 -280 -20 -125 -13
-300 -21 -469 -23 l-270 -3 -58 28 c-109 54 -208 182 -237 306 -27 114 10 282
86 397 49 75 172 198 249 251 122 82 379 192 453 193 22 0 23 -3 20 -56z
m1008 -274 c-4 -38 -13 -89 -21 -112 l-13 -43 -1 42 c-1 23 -6 65 -12 94 -11
49 -10 53 12 70 13 10 28 19 33 19 5 0 6 -31 2 -70z m-1956 -46 c0 -3 -14 -24
-32 -47 -34 -43 -118 -202 -118 -224 0 -7 -5 -13 -11 -13 -16 0 -6 62 21 134
15 40 39 76 71 108 43 43 69 59 69 42z m2705 -236 c-8 -34 -46 -117 -81 -176
l-19 -32 -100 6 c-55 4 -102 8 -104 10 -2 2 9 8 25 14 46 18 185 115 234 164
25 24 46 45 48 45 2 1 0 -14 -3 -31z m-462 -324 c11 -12 -236 -89 -395 -124
l-87 -19 -76 30 c-42 16 -97 34 -121 40 -25 7 -43 13 -42 14 5 6 340 46 443
54 131 11 270 13 278 5z m369 -585 c70 -14 202 -80 256 -126 l43 -38 -81 -90
c-44 -49 -85 -92 -90 -93 -6 -2 -26 10 -45 27 -71 62 -111 76 -215 76 -84 0
-102 -3 -152 -28 -96 -47 -164 -143 -188 -262 -32 -166 65 -347 219 -406 91
-36 238 -28 349 18 32 13 32 14 32 83 0 80 14 73 -135 70 -50 -1 -103 2 -118
5 l-27 7 0 104 0 104 264 0 c231 0 265 -2 270 -16 3 -9 6 -119 6 -245 l0 -229
-32 -21 c-81 -50 -240 -121 -312 -139 -94 -24 -265 -27 -341 -6 -263 71 -444
296 -461 571 -8 117 12 213 67 325 73 147 220 266 375 304 71 17 243 20 316 5z
m-2554 -9 c201 -23 336 -150 362 -343 25 -180 -64 -359 -206 -413 -24 -9 -44
-20 -44 -24 0 -9 48 -79 183 -264 53 -74 97 -138 97 -141 0 -3 -70 -4 -156 -3
l-157 3 -127 180 -127 180 -122 3 -121 3 0 -159 c0 -133 -3 -162 -16 -173 -13
-10 -35 -11 -118 -1 -56 6 -109 14 -119 18 -16 6 -17 46 -17 570 l0 564 198 3
c108 1 244 3 302 5 58 1 142 -2 188 -8z m1334 -11 c72 -15 161 -64 204 -112
136 -150 131 -431 -9 -575 -99 -102 -167 -121 -444 -129 l-213 -6 0 -233 c0
-206 -2 -235 -17 -250 -15 -14 -32 -16 -126 -11 -63 2 -114 10 -120 16 -16 16
-23 1262 -7 1291 10 19 21 20 345 20 206 0 354 -4 387 -11z m-2748 -284 c27
-47 56 -87 65 -89 9 -2 51 -12 94 -21 89 -19 90 -12 -2 -107 l-54 -57 12 -87
c7 -47 10 -88 8 -91 -3 -2 -43 15 -90 38 l-85 42 -87 -41 c-49 -24 -89 -41
-91 -39 -2 2 2 45 8 96 l11 92 -61 59 c-34 32 -62 63 -62 69 0 11 13 16 85 31
70 15 103 29 110 48 13 34 76 142 83 142 4 0 29 -38 56 -85z m5181 5 c20 -37
44 -75 53 -83 9 -8 52 -22 96 -30 43 -9 81 -19 84 -22 3 -3 -25 -37 -62 -75
-43 -44 -66 -76 -62 -85 3 -8 8 -48 12 -90 l7 -76 -79 37 c-43 20 -84 38 -89
40 -6 2 -48 -14 -94 -36 -46 -22 -86 -39 -88 -36 -3 3 0 43 6 91 13 98 15 94
-66 169 -29 27 -53 52 -53 57 0 4 31 14 69 23 105 24 117 31 147 83 56 99 66
113 75 108 4 -3 25 -37 44 -75z m-2300 -966 c0 -72 -2 -79 -20 -82 -14 -2 -37
14 -70 50 l-50 52 -3 -52 c-3 -44 -6 -52 -23 -52 -15 0 -19 7 -19 34 0 18 -3
54 -6 80 -6 43 -5 46 15 46 31 0 56 -15 96 -58 l34 -37 1 33 c0 40 17 75 33
69 8 -2 12 -31 12 -83z m-265 54 c0 -15 -9 -18 -45 -18 -43 0 -45 -1 -45 -30
0 -44 1 -45 50 -45 34 0 45 -4 48 -17 3 -16 -5 -18 -72 -18 l-76 0 0 69 c0 68
1 70 28 74 15 2 46 3 69 3 34 -1 43 -5 43 -18z m478 -5 c-3 -14 -14 -18 -51
-18 l-47 0 0 -37 c0 -35 1 -37 33 -36 57 2 69 -1 65 -18 -2 -13 -18 -16 -76
-17 l-72 -2 0 73 0 72 76 0 c67 0 75 -2 72 -17z"/>
<path d="M2372 4894 c-18 -13 -22 -25 -22 -73 l0 -58 -79 -5 c-86 -5 -111 -17
-111 -53 0 -34 24 -47 82 -46 29 0 65 -2 81 -5 25 -5 27 -9 27 -59 0 -77 13
-105 49 -105 35 0 41 13 41 95 l0 62 79 5 c86 5 111 17 111 53 0 35 -20 44
-105 47 l-80 3 -3 65 c-2 46 -7 69 -19 78 -21 15 -24 15 -51 -4z"/>
<path d="M2597 4412 c-23 -25 -21 -48 5 -66 19 -13 57 -16 220 -16 185 0 199
1 218 20 24 24 24 29 4 58 -15 22 -20 22 -223 22 -189 0 -209 -2 -224 -18z"/>
<path d="M3154 4276 c-8 -14 -15 -35 -14 -48 5 -58 5 -58 -75 -58 -62 0 -79
-4 -95 -20 -46 -46 -14 -80 78 -80 37 0 72 -4 78 -8 6 -4 13 -33 16 -65 5 -67
24 -93 61 -83 27 6 37 37 37 112 l0 44 78 0 c47 0 83 5 90 12 18 18 14 46 -9
69 -17 17 -32 20 -77 19 -84 -3 -82 -4 -82 39 0 22 -4 51 -10 65 -13 35 -54
35 -76 2z"/>
<path d="M3610 2914 l0 -165 204 3 c188 3 207 5 232 24 52 39 69 71 69 133 -1
70 -27 117 -83 149 -37 21 -52 22 -231 22 l-191 0 0 -166z"/>
<path d="M4900 2910 l0 -170 178 0 c167 0 182 1 222 23 115 61 117 231 4 294
-36 21 -51 23 -221 23 l-183 0 0 -170z"/>
<path d="M7878 4899 c-14 -8 -18 -24 -18 -73 0 -75 -1 -76 -104 -76 -68 0 -74
-2 -84 -26 -9 -17 -9 -31 -2 -44 9 -16 24 -20 98 -22 l87 -3 3 -70 c3 -76 13
-95 48 -95 32 0 44 27 44 99 l0 61 58 0 c109 0 159 29 133 78 -12 22 -61 35
-97 26 -13 -3 -40 -3 -59 0 l-35 7 0 59 c0 78 -26 106 -72 79z"/>
<path d="M7115 4538 c-2 -13 -6 -41 -7 -63 l-3 -40 -87 -3 c-76 -2 -89 -6 -98
-23 -15 -27 -3 -58 27 -70 13 -5 54 -9 91 -9 l67 0 2 -51 c1 -28 7 -57 14 -65
17 -20 57 -17 69 5 5 11 10 83 10 161 0 78 -5 150 -10 161 -16 28 -68 26 -75
-3z"/>
<path d="M7450 4432 c-46 -2 -89 -7 -96 -13 -22 -18 -23 -50 -3 -70 16 -16 34
-19 129 -19 97 0 112 2 130 20 24 24 24 29 2 56 -20 25 -49 30 -162 26z"/>
<path d="M946 4408 c-21 -29 -20 -41 2 -61 16 -15 49 -17 259 -17 220 0 241 2
256 18 21 23 22 46 1 66 -13 14 -51 16 -259 16 -241 0 -244 0 -259 -22z"/>
<path d="M8826 4414 c-21 -21 -20 -47 2 -67 16 -15 48 -17 234 -17 195 0 216
2 231 18 22 24 21 45 -1 65 -16 15 -48 17 -235 17 -183 0 -218 -2 -231 -16z"/>
<path d="M1680 4100 c-39 -39 -16 -93 40 -93 35 0 60 23 60 55 0 24 -35 58
-60 58 -11 0 -29 -9 -40 -20z"/>
<path d="M8542 4104 c-32 -22 -27 -73 10 -93 25 -14 29 -14 55 5 35 26 40 57
14 83 -25 25 -49 27 -79 5z"/>
</g>
</svg>
