<?xml version="1.0" encoding="UTF-8"?>
<svg version="1.1" xmlns="http://www.w3.org/2000/svg" width="651" height="329">
<path d="M0 0 C214.83 0 429.66 0 651 0 C651 108.57 651 217.14 651 329 C436.17 329 221.34 329 0 329 C0 220.43 0 111.86 0 0 Z " fill="#0A0A23" transform="translate(0,0)"/>
<path d="M0 0 C160.71 0 321.42 0 487 0 C487 37.95 487 75.9 487 115 C326.29 115 165.58 115 0 115 C0 77.05 0 39.1 0 0 Z " fill="#FEFEFD" transform="translate(95,28)"/>
<path d="M0 0 C0.33 0 0.66 0 1 0 C1 31.68 1 63.36 1 96 C-153.44 96 -307.88 96 -467 96 C-467 83.79 -467 71.58 -467 59 C-312.89 59 -158.78 59 0 59 C-0.33 49.1 -0.66 39.2 -1 29 C-154.78 28.67 -308.56 28.34 -467 28 C-467 27.67 -467 27.34 -467 27 C-236.33 26.505 -236.33 26.505 -1 26 C-0.67 17.42 -0.34 8.84 0 0 Z " fill="#0B0B24" transform="translate(572,38)"/>
<path d="M0 0 C153.78 0 307.56 0 466 0 C466 8.25 466 16.5 466 25 C312.22 25 158.44 25 0 25 C0 16.75 0 8.5 0 0 Z " fill="#FDFDFD" transform="translate(106,39)"/>
<path d="M0 0 C160.71 0 321.42 0 487 0 C487 37.95 487 75.9 487 115 C326.29 115 165.58 115 0 115 C0 77.05 0 39.1 0 0 Z M9 9 C9 41.01 9 73.02 9 106 C163.77 106 318.54 106 478 106 C478 73.99 478 41.98 478 9 C323.23 9 168.46 9 9 9 Z " fill="#FDFDFD" transform="translate(95,28)"/>
<path d="M0 0 C154.77 0 309.54 0 469 0 C468.67 0.66 468.34 1.32 468 2 C314.22 2 160.44 2 2 2 C2 10.25 2 18.5 2 27 C155.45 27 308.9 27 467 27 C467 27.99 467 28.98 467 30 C313.55 30 160.1 30 2 30 C2 39.9 2 49.8 2 60 C1.86516603 66.79466883 1.71449027 73.58328783 1.5 80.375 C1.45142088 82.02082152 1.40324506 83.66665498 1.35546875 85.3125 C1.24154785 89.20848471 1.12245383 93.10427456 1 97 C0.67 97 0.34 97 0 97 C0 64.99 0 32.98 0 0 Z " fill="#919096" transform="translate(104,37)"/>
<path d="M0 0 C0.76577866 0.00404846 1.53155731 0.00809692 2.32054138 0.01226807 C3.12716721 0.00876343 3.93379303 0.00525879 4.76486206 0.00164795 C7.43910757 -0.00717601 10.11308991 -0.00131792 12.78733826 0.00543213 C14.64056957 0.00408567 16.49380054 0.0021453 18.34703064 -0.00036621 C22.23423113 -0.00331837 26.12133982 0.00098312 30.00852966 0.01031494 C34.99905454 0.02170953 39.98936431 0.01515055 44.97988129 0.00317001 C48.80763885 -0.00404611 52.63534516 -0.0017618 56.46310425 0.0034256 C58.30356878 0.00476278 60.14403792 0.00311198 61.98449707 -0.00153351 C64.55366908 -0.00659469 67.12248941 0.00110561 69.69163513 0.01226807 C70.45741379 0.0082196 71.22319244 0.00417114 72.01217651 0 C77.27755973 0.04252861 77.27755973 0.04252861 79.50608826 2.27105713 C79.76487732 4.11871338 79.76487732 4.11871338 79.77171326 6.33355713 C79.77558044 7.52851807 79.77558044 7.52851807 79.77952576 8.74761963 C79.77179138 9.580354 79.76405701 10.41308838 79.75608826 11.27105713 C79.76768982 12.52015869 79.76768982 12.52015869 79.77952576 13.79449463 C79.77694763 14.59113525 79.77436951 15.38777588 79.77171326 16.20855713 C79.7694574 16.93945557 79.76720154 17.670354 79.76487732 18.42340088 C79.50608826 20.27105713 79.50608826 20.27105713 77.50608826 22.27105713 C74.8666634 22.46949327 72.33216488 22.54380595 69.69163513 22.52984619 C68.88500931 22.53335083 68.07838348 22.53685547 67.24731445 22.54046631 C64.57306894 22.54929026 61.8990866 22.54343218 59.22483826 22.53668213 C57.37160694 22.53802859 55.51837597 22.53996896 53.66514587 22.54248047 C49.77794538 22.54543263 45.89083669 22.54113114 42.00364685 22.53179932 C37.01312198 22.52040473 32.0228122 22.52696371 27.03229523 22.53894424 C23.20453766 22.54616036 19.37683135 22.54387606 15.54907227 22.53868866 C13.70860773 22.53735147 11.8681386 22.53900227 10.02767944 22.54364777 C7.45850743 22.54870895 4.8896871 22.54100865 2.32054138 22.52984619 C1.55476273 22.53389465 0.78898407 22.53794312 0 22.54211426 C-5.26538322 22.49958565 -5.26538322 22.49958565 -7.49391174 20.27105713 C-7.75270081 18.42340088 -7.75270081 18.42340088 -7.75953674 16.20855713 C-7.76211487 15.4119165 -7.76469299 14.61527588 -7.76734924 13.79449463 C-7.75961487 12.96176025 -7.75188049 12.12902588 -7.74391174 11.27105713 C-7.75164612 10.43832275 -7.75938049 9.60558838 -7.76734924 8.74761963 C-7.76477112 7.950979 -7.76219299 7.15433838 -7.75953674 6.33355713 C-7.75728088 5.60265869 -7.75502502 4.87176025 -7.75270081 4.11871338 C-7.1167523 -0.42171896 -3.79966567 0.03068998 0 0 Z " fill="#F6AC40" transform="translate(280.49391174316406,70.72894287109375)"/>
<path d="M0 0 C26.07 0 52.14 0 79 0 C79 7.26 79 14.52 79 22 C52.93 22 26.86 22 0 22 C0 14.74 0 7.48 0 0 Z " fill="#F8C14B" transform="translate(110,71)"/>
<path d="M0 0 C25.41 0 50.82 0 77 0 C77 7.26 77 14.52 77 22 C51.59 22 26.18 22 0 22 C0 14.74 0 7.48 0 0 Z " fill="#EFB044" transform="translate(192,71)"/>
<path d="M0 0 C0.33 0 0.66 0 1 0 C1 31.68 1 63.36 1 96 C-153.44 96 -307.88 96 -467 96 C-467 95.67 -467 95.34 -467 95 C-312.89 95 -158.78 95 0 95 C0 83.45 0 71.9 0 60 C-154.11 60 -308.22 60 -467 60 C-467 59.67 -467 59.34 -467 59 C-312.89 59 -158.78 59 0 59 C-0.33 49.1 -0.66 39.2 -1 29 C-154.78 28.67 -308.56 28.34 -467 28 C-467 27.67 -467 27.34 -467 27 C-236.33 26.505 -236.33 26.505 -1 26 C-0.67 17.42 -0.34 8.84 0 0 Z " fill="#34333F" transform="translate(572,38)"/>
<path d="M0 0 C18.18635985 -0.04532904 36.37267069 -0.08209449 54.55907154 -0.10362434 C63.00530345 -0.11389135 71.45149749 -0.127863 79.89770508 -0.15087891 C87.26835 -0.17095415 94.63896746 -0.18374958 102.00963897 -0.18817699 C105.90422989 -0.19076071 109.79874236 -0.19673533 113.69330788 -0.21146011 C143.30403726 -0.31923793 143.30403726 -0.31923793 157.31742859 1.56936646 C160.91614786 1.99019447 164.38065634 2.074297 168 2 C168.33 2.99 168.66 3.98 169 5 C168.67 5.33 168.34 5.66 168 6 C167.9262811 8.96644866 167.90779772 11.90934125 167.9375 14.875 C167.94426758 16.11830078 167.94426758 16.11830078 167.95117188 17.38671875 C167.95991014 18.93214325 167.97069416 20.47755842 167.98413086 22.02294922 C167.99744688 23.68192114 168 25.34097464 168 27 C164.20681963 28.20958312 160.4329862 28.16603898 156.4934082 28.18945312 C155.74340546 28.19774643 154.99340271 28.20603973 154.22067261 28.21458435 C152.59632254 28.23194825 150.97194793 28.24712498 149.34755898 28.26036072 C146.78032065 28.28141782 144.21320652 28.308435 141.64604187 28.33703613 C135.27401925 28.40680469 128.90190888 28.46638275 122.52978516 28.52606201 C117.1388477 28.57690873 111.74797915 28.63168726 106.35713768 28.69187927 C103.82163385 28.71853081 101.28612381 28.73929353 98.75056458 28.7598877 C97.20650928 28.77648169 95.66245693 28.79335273 94.1184082 28.81054688 C93.40828079 28.81473129 92.69815338 28.81891571 91.96650696 28.82322693 C88.70152293 28.58930186 88.70152293 28.58930186 86 30 C83.32212027 30.09512944 80.67011131 30.12555279 77.99194336 30.11352539 C77.15299026 30.11367142 76.31403717 30.11381744 75.44966125 30.1139679 C72.66302956 30.1132685 69.87646384 30.10547485 67.08984375 30.09765625 C65.16313209 30.09579217 63.23641995 30.09436822 61.30970764 30.09336853 C56.22812603 30.08954259 51.1465728 30.07971166 46.06500244 30.06866455 C40.88383366 30.05845206 35.70266031 30.05387126 30.52148438 30.04882812 C20.34764174 30.03808946 10.17382767 30.02049205 0 30 C0 20.1 0 10.2 0 0 Z M4 4 C4 11.26 4 18.52 4 26 C30.07 26 56.14 26 83 26 C83 18.74 83 11.48 83 4 C56.93 4 30.86 4 4 4 Z M86 4 C86 11.26 86 18.52 86 26 C111.41 26 136.82 26 163 26 C163 18.74 163 11.48 163 4 C137.59 4 112.18 4 86 4 Z " fill="#FDFDF5" transform="translate(106,67)"/>
<path d="M0 0 C9.57 0 19.14 0 29 0 C29 5.61 29 11.22 29 17 C24.73382207 17.85323559 21.31333436 18.12128529 17.0065918 18.11352539 C15.98137169 18.11374443 15.98137169 18.11374443 14.93544006 18.1139679 C12.68999999 18.11327462 10.44464423 18.10550974 8.19921875 18.09765625 C6.63694809 18.09578999 5.07467685 18.09436707 3.5124054 18.09336853 C-0.58930084 18.08955972 -4.69097139 18.07974346 -8.79266357 18.06866455 C-12.98221351 18.0584152 -17.17176925 18.05386337 -21.36132812 18.04882812 C-29.57423509 18.03811967 -37.7871131 18.02106297 -46 18 C-46 15.36 -46 12.72 -46 10 C-45.01 10.33 -44.02 10.66 -43 11 C-43 11.66 -43 12.32 -43 13 C-41.68 13 -40.36 13 -39 13 C-39.04125 12.071875 -39.0825 11.14375 -39.125 10.1875 C-39 7 -39 7 -37 4 C-34.375 3.8125 -34.375 3.8125 -32 4 C-32 4.99 -32 5.98 -32 7 C-33.32 6.67 -34.64 6.34 -36 6 C-36 7.65 -36 9.3 -36 11 C-35.01 11 -34.02 11 -33 11 C-33.33 10.01 -33.66 9.02 -34 8 C-33.01 8 -32.02 8 -31 8 C-31.33 9.65 -31.66 11.3 -32 13 C-31.01 13 -30.02 13 -29 13 C-28.67 10.69 -28.34 8.38 -28 6 C-26.68 6.33 -25.36 6.66 -24 7 C-23.67 8.65 -23.34 10.3 -23 12 C-21.68 12.33 -20.36 12.66 -19 13 C-19.33 10.03 -19.66 7.06 -20 4 C-16.43841972 4.61055662 -13.15796004 5.2076443 -10 7 C-8.6875 10.125 -8.6875 10.125 -8 13 C-7.67 12.01 -7.34 11.02 -7 10 C-6.505 10.99 -6.505 10.99 -6 12 C-5.34 10.02 -4.68 8.04 -4 6 C-2.68 6.33 -1.36 6.66 0 7 C-0.33 7.66 -0.66 8.32 -1 9 C-0.34 9.33 0.32 9.66 1 10 C1 8.35 1 6.7 1 5 C0.01 5 -0.98 5 -2 5 C-1.67 4.34 -1.34 3.68 -1 3 C3.75 3.75 3.75 3.75 6 6 C8.06874034 6.6425235 8.06874034 6.6425235 10 7 C10 8.98 10 10.96 10 13 C10.66 13 11.32 13 12 13 C12 10.69 12 8.38 12 6 C12.99 6 13.98 6 15 6 C14.67 8.31 14.34 10.62 14 13 C14.66 12.67 15.32 12.34 16 12 C16.65772428 8.97065509 16.65772428 8.97065509 17 6 C20.3503698 6.57764997 21.68233772 7.58576846 24 10 C25.32 10.66 26.64 11.32 28 12 C28 8.37 28 4.74 28 1 C18.76 1 9.52 1 0 1 C0 0.67 0 0.34 0 0 Z " fill="#FAAE3A" transform="translate(158,73)"/>
<path d="M0 0 C0.76316528 0.00359528 1.52633057 0.00719055 2.31262207 0.01089478 C3.51253029 0.01067574 3.51253029 0.01067574 4.73667908 0.01045227 C7.39344958 0.01115161 10.05015086 0.01894498 12.70690918 0.02676392 C14.54393984 0.02862802 16.38097099 0.03005196 18.21800232 0.03105164 C23.06284955 0.03487742 27.90766701 0.04470821 32.75250244 0.05575562 C37.69237871 0.06596845 42.63225978 0.07054898 47.57214355 0.07559204 C57.27202856 0.08633043 66.97188362 0.10392771 76.67175293 0.12442017 C76.67175293 5.73442017 76.67175293 11.34442017 76.67175293 17.12442017 C75.68175293 15.14442017 75.68175293 15.14442017 74.67175293 13.12442017 C73.35175293 13.45442017 72.03175293 13.78442017 70.67175293 14.12442017 C70.67175293 11.48442017 70.67175293 8.84442017 70.67175293 6.12442017 C68.71273839 6.2382467 66.75451913 6.36583141 64.79675293 6.49942017 C63.16093262 6.60383423 63.16093262 6.60383423 61.49206543 6.71035767 C58.54128819 6.85695508 58.54128819 6.85695508 56.67175293 9.12442017 C56.17675293 8.13442017 56.17675293 8.13442017 55.67175293 7.12442017 C49.87622776 5.76802066 44.53044058 6.35819341 38.67175293 7.12442017 C38.67175293 6.13442017 38.67175293 5.14442017 38.67175293 4.12442017 C38.01175293 4.12442017 37.35175293 4.12442017 36.67175293 4.12442017 C36.67175293 4.78442017 36.67175293 5.44442017 36.67175293 6.12442017 C35.68175293 6.45442017 34.69175293 6.78442017 33.67175293 7.12442017 C32.44655029 10.13289435 32.44655029 10.13289435 31.67175293 13.12442017 C30.35175293 12.79442017 29.03175293 12.46442017 27.67175293 12.12442017 C27.17675293 8.16442017 27.17675293 8.16442017 26.67175293 4.12442017 C23.62262065 3.11330924 23.62262065 3.11330924 20.67175293 4.12442017 C20.01175293 3.79442017 19.35175293 3.46442017 18.67175293 3.12442017 C18.67175293 4.11442017 18.67175293 5.10442017 18.67175293 6.12442017 C16.69175293 6.45442017 14.71175293 6.78442017 12.67175293 7.12442017 C12.34175293 9.43442017 12.01175293 11.74442017 11.67175293 14.12442017 C11.34175293 14.12442017 11.01175293 14.12442017 10.67175293 14.12442017 C10.67175293 10.82442017 10.67175293 7.52442017 10.67175293 4.12442017 C10.01175293 4.12442017 9.35175293 4.12442017 8.67175293 4.12442017 C8.67175293 5.77442017 8.67175293 7.42442017 8.67175293 9.12442017 C8.03237793 9.22754517 7.39300293 9.33067017 6.73425293 9.43692017 C6.05362793 9.66379517 5.37300293 9.89067017 4.67175293 10.12442017 C4.34175293 11.11442017 4.01175293 12.10442017 3.67175293 13.12442017 C3.67175293 11.80442017 3.67175293 10.48442017 3.67175293 9.12442017 C4.66175293 9.12442017 5.65175293 9.12442017 6.67175293 9.12442017 C6.67175293 8.46442017 6.67175293 7.80442017 6.67175293 7.12442017 C5.35175293 7.12442017 4.03175293 7.12442017 2.67175293 7.12442017 C2.67175293 6.46442017 2.67175293 5.80442017 2.67175293 5.12442017 C2.01175293 4.79442017 1.35175293 4.46442017 0.67175293 4.12442017 C0.69495605 4.75090454 0.71815918 5.37738892 0.74206543 6.02285767 C0.7601123 6.84012329 0.77815918 7.65738892 0.79675293 8.49942017 C0.81995605 9.31152954 0.84315918 10.12363892 0.86706543 10.96035767 C0.67175293 13.12442017 0.67175293 13.12442017 -1.32824707 15.12442017 C4.94175293 15.45442017 11.21175293 15.78442017 17.67175293 16.12442017 C17.67175293 13.81442017 17.67175293 11.50442017 17.67175293 9.12442017 C18.00175293 10.44442017 18.33175293 11.76442017 18.67175293 13.12442017 C19.33175293 13.12442017 19.99175293 13.12442017 20.67175293 13.12442017 C20.67175293 11.47442017 20.67175293 9.82442017 20.67175293 8.12442017 C21.33175293 8.12442017 21.99175293 8.12442017 22.67175293 8.12442017 C22.79675293 14.87442017 22.79675293 14.87442017 21.67175293 17.12442017 C12.43175293 17.12442017 3.19175293 17.12442017 -6.32824707 17.12442017 C-6.34887207 14.50504517 -6.36949707 11.88567017 -6.39074707 9.18692017 C-6.39985107 8.36071167 -6.40895508 7.53450317 -6.41833496 6.68325806 C-6.42548652 4.83008258 -6.37853227 2.97692709 -6.32824707 1.12442017 C-4.5853253 -0.6185016 -2.32201212 0.00461713 0 0 Z " fill="#E9BD67" transform="translate(281.3282470703125,72.87557983398438)"/>
<path d="M0 0 C0.33 0.66 0.66 1.32 1 2 C-0.65 2.33 -2.3 2.66 -4 3 C-3.73323796 4.98491642 -3.73323796 4.98491642 -3 7 C-2.01 7.33 -1.02 7.66 0 8 C0 7.34 0 6.68 0 6 C-0.66 6 -1.32 6 -2 6 C-2 5.34 -2 4.68 -2 4 C-1.21625 4.04125 -0.4325 4.0825 0.375 4.125 C3.16116119 4.28728734 3.16116119 4.28728734 5 2 C5.99 2 6.98 2 8 2 C8.33 3.98 8.66 5.96 9 8 C11.475 8.495 11.475 8.495 14 9 C13.67 6.36 13.34 3.72 13 1 C13.99 1 14.98 1 16 1 C16.33 2.32 16.66 3.64 17 5 C17.66 4.01 18.32 3.02 19 2 C22 2 22 2 23.6875 3.5 C24.120625 3.995 24.55375 4.49 25 5 C25.598125 4.505 26.19625 4.01 26.8125 3.5 C29 2 29 2 32 2 C32 2.66 32 3.32 32 4 C31.34 4 30.68 4 30 4 C30.495 5.485 30.495 5.485 31 7 C32.32 6.34 33.64 5.68 35 5 C35 4.01 35 3.02 35 2 C37.31 2 39.62 2 42 2 C42.495 2.99 42.495 2.99 43 4 C43.33 3.34 43.66 2.68 44 2 C47.375 1.8125 47.375 1.8125 51 2 C53 5 53 5 52.75 6.875 C51.90271928 9.2756287 50.94547217 11.63631957 50 14 C28.88 14 7.76 14 -14 14 C-13.67 11.03 -13.34 8.06 -13 5 C-12.01 5.99 -11.02 6.98 -10 8 C-9.5978125 6.576875 -9.5978125 6.576875 -9.1875 5.125 C-7.3085539 0.180405 -4.91529567 -0.26569166 0 0 Z " fill="#F7AC3B" transform="translate(208,77)"/>
<path d="M0 0 C26.07 0 52.14 0 79 0 C79 7.26 79 14.52 79 22 C52.93 22 26.86 22 0 22 C0 14.74 0 7.48 0 0 Z M33.7644043 2.77514648 C27.7959102 3.26061704 21.79623168 3.101336 15.8125 3.0625 C14.46549648 3.05746963 13.11849111 3.05290947 11.77148438 3.04882812 C8.51430317 3.03715364 5.2571454 3.0192225 2 3 C2 8.61 2 14.22 2 20 C11.04051202 20.02260563 20.08100521 20.04094676 29.12153912 20.05181217 C33.31956216 20.0570274 37.51756484 20.06410038 41.71557617 20.07543945 C45.76801058 20.08631663 49.82042542 20.09228709 53.87287331 20.09487724 C55.41779704 20.09672278 56.96271973 20.10032663 58.50763512 20.10573006 C60.67397743 20.11300459 62.8402392 20.11398824 65.0065918 20.11352539 C66.23903122 20.115746 67.47147064 20.11796661 68.74125671 20.12025452 C72.31631926 20.07524842 72.31631926 20.07524842 77 19 C77 13.39 77 7.78 77 2 C72.21681573 1.976868 67.4338307 1.95700844 62.65063477 1.94506836 C61.02823219 1.94008328 59.405834 1.9332928 57.78344727 1.92456055 C49.72105987 1.88229703 41.78893774 1.90864757 33.7644043 2.77514648 Z " fill="#EAB862" transform="translate(110,71)"/>
<path d="M0 0 C20.13 0 40.26 0 61 0 C61 1.32 61 2.64 61 4 C59.125 5.875 59.125 5.875 56 7 C52.57751135 6.64991337 49.31792267 5.89551699 46 5 C45.67 5.99 45.34 6.98 45 8 C44.505 6.515 44.505 6.515 44 5 C43.01 5.33 42.02 5.66 41 6 C38.8125 5.5625 38.8125 5.5625 37 5 C37 5.66 37 6.32 37 7 C37.99 7.33 38.98 7.66 40 8 C37.36 8.99 34.72 9.98 32 11 C32 9.68 32 8.36 32 7 C32.66 7 33.32 7 34 7 C34 6.34 34 5.68 34 5 C31.97954558 5.60183749 29.97888961 6.27306096 28 7 C27.67 7.66 27.34 8.32 27 9 C26.34 9 25.68 9 25 9 C24.67 7.68 24.34 6.36 24 5 C23.01 5.33 22.02 5.66 21 6 C19.78130071 8.50447516 19.78130071 8.50447516 19 11 C18.67 11 18.34 11 18 11 C18 8.69 18 6.38 18 4 C17.01 4 16.02 4 15 4 C15.33 6.64 15.66 9.28 16 12 C14.02 12 12.04 12 10 12 C10 9.69 10 7.38 10 5 C8.63875 5.7734375 8.63875 5.7734375 7.25 6.5625 C4 8 4 8 1.625 7.6875 C1.08875 7.460625 0.5525 7.23375 0 7 C0 7.66 0 8.32 0 9 C0.66 9 1.32 9 2 9 C2 9.66 2 10.32 2 11 C0.68 10.67 -0.64 10.34 -2 10 C-2.33 8.68 -2.66 7.36 -3 6 C-2.360625 5.71125 -1.72125 5.4225 -1.0625 5.125 C1.15206079 4.17176549 1.15206079 4.17176549 2 2 C1.34 2 0.68 2 0 2 C0 1.34 0 0.68 0 0 Z " fill="#F9C34A" transform="translate(206,74)"/>
<path d="M0 0 C0.76577866 0.00404846 1.53155731 0.00809692 2.32054138 0.01226807 C3.12716721 0.00876343 3.93379303 0.00525879 4.76486206 0.00164795 C7.43910757 -0.00717601 10.11308991 -0.00131792 12.78733826 0.00543213 C14.64056957 0.00408567 16.49380054 0.0021453 18.34703064 -0.00036621 C22.23423113 -0.00331837 26.12133982 0.00098312 30.00852966 0.01031494 C34.99905454 0.02170953 39.98936431 0.01515055 44.97988129 0.00317001 C48.80763885 -0.00404611 52.63534516 -0.0017618 56.46310425 0.0034256 C58.30356878 0.00476278 60.14403792 0.00311198 61.98449707 -0.00153351 C64.55366908 -0.00659469 67.12248941 0.00110561 69.69163513 0.01226807 C70.45741379 0.0082196 71.22319244 0.00417114 72.01217651 0 C77.27755973 0.04252861 77.27755973 0.04252861 79.50608826 2.27105713 C79.76487732 4.11871338 79.76487732 4.11871338 79.77171326 6.33355713 C79.77558044 7.52851807 79.77558044 7.52851807 79.77952576 8.74761963 C79.77179138 9.580354 79.76405701 10.41308838 79.75608826 11.27105713 C79.76768982 12.52015869 79.76768982 12.52015869 79.77952576 13.79449463 C79.77694763 14.59113525 79.77436951 15.38777588 79.77171326 16.20855713 C79.7694574 16.93945557 79.76720154 17.670354 79.76487732 18.42340088 C79.50608826 20.27105713 79.50608826 20.27105713 77.50608826 22.27105713 C74.8666634 22.46949327 72.33216488 22.54380595 69.69163513 22.52984619 C68.88500931 22.53335083 68.07838348 22.53685547 67.24731445 22.54046631 C64.57306894 22.54929026 61.8990866 22.54343218 59.22483826 22.53668213 C57.37160694 22.53802859 55.51837597 22.53996896 53.66514587 22.54248047 C49.77794538 22.54543263 45.89083669 22.54113114 42.00364685 22.53179932 C37.01312198 22.52040473 32.0228122 22.52696371 27.03229523 22.53894424 C23.20453766 22.54616036 19.37683135 22.54387606 15.54907227 22.53868866 C13.70860773 22.53735147 11.8681386 22.53900227 10.02767944 22.54364777 C7.45850743 22.54870895 4.8896871 22.54100865 2.32054138 22.52984619 C1.55476273 22.53389465 0.78898407 22.53794312 0 22.54211426 C-5.26538322 22.49958565 -5.26538322 22.49958565 -7.49391174 20.27105713 C-7.75270081 18.42340088 -7.75270081 18.42340088 -7.75953674 16.20855713 C-7.76211487 15.4119165 -7.76469299 14.61527588 -7.76734924 13.79449463 C-7.75961487 12.96176025 -7.75188049 12.12902588 -7.74391174 11.27105713 C-7.75164612 10.43832275 -7.75938049 9.60558838 -7.76734924 8.74761963 C-7.76477112 7.950979 -7.76219299 7.15433838 -7.75953674 6.33355713 C-7.75728088 5.60265869 -7.75502502 4.87176025 -7.75270081 4.11871338 C-7.1167523 -0.42171896 -3.79966567 0.03068998 0 0 Z M-5.49391174 3.27105713 C-5.59372388 5.94837093 -5.6327105 8.59409887 -5.61891174 11.27105713 C-5.62277893 12.0212915 -5.62664612 12.77152588 -5.63063049 13.54449463 C-5.97066716 17.2071183 -5.97066716 17.2071183 -4.49391174 20.27105713 C-1.97388723 20.37141529 0.51875026 20.40723425 3.03929138 20.40045166 C3.82787033 20.40220398 4.61644928 20.4039563 5.42892456 20.40576172 C8.04841786 20.41018071 10.66784422 20.40724209 13.28733826 20.40386963 C15.09955356 20.40454265 16.91176877 20.40551267 18.72398376 20.4067688 C22.52717445 20.40824584 26.3303417 20.40609103 30.13352966 20.40142822 C35.01987321 20.39573093 39.90616183 20.3990099 44.79250336 20.40500069 C48.53614214 20.40860614 52.27976781 20.40746779 56.02340698 20.40487289 C57.82562262 20.40420358 59.62783944 20.40503219 61.43005371 20.40735245 C63.94436317 20.40987872 66.45858243 20.40603875 68.97288513 20.40045166 C70.10125038 20.40348801 70.10125038 20.40348801 71.25241089 20.40658569 C74.66717423 20.69845424 74.66717423 20.69845424 77.50608826 19.27105713 C77.57933994 16.40838146 77.59847031 13.57033813 77.56858826 10.70855713 C77.56407654 9.90224854 77.55956482 9.09593994 77.55491638 8.26519775 C77.54309343 6.26711957 77.5251574 4.2690793 77.50608826 2.27105713 C66.83189127 2.24793385 56.1577002 2.23014212 45.48348331 2.21924496 C40.52754904 2.21401609 35.57163184 2.20691839 30.6157074 2.19561768 C25.8370999 2.18478891 21.05850888 2.17878032 16.27989006 2.17617989 C14.45255206 2.17432562 12.62521501 2.17070497 10.79788399 2.16532707 C8.24755497 2.15811677 5.69729489 2.15706618 3.1469574 2.15753174 C2.38379211 2.15393646 1.62062683 2.15034119 0.83433533 2.14663696 C-2.61933338 1.83969473 -2.61933338 1.83969473 -5.49391174 3.27105713 Z " fill="#3D2919" transform="translate(280.49391174316406,70.72894287109375)"/>
<path d="M0 0 C2.33746522 0.30300475 4.67085177 0.63858045 7 1 C7.99 1 8.98 1 10 1 C14 1 18 1 22 1 C22.495 4.465 22.495 4.465 23 8 C23.99 8 24.98 8 26 8 C26 6.02 26 4.04 26 2 C26.33 2 26.66 2 27 2 C27 5.63 27 9.26 27 13 C0.27 13 -26.46 13 -54 13 C-54 12.67 -54 12.34 -54 12 C-38.3253455 11.33419904 -22.68950475 10.83899026 -7 11 C-7 8.36 -7 5.72 -7 3 C-6.34 3 -5.68 3 -5 3 C-5 4.65 -5 6.3 -5 8 C-3.35 8 -1.7 8 0 8 C-0.185625 6.865625 -0.37125 5.73125 -0.5625 4.5625 C-0.706875 3.386875 -0.85125 2.21125 -1 1 C-0.67 0.67 -0.34 0.34 0 0 Z " fill="#D7A153" transform="translate(330,78)"/>
<path d="M0 0 C25.41 0 50.82 0 77 0 C77 7.26 77 14.52 77 22 C51.59 22 26.18 22 0 22 C0 14.74 0 7.48 0 0 Z M2 2 C2 7.94 2 13.88 2 20 C26.42 20 50.84 20 76 20 C76 13.73 76 7.46 76 1 C66.49925364 0.97744774 56.99852493 0.9590842 47.49775791 0.94818783 C43.08662996 0.94295931 38.6755212 0.93586223 34.2644043 0.92456055 C30.01098885 0.91373056 25.75759191 0.90772293 21.50416374 0.90512276 C19.87778367 0.90326871 18.25140466 0.89964848 16.62503242 0.89426994 C14.35489807 0.88705802 12.08484115 0.88600912 9.81469727 0.88647461 C8.52008072 0.884254 7.22546417 0.88203339 5.89161682 0.87974548 C3.10557617 0.66871888 3.10557617 0.66871888 2 2 Z " fill="#EABC72" transform="translate(192,71)"/>
<path d="M0 0 C-0.33 3.96 -0.66 7.92 -1 12 C-2.32 12.33 -3.64 12.66 -5 13 C-5 10.36 -5 7.72 -5 5 C-6.95901454 5.11382653 -8.9172338 5.24141125 -10.875 5.375 C-12.51082031 5.47941406 -12.51082031 5.47941406 -14.1796875 5.5859375 C-17.13046474 5.73253491 -17.13046474 5.73253491 -19 8 C-19.33 7.34 -19.66 6.68 -20 6 C-25.79552517 4.64360049 -31.14131235 5.23377324 -37 6 C-37 5.01 -37 4.02 -37 3 C-37.66 3 -38.32 3 -39 3 C-39 3.66 -39 4.32 -39 5 C-39.99 5.33 -40.98 5.66 -42 6 C-43.22520264 9.00847418 -43.22520264 9.00847418 -44 12 C-45.32 11.67 -46.64 11.34 -48 11 C-48 8.69 -48 6.38 -48 4 C-47.34 4 -46.68 4 -46 4 C-45.67 3.01 -45.34 2.02 -45 1 C-29.98984584 0.30323235 -15.02668695 -0.15110635 0 0 Z " fill="#F9C352" transform="translate(357,74)"/>
<path d="M0 0 C33.99 0 67.98 0 103 0 C102.67 0.66 102.34 1.32 102 2 C97.05 2 92.1 2 87 2 C87 2.66 87 3.32 87 4 C85.68 4 84.36 4 83 4 C83 3.34 83 2.68 83 2 C72.86460923 1.97686271 62.72922471 1.95907781 52.59381294 1.94818783 C47.88789057 1.94296205 43.18198622 1.9358699 38.47607422 1.92456055 C33.93736468 1.91372088 29.3986725 1.90772086 24.85995102 1.90512276 C23.12554526 1.90327046 21.39114049 1.89965357 19.6567421 1.89426994 C17.23354259 1.88704522 14.81041552 1.88600967 12.38720703 1.88647461 C11.30395645 1.8810817 11.30395645 1.8810817 10.19882202 1.87557983 C6.47492563 1.82830754 6.47492563 1.82830754 3 3 C2.60786962 5.55491823 2.60786962 5.55491823 2.5 8.5 C2.34375 11.53125 2.34375 11.53125 2 14 C1.01 14.495 1.01 14.495 0 15 C0 10.05 0 5.1 0 0 Z " fill="#FDFDFB" transform="translate(106,67)"/>
<path d="M0 0 C0.99 0 1.98 0 3 0 C3 0.66 3 1.32 3 2 C2.34 2 1.68 2 1 2 C1.33 2.99 1.66 3.98 2 5 C3.32 4.34 4.64 3.68 6 3 C6 2.01 6 1.02 6 0 C8.31 0 10.62 0 13 0 C13.33 0.66 13.66 1.32 14 2 C14.33 1.34 14.66 0.68 15 0 C18.375 -0.1875 18.375 -0.1875 22 0 C24 3 24 3 23.75 4.875 C22.90271928 7.2756287 21.94547217 9.63631957 21 12 C14.4 12 7.8 12 1 12 C1.33 10.68 1.66 9.36 2 8 C1.01 7.34 0.02 6.68 -1 6 C-1.25 3.4375 -1.25 3.4375 -1 1 C-0.67 0.67 -0.34 0.34 0 0 Z " fill="#F0AA3F" transform="translate(237,79)"/>
<path d="M0 0 C1.23556641 0.01740234 1.23556641 0.01740234 2.49609375 0.03515625 C3.32238281 0.04417969 4.14867187 0.05320313 5 0.0625 C5.63808594 0.07410156 6.27617187 0.08570313 6.93359375 0.09765625 C6.93359375 1.41765625 6.93359375 2.73765625 6.93359375 4.09765625 C9.97746099 4.17992293 12.00534723 4.07373842 14.93359375 3.09765625 C14.93359375 3.75765625 14.93359375 4.41765625 14.93359375 5.09765625 C14.27359375 5.75765625 13.61359375 6.41765625 12.93359375 7.09765625 C13.92359375 8.58265625 13.92359375 8.58265625 14.93359375 10.09765625 C10.35697159 12.38596733 3.95862083 11.2826833 -1.06640625 11.28515625 C-2.37609375 11.29740234 -3.68578125 11.30964844 -5.03515625 11.32226562 C-6.906875 11.32516602 -6.906875 11.32516602 -8.81640625 11.328125 C-9.96625 11.33223389 -11.11609375 11.33634277 -12.30078125 11.34057617 C-15.06640625 11.09765625 -15.06640625 11.09765625 -17.06640625 9.09765625 C-16.69140625 6.47265625 -16.69140625 6.47265625 -16.06640625 4.09765625 C-12.24883801 2.72333168 -8.99385296 3.41790586 -5.06640625 4.09765625 C-5.06640625 5.74765625 -5.06640625 7.39765625 -5.06640625 9.09765625 C-4.07640625 9.09765625 -3.08640625 9.09765625 -2.06640625 9.09765625 C-2.25203125 7.79828125 -2.43765625 6.49890625 -2.62890625 5.16015625 C-2.9453125 2.9453125 -2.9453125 2.9453125 -3.06640625 1.09765625 C-2.06640625 0.09765625 -2.06640625 0.09765625 0 0 Z " fill="#EBEFF0" transform="translate(186.06640625,45.90234375)"/>
<path d="M0 0 C0.99 0 1.98 0 3 0 C3 7.26 3 14.52 3 22 C28.41 22 53.82 22 80 22 C80 22.33 80 22.66 80 23 C27.53 23 -24.94 23 -79 23 C-79 22.67 -79 22.34 -79 22 C-52.93 22 -26.86 22 0 22 C0 14.74 0 7.48 0 0 Z " fill="#FEF8D5" transform="translate(189,71)"/>
<path d="M0 0 C0.76121658 0.00946152 1.52243317 0.01892303 2.30671692 0.02867126 C4.82296764 0.06235112 7.33872582 0.11046536 9.85473633 0.15869141 C11.59921481 0.18485833 13.343707 0.21012536 15.08821106 0.23452759 C19.68001657 0.30118056 24.27153379 0.38007292 28.86309814 0.46148682 C33.54834934 0.54240495 38.23376966 0.61178627 42.91918945 0.68212891 C52.11275158 0.82185834 61.30605048 0.97451415 70.49926758 1.13525391 C70.49926758 1.79525391 70.49926758 2.45525391 70.49926758 3.13525391 C44.42926758 3.13525391 18.35926758 3.13525391 -8.50073242 3.13525391 C-8.50073242 10.39525391 -8.50073242 17.65525391 -8.50073242 25.13525391 C-9.16073242 25.13525391 -9.82073242 25.13525391 -10.50073242 25.13525391 C-10.58753062 21.34373057 -10.64105449 17.55246094 -10.68823242 13.76025391 C-10.71336914 12.68001953 -10.73850586 11.59978516 -10.7644043 10.48681641 C-10.77407227 9.45556641 -10.78374023 8.42431641 -10.79370117 7.36181641 C-10.81726685 5.93216553 -10.81726685 5.93216553 -10.84130859 4.47363281 C-10.72891846 3.70196777 -10.61652832 2.93030273 -10.50073242 2.13525391 C-6.84501656 -0.30189 -4.21525377 -0.09703378 0 0 Z " fill="#FEF9DA" transform="translate(118.500732421875,67.86474609375)"/>
<path d="M0 0 C9.57 0 19.14 0 29 0 C29 5.61 29 11.22 29 17 C24.64220019 17.87155996 21.09253894 18.10366859 16.6875 18.0625 C15.43324219 18.05347656 14.17898437 18.04445313 12.88671875 18.03515625 C11.93410156 18.02355469 10.98148438 18.01195313 10 18 C10.66 14.04 11.32 10.08 12 6 C12.99 6 13.98 6 15 6 C14.67 8.31 14.34 10.62 14 13 C14.66 12.67 15.32 12.34 16 12 C16.65772428 8.97065509 16.65772428 8.97065509 17 6 C20.3503698 6.57764997 21.68233772 7.58576846 24 10 C25.32 10.66 26.64 11.32 28 12 C28 8.37 28 4.74 28 1 C18.76 1 9.52 1 0 1 C0 0.67 0 0.34 0 0 Z " fill="#FBAE37" transform="translate(158,73)"/>
<path d="M0 0 C1.32 0 2.64 0 4 0 C4.33 1.32 4.66 2.64 5 4 C5.33 2.68 5.66 1.36 6 0 C8.97 0.495 8.97 0.495 12 1 C12 1.66 12 2.32 12 3 C12.99 2.67 13.98 2.34 15 2 C17.73812607 2.45548177 20.3201176 3.25314753 23 4 C23 6.31 23 8.62 23 11 C21.02 11 19.04 11 17 11 C17 10.34 17 9.68 17 9 C16.01 9.66 15.02 10.32 14 11 C11.08203125 11.1953125 11.08203125 11.1953125 7.8125 11.125 C6.72582031 11.10695313 5.63914062 11.08890625 4.51953125 11.0703125 C3.27236328 11.03550781 3.27236328 11.03550781 2 11 C2.66 10.67 3.32 10.34 4 10 C3.525625 8.906875 3.05125 7.81375 2.5625 6.6875 C1.59812191 4.46523745 0.76833172 2.30499515 0 0 Z " fill="#111322" transform="translate(282,110)"/>
<path d="M0 0 C0.9583374 0.00523682 1.9166748 0.01047363 2.90405273 0.01586914 C4.45576172 0.02070312 4.45576172 0.02070312 6.03881836 0.02563477 C7.12743164 0.03401367 8.21604492 0.04239258 9.33764648 0.05102539 C10.97636719 0.05779297 10.97636719 0.05779297 12.64819336 0.06469727 C15.35723144 0.07652713 18.06616248 0.09300996 20.77514648 0.11352539 C21.43514648 2.42352539 22.09514648 4.73352539 22.77514648 7.11352539 C20.13514648 7.11352539 17.49514648 7.11352539 14.77514648 7.11352539 C14.44514648 6.45352539 14.11514648 5.79352539 13.77514648 5.11352539 C13.44514648 5.77352539 13.11514648 6.43352539 12.77514648 7.11352539 C11.45514648 7.11352539 10.13514648 7.11352539 8.77514648 7.11352539 C7.02398919 8.53020009 7.02398919 8.53020009 5.77514648 10.11352539 C5.44514648 9.45352539 5.11514648 8.79352539 4.77514648 8.11352539 C2.45358051 7.70623312 0.11826779 7.36913862 -2.22485352 7.11352539 C-2.6061865 5.12211979 -2.93810934 3.12073462 -3.22485352 1.11352539 C-2.22485352 0.11352539 -2.22485352 0.11352539 0 0 Z " fill="#8A8D99" transform="translate(209.224853515625,113.886474609375)"/>
<path d="M0 0 C1.32 0 2.64 0 4 0 C4 0.66 4 1.32 4 2 C3.67 2.33 3.34 2.66 3 3 C3.66 3.33 4.32 3.66 5 4 C5.33 2.68 5.66 1.36 6 0 C6.33 0 6.66 0 7 0 C7.33 1.65 7.66 3.3 8 5 C8.144375 4.360625 8.28875 3.72125 8.4375 3.0625 C9 1 9 1 10 0 C12.18639453 -0.07258946 14.37500389 -0.08373783 16.5625 -0.0625 C18.35880859 -0.04896484 18.35880859 -0.04896484 20.19140625 -0.03515625 C21.11824219 -0.02355469 22.04507812 -0.01195313 23 0 C23.33 2.31 23.66 4.62 24 7 C20.92382812 7.29296875 20.92382812 7.29296875 17.84765625 7.5859375 C17.23792969 7.72257812 16.62820313 7.85921875 16 8 C15.67 8.66 15.34 9.32 15 10 C13.35 10 11.7 10 10 10 C9.67 9.01 9.34 8.02 9 7 C5.7 7 2.4 7 -1 7 C-1 6.34 -1 5.68 -1 5 C-0.01 5 0.98 5 2 5 C1.01 4.34 0.02 3.68 -1 3 C-0.67 2.01 -0.34 1.02 0 0 Z " fill="#545167" transform="translate(344,114)"/>
<path d="M0 0 C0.99 1.485 0.99 1.485 2 3 C1.5155542 3.40774658 1.0311084 3.81549316 0.53198242 4.2355957 C-1.33110371 6.38133649 -1.41229073 7.42659846 -1.51171875 10.23046875 C-1.56489258 11.43413086 -1.56489258 11.43413086 -1.61914062 12.66210938 C-1.64169922 13.49548828 -1.66425781 14.32886719 -1.6875 15.1875 C-1.72166016 16.03248047 -1.75582031 16.87746094 -1.79101562 17.74804688 C-1.87341471 19.83156649 -1.93838645 21.91576216 -2 24 C-2.66 24 -3.32 24 -4 24 C-4 16.74 -4 9.48 -4 2 C-29.08 2 -54.16 2 -80 2 C-80 1.67 -80 1.34 -80 1 C-69.60410228 0.80006477 -59.20805799 0.61631331 -48.81151009 0.45341206 C-43.98434428 0.37726348 -39.15740974 0.29547184 -34.33056641 0.20092773 C-29.67529796 0.10994953 -25.0200015 0.03360639 -20.36431503 -0.03244972 C-18.58516311 -0.06029288 -16.80608671 -0.09347363 -15.02713394 -0.13199425 C-12.54167579 -0.18491512 -10.05662967 -0.21911317 -7.57080078 -0.2487793 C-6.45949799 -0.27898415 -6.45949799 -0.27898415 -5.32574463 -0.30979919 C-3.27761841 -0.32279968 -3.27761841 -0.32279968 0 0 Z " fill="#FDF4CF" transform="translate(273,69)"/>
<path d="M0 0 C2.31 0 4.62 0 7 0 C7 0.33 7 0.66 7 1 C5.35 1 3.7 1 2 1 C2 1.66 2 2.32 2 3 C3.32 3 4.64 3 6 3 C6 3.66 6 4.32 6 5 C5.01 5 4.02 5 3 5 C4.32 5 5.64 5 7 5 C7.33 3.35 7.66 1.7 8 0 C8.66 0 9.32 0 10 0 C10.66 0.99 11.32 1.98 12 3 C12.99 3.33 13.98 3.66 15 4 C15 6.31 15 8.62 15 11 C11.38132441 12.2062252 8.07493749 12.10816918 4.3125 12.0625 C3.61060547 12.05798828 2.90871094 12.05347656 2.18554688 12.04882812 C0.45699462 12.03706927 -1.27151365 12.01913454 -3 12 C-2.68289063 11.42765625 -2.36578125 10.8553125 -2.0390625 10.265625 C-0.99251588 7.98368124 -0.62322582 6.23225818 -0.375 3.75 C-0.25125 2.5125 -0.1275 1.275 0 0 Z " fill="#D79C2F" transform="translate(282,77)"/>
<path d="M0 0 C1.65 0 3.3 0 5 0 C5 0.66 5 1.32 5 2 C5.66 1.67 6.32 1.34 7 1 C7 0.67 7 0.34 7 0 C8.62463842 -0.05395478 10.24978541 -0.09277195 11.875 -0.125 C13.23238281 -0.15980469 13.23238281 -0.15980469 14.6171875 -0.1953125 C17 0 17 0 19 2 C18.625 4.125 18.625 4.125 18 6 C16.68 6.33 15.36 6.66 14 7 C14.33 7.99 14.66 8.98 15 10 C8.9453125 10.1953125 8.9453125 10.1953125 7 10 C6.34 9.34 5.68 8.68 5 8 C4.67 8.66 4.34 9.32 4 10 C2.68 9.67 1.36 9.34 0 9 C0.99 8.34 1.98 7.68 3 7 C2.42547254 3.06924356 2.42547254 3.06924356 0 0 Z " fill="#848687" transform="translate(110,46)"/>
<path d="M0 0 C3.55060608 0.60867533 6.83461241 1.24145134 10 3 C10.875 5.5625 10.875 5.5625 11 8 C7.78590032 11.21409968 -0.70862088 11.13229526 -5.125 11.1875 C-8 11 -8 11 -9 10 C-9.23529412 4.47058824 -9.23529412 4.47058824 -8 2 C-6.02 2.495 -6.02 2.495 -4 3 C-3.67 4.65 -3.34 6.3 -3 8 C-1.68 8.33 -0.36 8.66 1 9 C0.67 6.03 0.34 3.06 0 0 Z " fill="#B78530" transform="translate(138,77)"/>
<path d="M0 0 C0.66 0 1.32 0 2 0 C2 1.32 2 2.64 2 4 C2.62648437 3.96519531 3.25296875 3.93039063 3.8984375 3.89453125 C4.71570313 3.86746094 5.53296875 3.84039062 6.375 3.8125 C7.18710938 3.77769531 7.99921875 3.74289063 8.8359375 3.70703125 C9.55007812 3.80371094 10.26421875 3.90039062 11 4 C11.99 5.485 11.99 5.485 13 7 C11.35 7 9.7 7 8 7 C8.33 7.66 8.66 8.32 9 9 C9.99 9 10.98 9 12 9 C12 9.66 12 10.32 12 11 C6.39 11 0.78 11 -5 11 C-5 8.36 -5 5.72 -5 3 C-4.34 2.67 -3.68 2.34 -3 2 C-3 2.66 -3 3.32 -3 4 C-2.34 4 -1.68 4 -1 4 C-0.67 2.68 -0.34 1.36 0 0 Z " fill="#808F9F" transform="translate(185,110)"/>
<path d="M0 0 C1.8871875 0.061875 1.8871875 0.061875 3.8125 0.125 C5.89457071 4.53409091 5.89457071 4.53409091 5.5 7.375 C4.8125 9.125 4.8125 9.125 3.8125 10.125 C2.17019636 10.2495486 0.52197724 10.30068524 -1.125 10.3125 C-2.02089844 10.32667969 -2.91679687 10.34085938 -3.83984375 10.35546875 C-6.1875 10.125 -6.1875 10.125 -8.1875 8.125 C-8 5.125 -8 5.125 -7.1875 2.125 C-4.09861478 0.06574319 -3.47814073 -0.1140374 0 0 Z " fill="#E1E3E4" transform="translate(280.1875,45.875)"/>
<path d="M0 0 C5.75 0.75 5.75 0.75 8 3 C10.06874034 3.6425235 10.06874034 3.6425235 12 4 C12 6.31 12 8.62 12 11 C7.02936879 11.91297308 2.97063121 11.91297308 -2 11 C-2.98120464 7.94736336 -2.98120464 6.05263664 -2 3 C-0.02 3.495 -0.02 3.495 2 4 C1.67 4.66 1.34 5.32 1 6 C1.66 6.33 2.32 6.66 3 7 C3 5.35 3 3.7 3 2 C2.01 2 1.02 2 0 2 C0 1.34 0 0.68 0 0 Z " fill="#E2A548" transform="translate(156,76)"/>
<path d="M0 0 C4.66666667 0 9.33333333 0 14 0 C14 0.99 14 1.98 14 3 C12.35 2.67 10.7 2.34 9 2 C9 2.66 9 3.32 9 4 C11.475 4.99 11.475 4.99 14 6 C13.67 7.65 13.34 9.3 13 11 C7.62694301 11.35233161 7.62694301 11.35233161 5 11 C3 9 3 9 2 7 C2.99 7 3.98 7 5 7 C5 6.34 5 5.68 5 5 C3.35 4.67 1.7 4.34 0 4 C0 2.68 0 1.36 0 0 Z " fill="#11132F" transform="translate(427,110)"/>
<path d="M0 0 C0 0.99 0 1.98 0 3 C0.66 3 1.32 3 2 3 C2.33 2.01 2.66 1.02 3 0 C3.66 0 4.32 0 5 0 C5 1.98 5 3.96 5 6 C5.66 6 6.32 6 7 6 C6.67 4.35 6.34 2.7 6 1 C7.32 1.33 8.64 1.66 10 2 C9.67 3.32 9.34 4.64 9 6 C9.66 6 10.32 6 11 6 C11 5.01 11 4.02 11 3 C11.66 3 12.32 3 13 3 C13.33 4.32 13.66 5.64 14 7 C9.71 7 5.42 7 1 7 C1 6.34 1 5.68 1 5 C0.34 5 -0.32 5 -1 5 C-1 5.66 -1 6.32 -1 7 C-2.98 7 -4.96 7 -7 7 C-7.625 4.625 -7.625 4.625 -8 2 C-5.44123378 -0.55876622 -3.37797483 -1.68898741 0 0 Z " fill="#1B172D" transform="translate(162,114)"/>
<path d="M0 0 C0.33 0 0.66 0 1 0 C1.33 3.63 1.66 7.26 2 11 C-0.45862401 11.05383848 -2.9160755 11.09359038 -5.375 11.125 C-6.42300781 11.15013672 -6.42300781 11.15013672 -7.4921875 11.17578125 C-9.32897486 11.19344267 -11.16601963 11.10303261 -13 11 C-13.66 10.34 -14.32 9.68 -15 9 C-14.625 6.375 -14.625 6.375 -14 4 C-10.18243176 2.62567543 -6.92744671 3.32024961 -3 4 C-3 5.65 -3 7.3 -3 9 C-2.01 9 -1.02 9 0 9 C-0.185625 7.700625 -0.37125 6.40125 -0.5625 5.0625 C-0.87890625 2.84765625 -0.87890625 2.84765625 -1 1 C-0.67 0.67 -0.34 0.34 0 0 Z " fill="#A0A2A5" transform="translate(184,46)"/>
<path d="M0 0 C4.53675697 -0.17791204 7.907775 -0.0461125 12 2 C13 3 13 3 13.1875 5.9375 C13 9 13 9 11 11 C8.54901444 10.60467975 6.36095721 9.78698574 4 9 C3.67 9.66 3.34 10.32 3 11 C2.34 11 1.68 11 1 11 C1.66 8.69 2.32 6.38 3 4 C2.01 3.67 1.02 3.34 0 3 C0 2.01 0 1.02 0 0 Z " fill="#787A7F" transform="translate(207,45)"/>
<path d="M0 0 C0.66 0 1.32 0 2 0 C2.33 0.99 2.66 1.98 3 3 C3.99 3 4.98 3 6 3 C6.33 4.32 6.66 5.64 7 7 C7.66 6.34 8.32 5.68 9 5 C8.67 4.34 8.34 3.68 8 3 C9.65 3.33 11.3 3.66 13 4 C13.33 5.98 13.66 7.96 14 10 C9.38 10 4.76 10 0 10 C0 8.02 0 6.04 0 4 C-0.66 4 -1.32 4 -2 4 C-2 5.65 -2 7.3 -2 9 C-4.1385485 6.8614515 -4.42655063 5.86724686 -5 3 C-4.01 2.34 -3.02 1.68 -2 1 C-2 1.66 -2 2.32 -2 3 C-1.34 3 -0.68 3 0 3 C0 2.01 0 1.02 0 0 Z " fill="#AAA6B7" transform="translate(376,111)"/>
<path d="M0 0 C0.99 0.66 1.98 1.32 3 2 C2.34 2 1.68 2 1 2 C1.33 3.98 1.66 5.96 2 8 C0.35 9.32 -1.3 10.64 -3 12 C-2.01 12.66 -1.02 13.32 0 14 C-3.75 15.125 -3.75 15.125 -6 14 C-7.67654729 14.27942455 -9.34608154 14.60828247 -11 15 C-11.33 13.68 -11.66 12.36 -12 11 C-11.360625 10.896875 -10.72125 10.79375 -10.0625 10.6875 C-9.0415625 10.3471875 -9.0415625 10.3471875 -8 10 C-7.67 9.01 -7.34 8.02 -7 7 C-7.99 6.67 -8.98 6.34 -10 6 C-10 5.34 -10 4.68 -10 4 C-8.00045254 3.95745644 -5.99958364 3.95919217 -4 4 C-3.67 4.33 -3.34 4.66 -3 5 C-2.87625 4.360625 -2.7525 3.72125 -2.625 3.0625 C-2.41875 2.381875 -2.2125 1.70125 -2 1 C-1.34 0.67 -0.68 0.34 0 0 Z M-5 6 C-4 8 -4 8 -4 8 Z " fill="#111229" transform="translate(203,113)"/>
<path d="M0 0 C9.57 0 19.14 0 29 0 C29 4.29 29 8.58 29 13 C21.48046875 14.85546875 21.48046875 14.85546875 19 15 C17.15625 13.75 17.15625 13.75 16 12 C16.3125 8.8125 16.3125 8.8125 17 6 C20.3503698 6.57764997 21.68233772 7.58576846 24 10 C25.32 10.66 26.64 11.32 28 12 C28 8.37 28 4.74 28 1 C18.76 1 9.52 1 0 1 C0 0.67 0 0.34 0 0 Z " fill="#F1AF3F" transform="translate(158,73)"/>
<path d="M0 0 C1.32 0 2.64 0 4 0 C4 0.99 4 1.98 4 3 C4.38800781 2.50886719 4.77601563 2.01773438 5.17578125 1.51171875 C7.61211696 -0.50725753 9.06930672 -0.30898805 12.1875 -0.1875 C13.08855469 -0.16042969 13.98960937 -0.13335937 14.91796875 -0.10546875 C15.94857422 -0.05326172 15.94857422 -0.05326172 17 0 C17.33 0.99 17.66 1.98 18 3 C16.68 3 15.36 3 14 3 C14.33 3.66 14.66 4.32 15 5 C15.99 5 16.98 5 18 5 C18 5.66 18 6.32 18 7 C12 7 6 7 0 7 C0.33 6.34 0.66 5.68 1 5 C0.67 4.67 0.34 4.34 0 4 C0 2.68 0 1.36 0 0 Z " fill="#AAACBB" transform="translate(310,114)"/>
<path d="M0 0 C0.99 0 1.98 0 3 0 C3.33 1.32 3.66 2.64 4 4 C4.66 3.01 5.32 2.02 6 1 C9 1 9 1 10.6875 2.5 C11.120625 2.995 11.55375 3.49 12 4 C12.66 3.67 13.32 3.34 14 3 C14 4.65 14 6.3 14 8 C10.36178302 10.32845886 7.23971058 10.23553948 3 10 C2.34 9.67 1.68 9.34 1 9 C0.5859375 6.93359375 0.5859375 6.93359375 0.375 4.4375 C0.30023438 3.61121094 0.22546875 2.78492187 0.1484375 1.93359375 C0.09945312 1.29550781 0.05046875 0.65742187 0 0 Z " fill="#F1B247" transform="translate(221,78)"/>
<path d="M0 0 C1.2065625 0.0309375 1.2065625 0.0309375 2.4375 0.0625 C2.7675 0.7225 3.0975 1.3825 3.4375 2.0625 C1.7875 2.3925 0.1375 2.7225 -1.5625 3.0625 C-1.29573796 5.04741642 -1.29573796 5.04741642 -0.5625 7.0625 C0.4275 7.3925 1.4175 7.7225 2.4375 8.0625 C2.4375 7.4025 2.4375 6.7425 2.4375 6.0625 C1.7775 6.0625 1.1175 6.0625 0.4375 6.0625 C0.4375 5.4025 0.4375 4.7425 0.4375 4.0625 C1.22125 4.10375 2.005 4.145 2.8125 4.1875 C5.59866119 4.34978734 5.59866119 4.34978734 7.4375 2.0625 C8.4275 2.0625 9.4175 2.0625 10.4375 2.0625 C10.7675 4.0425 11.0975 6.0225 11.4375 8.0625 C7.78937527 10.39729983 4.69562212 10.44268947 0.4375 10.0625 C-2 8.9375 -2 8.9375 -3.5625 7.0625 C-3.875 3.9375 -3.875 3.9375 -3.5625 1.0625 C-2.5625 0.0625 -2.5625 0.0625 0 0 Z " fill="#AE7C2A" transform="translate(205.5625,76.9375)"/>
<path d="M0 0 C2.625 -0.1875 2.625 -0.1875 5 0 C5 0.99 5 1.98 5 3 C3.68 2.67 2.36 2.34 1 2 C1 3.65 1 5.3 1 7 C1.99 7 2.98 7 4 7 C3.67 6.01 3.34 5.02 3 4 C3.99 4 4.98 4 6 4 C5.67 5.65 5.34 7.3 5 9 C2.36 9.66 -0.28 10.32 -3 11 C-3 11.66 -3 12.32 -3 13 C-2.34 13.33 -1.68 13.66 -1 14 C-3.64 14 -6.28 14 -9 14 C-9 11.36 -9 8.72 -9 6 C-8.01 6.33 -7.02 6.66 -6 7 C-6 7.66 -6 8.32 -6 9 C-4.68 9 -3.36 9 -2 9 C-2.04125 8.071875 -2.0825 7.14375 -2.125 6.1875 C-2 3 -2 3 0 0 Z " fill="#C98724" transform="translate(121,77)"/>
<path d="M0 0 C0.9075 0.185625 1.815 0.37125 2.75 0.5625 C5.72667662 0.96320647 7.21103634 0.8263596 10 0 C11 1 11 1 11.0625 3.5625 C11.041875 4.366875 11.02125 5.17125 11 6 C9.0625 6.5625 9.0625 6.5625 7 7 C6.67 6.67 6.34 6.34 6 6 C5.67 7.32 5.34 8.64 5 10 C3.02 10 1.04 10 -1 10 C-0.67 9.34 -0.34 8.68 0 8 C0.99 8.33 1.98 8.66 3 9 C3 8.34 3 7.68 3 7 C1.68 6.67 0.36 6.34 -1 6 C-0.67 4.02 -0.34 2.04 0 0 Z " fill="#9C6F28" transform="translate(333,79)"/>
<path d="M0 0 C1.23556641 0.01740234 1.23556641 0.01740234 2.49609375 0.03515625 C3.32238281 0.04417969 4.14867187 0.05320312 5 0.0625 C5.63808594 0.07410156 6.27617187 0.08570312 6.93359375 0.09765625 C7.26359375 1.74765625 7.59359375 3.39765625 7.93359375 5.09765625 C7.93359375 3.44765625 7.93359375 1.79765625 7.93359375 0.09765625 C8.92359375 0.09765625 9.91359375 0.09765625 10.93359375 0.09765625 C10.93359375 2.40765625 10.93359375 4.71765625 10.93359375 7.09765625 C8.95359375 7.09765625 6.97359375 7.09765625 4.93359375 7.09765625 C4.93359375 6.43765625 4.93359375 5.77765625 4.93359375 5.09765625 C3.94359375 5.75765625 2.95359375 6.41765625 1.93359375 7.09765625 C-0.75390625 6.72265625 -0.75390625 6.72265625 -3.06640625 6.09765625 C-3.10912725 4.4315372 -3.10704457 2.7638274 -3.06640625 1.09765625 C-2.06640625 0.09765625 -2.06640625 0.09765625 0 0 Z " fill="#818592" transform="translate(294.06640625,113.90234375)"/>
<path d="M0 0 C0.99 0.33 1.98 0.66 3 1 C2.67 2.65 2.34 4.3 2 6 C2.66 6 3.32 6 4 6 C4.33 4.68 4.66 3.36 5 2 C8.73437848 1.12132271 12.16774573 0.91087781 16 1 C15.01 1.495 15.01 1.495 14 2 C14.33 3.98 14.66 5.96 15 8 C14.38125 7.814375 13.7625 7.62875 13.125 7.4375 C10.95839822 6.76313824 10.95839822 6.76313824 9 8 C7.45976004 8.06950541 5.91665012 8.08452357 4.375 8.0625 C3.14910156 8.04896484 3.14910156 8.04896484 1.8984375 8.03515625 C0.95871094 8.01775391 0.95871094 8.01775391 0 8 C-0.38063221 5.6739143 -0.71269945 3.33944736 -1 1 C-0.67 0.67 -0.34 0.34 0 0 Z " fill="#9F9DA7" transform="translate(442,113)"/>
<path d="M0 0 C3.125 0.3125 3.125 0.3125 5 2.3125 C5.556875 3.3025 5.556875 3.3025 6.125 4.3125 C6.125 3.3225 6.125 2.3325 6.125 1.3125 C6.785 1.3125 7.445 1.3125 8.125 1.3125 C8.125 2.3025 8.125 3.2925 8.125 4.3125 C8.785 4.3125 9.445 4.3125 10.125 4.3125 C10.125 4.9725 10.125 5.6325 10.125 6.3125 C10.785 6.6425 11.445 6.9725 12.125 7.3125 C10.805 7.3125 9.485 7.3125 8.125 7.3125 C6.3738427 8.7291747 6.3738427 8.7291747 5.125 10.3125 C4.795 9.6525 4.465 8.9925 4.125 8.3125 C1.80343403 7.90520772 -0.5318787 7.56811323 -2.875 7.3125 C-3.25633299 5.3210944 -3.58825582 3.31970923 -3.875 1.3125 C-2.875 0.3125 -2.875 0.3125 0 0 Z " fill="#3A394A" transform="translate(209.875,113.6875)"/>
<path d="M0 0 C0.33 0 0.66 0 1 0 C1.66 4.62 2.32 9.24 3 14 C9.93 14.33 16.86 14.66 24 15 C24 12.69 24 10.38 24 8 C24.33 9.32 24.66 10.64 25 12 C25.66 12 26.32 12 27 12 C27 10.35 27 8.7 27 7 C27.66 7 28.32 7 29 7 C29.125 13.75 29.125 13.75 28 16 C18.76 16 9.52 16 0 16 C0 10.72 0 5.44 0 0 Z " fill="#EAAF59" transform="translate(275,74)"/>
<path d="M0 0 C0.66 0 1.32 0 2 0 C2 1.98 2 3.96 2 6 C2.66 6 3.32 6 4 6 C4 4.02 4 2.04 4 0 C4.66 0 5.32 0 6 0 C6.33 1.32 6.66 2.64 7 4 C7.66 3.34 8.32 2.68 9 2 C8.67 1.34 8.34 0.68 8 0 C9.65 0 11.3 0 13 0 C13 1.98 13 3.96 13 6 C13.66 6 14.32 6 15 6 C14.67 4.35 14.34 2.7 14 1 C15.65 0.67 17.3 0.34 19 0 C18.34 0.66 17.68 1.32 17 2 C17 3.65 17 5.3 17 7 C11.72 7 6.44 7 1 7 C0.67 4.69 0.34 2.38 0 0 Z " fill="#C4C3D3" transform="translate(249,114)"/>
<path d="M0 0 C1.32 0 2.64 0 4 0 C4 0.99 4 1.98 4 3 C4.391875 2.505 4.78375 2.01 5.1875 1.5 C7.55091715 -0.45593143 9.01435003 -0.24207973 12 0 C12 2.97 12 5.94 12 9 C11.34 9 10.68 9 10 9 C10 8.34 10 7.68 10 7 C6.7 7 3.4 7 0 7 C0.33 6.34 0.66 5.68 1 5 C1.66 5.33 2.32 5.66 3 6 C3 5.34 3 4.68 3 4 C1.68 3.67 0.36 3.34 -1 3 C-0.67 2.01 -0.34 1.02 0 0 Z " fill="#9696A7" transform="translate(236,114)"/>
<path d="M0 0 C1.98 0 3.96 0 6 0 C6.33 2.31 6.66 4.62 7 7 C7.99 7 8.98 7 10 7 C10 7.99 10 8.98 10 10 C4.39 10 -1.22 10 -7 10 C-7 9.34 -7 8.68 -7 8 C-2.545 7.505 -2.545 7.505 2 7 C2.33 5.35 2.66 3.7 3 2 C2.34 2 1.68 2 1 2 C1 3.65 1 5.3 1 7 C0.67 7 0.34 7 0 7 C0 4.69 0 2.38 0 0 Z " fill="#CD9130" transform="translate(346,79)"/>
<path d="M0 0 C0.78375 0.165 1.5675 0.33 2.375 0.5 C5.09522679 1.23945377 5.09522679 1.23945377 8 0 C8.33 1.65 8.66 3.3 9 5 C9.33 3.35 9.66 1.7 10 0 C10.66 0 11.32 0 12 0 C12.38133299 1.9914056 12.71325582 3.99279077 13 6 C12 7 12 7 9.625 7.0625 C8.75875 7.041875 7.8925 7.02125 7 7 C6.01 7 5.02 7 4 7 C2.32900023 6.68911632 0.66128463 6.35919668 -1 6 C-1.042721 4.33388095 -1.04063832 2.66617115 -1 1 C-0.67 0.67 -0.34 0.34 0 0 Z " fill="#8E8AA0" transform="translate(125,114)"/>
<path d="M0 0 C3.375 -0.1875 3.375 -0.1875 7 0 C7.66 0.99 8.32 1.98 9 3 C8.67 4.32 8.34 5.64 8 7 C4.7 7 1.4 7 -2 7 C-2.33 5.02 -2.66 3.04 -3 1 C-2.01 1.495 -2.01 1.495 -1 2 C-0.67 1.34 -0.34 0.68 0 0 Z " fill="#CF9C46" transform="translate(252,79)"/>
<path d="M0 0 C6.0546875 -0.1953125 6.0546875 -0.1953125 8 0 C8.66 0.66 9.32 1.32 10 2 C8.625 3.5 8.625 3.5 7 5 C6.34 5 5.68 5 5 5 C4.67 7.31 4.34 9.62 4 12 C2 10.5 2 10.5 0 8 C-0.35800135 5.24128373 -0.18660165 2.79902476 0 0 Z " fill="#FCBB43" transform="translate(195,74)"/>
<path d="M0 0 C1.32 0 2.64 0 4 0 C4.33 1.65 4.66 3.3 5 5 C4.34 5 3.68 5 3 5 C3 7.31 3 9.62 3 12 C2.01 12 1.02 12 0 12 C0.33 9.69 0.66 7.38 1 5 C0.01 5 -0.98 5 -2 5 C-2 7.31 -2 9.62 -2 12 C-2.66 12 -3.32 12 -4 12 C-4.33 10.02 -4.66 8.04 -5 6 C-6.65 5.67 -8.3 5.34 -10 5 C-10 4.67 -10 4.34 -10 4 C-5.545 3.505 -5.545 3.505 -1 3 C-0.67 2.01 -0.34 1.02 0 0 Z " fill="#ECB652" transform="translate(172,74)"/>
<path d="M0 0 C0.66 0 1.32 0 2 0 C2.33 3.3 2.66 6.6 3 10 C-0.3 10 -3.6 10 -7 10 C-7.625 7.625 -7.625 7.625 -8 5 C-7.34 4.34 -6.68 3.68 -6 3 C-2.46428571 3.53571429 -2.46428571 3.53571429 -1 5 C-0.67 3.35 -0.34 1.7 0 0 Z " fill="#969799" transform="translate(253,46)"/>
<path d="M0 0 C0.33 0.66 0.66 1.32 1 2 C2.32 2 3.64 2 5 2 C5 4.31 5 6.62 5 9 C4.67 9 4.34 9 4 9 C4 7.35 4 5.7 4 4 C3.34 4 2.68 4 2 4 C2 5.65 2 7.3 2 9 C1.34 9 0.68 9 0 9 C-0.33 9.99 -0.66 10.98 -1 12 C-2.65 12 -4.3 12 -6 12 C-5.01 11.67 -4.02 11.34 -3 11 C-3 10.34 -3 9.68 -3 9 C-3.99 8.67 -4.98 8.34 -6 8 C-5.01 8 -4.02 8 -3 8 C-3 6.68 -3 5.36 -3 4 C-3.99 4 -4.98 4 -6 4 C-6 3.34 -6 2.68 -6 2 C-4.02 2 -2.04 2 0 2 C0 1.34 0 0.68 0 0 Z " fill="#956322" transform="translate(300,77)"/>
<path d="M0 0 C0.99 0 1.98 0 3 0 C3 0.99 3 1.98 3 3 C3.66 2.67 4.32 2.34 5 2 C5 1.34 5 0.68 5 0 C6.65 0.33 8.3 0.66 10 1 C10.33 2.98 10.66 4.96 11 7 C7.04 7 3.08 7 -1 7 C-1 1 -1 1 0 0 Z " fill="#AAACB8" transform="translate(399,114)"/>
<path d="M0 0 C1.67542976 0.28604898 3.34385343 0.61781233 5 1 C5 1.66 5 2.32 5 3 C6.65 3 8.3 3 10 3 C10 3.66 10 4.32 10 5 C9.34 5 8.68 5 8 5 C7.34 6.32 6.68 7.64 6 9 C4.02 8.34 2.04 7.68 0 7 C-0.38133299 5.0085944 -0.71325582 3.00720923 -1 1 C-0.67 0.67 -0.34 0.34 0 0 Z " fill="#211D2B" transform="translate(269,114)"/>
<path d="M0 0 C0.66 0 1.32 0 2 0 C2 1.32 2 2.64 2 4 C2.62648437 3.96519531 3.25296875 3.93039063 3.8984375 3.89453125 C4.71570313 3.86746094 5.53296875 3.84039062 6.375 3.8125 C7.18710938 3.77769531 7.99921875 3.74289063 8.8359375 3.70703125 C9.55007812 3.80371094 10.26421875 3.90039062 11 4 C11.99 5.485 11.99 5.485 13 7 C11.35 7 9.7 7 8 7 C8.33 7.66 8.66 8.32 9 9 C9.99 9 10.98 9 12 9 C12 9.66 12 10.32 12 11 C6.25 11.125 6.25 11.125 4 10 C4 8.35 4 6.7 4 5 C1.5 6 1.5 6 0 10 C0 6.7 0 3.4 0 0 Z " fill="#9A9BA6" transform="translate(185,110)"/>
<path d="M0 0 C3.63 0 7.26 0 11 0 C10.34 0.66 9.68 1.32 9 2 C8.83312552 4.58354218 8.83312552 4.58354218 9 7 C6.03 7 3.06 7 0 7 C0 4.66666667 0 2.33333333 0 0 Z " fill="#C0BED1" transform="translate(143,114)"/>
<path d="M0 0 C1.65 0 3.3 0 5 0 C5.10815225 1.76949095 5.18566083 3.54087487 5.25 5.3125 C5.29640625 6.29863281 5.3428125 7.28476563 5.390625 8.30078125 C5 11 5 11 2.984375 12.85546875 C2.32953125 13.23316406 1.6746875 13.61085938 1 14 C0 13 0 13 -0.09765625 10.05859375 C-0.08605469 8.86363281 -0.07445312 7.66867188 -0.0625 6.4375 C-0.05347656 5.23996094 -0.04445313 4.04242188 -0.03515625 2.80859375 C-0.02355469 1.88175781 -0.01195312 0.95492187 0 0 Z " fill="#FAC049" transform="translate(277,75)"/>
<path d="M0 0 C0.99 0.33 1.98 0.66 3 1 C2.34 1.66 1.68 2.32 1 3 C1.66 3.66 2.32 4.32 3 5 C3 5.99 3 6.98 3 8 C4.65 8.33 6.3 8.66 8 9 C8 9.33 8 9.66 8 10 C6.37536158 10.05395478 4.75021459 10.09277195 3.125 10.125 C2.22007812 10.14820313 1.31515625 10.17140625 0.3828125 10.1953125 C-2 10 -2 10 -4 8 C-3.8125 5 -3.8125 5 -3 2 C-2.01 1.34 -1.02 0.68 0 0 Z " fill="#6E7075" transform="translate(276,46)"/>
<path d="M0 0 C1.32 0 2.64 0 4 0 C4 1.65 4 3.3 4 5 C3.01 5.33 2.02 5.66 1 6 C0.34 5.67 -0.32 5.34 -1 5 C-1 5.66 -1 6.32 -1 7 C-2.65 7 -4.3 7 -6 7 C-5.67 7.66 -5.34 8.32 -5 9 C-4.01 9 -3.02 9 -2 9 C-2 9.66 -2 10.32 -2 11 C-3.65 10.67 -5.3 10.34 -7 10 C-7.33 8.68 -7.66 7.36 -8 6 C-3.25 3 -3.25 3 -1 3 C-0.67 2.01 -0.34 1.02 0 0 Z " fill="#5B536E" transform="translate(466,110)"/>
<path d="M0 0 C3.90432869 0 6.38026598 0.68373308 10 2 C10.33 4.97 10.66 7.94 11 11 C9.35 11 7.7 11 6 11 C6 8.69 6 6.38 6 4 C3.03 3.505 3.03 3.505 0 3 C0 2.01 0 1.02 0 0 Z " fill="#C3983C" transform="translate(299,75)"/>
<path d="M0 0 C2.31 0 4.62 0 7 0 C6.34 3.63 5.68 7.26 5 11 C5.66 11.33 6.32 11.66 7 12 C5.68 12 4.36 12 3 12 C3 11.34 3 10.68 3 10 C2.34 10 1.68 10 1 10 C0.67 6.7 0.34 3.4 0 0 Z " fill="#FCBE44" transform="translate(112,74)"/>
<path d="M0 0 C0 0.66 0 1.32 0 2 C-1.65 2 -3.3 2 -5 2 C-5 3.98 -5 5.96 -5 8 C-3.68 8.33 -2.36 8.66 -1 9 C-1.33 7.35 -1.66 5.7 -2 4 C-1.01 4 -0.02 4 1 4 C0.67 6.31 0.34 8.62 0 11 C-2.31 11 -4.62 11 -7 11 C-8.83832664 7.89782379 -9.47446226 5.60591321 -9 2 C-5.5647952 -0.29013653 -4.014669 -0.17842973 0 0 Z " fill="#757579" transform="translate(243,46)"/>
<path d="M0 0 C2.31 0 4.62 0 7 0 C7 0.33 7 0.66 7 1 C5.35 1 3.7 1 2 1 C2 1.66 2 2.32 2 3 C3.32 3 4.64 3 6 3 C6 3.66 6 4.32 6 5 C5.01 5 4.02 5 3 5 C3 7.31 3 9.62 3 12 C1.02 12 -0.96 12 -3 12 C-2.690625 11.505 -2.38125 11.01 -2.0625 10.5 C-0.58355618 7.02013219 -0.37597149 3.75971491 0 0 Z " fill="#B88326" transform="translate(282,77)"/>
<path d="M0 0 C0.66 0 1.32 0 2 0 C2.33 1.98 2.66 3.96 3 6 C4.2065625 6.185625 4.2065625 6.185625 5.4375 6.375 C6.7059375 6.684375 6.7059375 6.684375 8 7 C8.33 7.66 8.66 8.32 9 9 C6 11 6 11 3 11 C2.67 10.01 2.34 9.02 2 8 C1.46375 7.54625 0.9275 7.0925 0.375 6.625 C-0.07875 6.08875 -0.5325 5.5525 -1 5 C-0.6875 2.3125 -0.6875 2.3125 0 0 Z M12 5 C12.33 5.99 12.66 6.98 13 8 C11.68 7.67 10.36 7.34 9 7 C9.99 6.34 10.98 5.68 12 5 Z " fill="#18152B" transform="translate(266,115)"/>
<path d="M0 0 C0.33 0 0.66 0 1 0 C1 3.96 1 7.92 1 12 C-0.98 12 -2.96 12 -5 12 C-5 7.89342454 -4.69274993 7.00873927 -2.5625 3.75 C-2.11003906 3.04359375 -1.65757812 2.3371875 -1.19140625 1.609375 C-0.60166016 0.81273438 -0.60166016 0.81273438 0 0 Z " fill="#FDB63D" transform="translate(266,78)"/>
<path d="M0 0 C0.99 0.99 1.98 1.98 3 3 C5.60611077 3.72197162 5.60611077 3.72197162 8 4 C7.67 5.65 7.34 7.3 7 9 C4.36 9 1.72 9 -1 9 C-0.67 6.03 -0.34 3.06 0 0 Z " fill="#FAB035" transform="translate(195,82)"/>
<path d="M0 0 C1.32 0.33 2.64 0.66 4 1 C3.67 1.99 3.34 2.98 3 4 C4.65 4 6.3 4 8 4 C8 3.01 8 2.02 8 1 C7.34 0.67 6.68 0.34 6 0 C7.32 0.33 8.64 0.66 10 1 C10 3.97 10 6.94 10 10 C8.68 9.67 7.36 9.34 6 9 C6.66 9 7.32 9 8 9 C8 8.01 8 7.02 8 6 C6.35 6 4.7 6 3 6 C3.33 7.32 3.66 8.64 4 10 C2.68 9.67 1.36 9.34 0 9 C0 6.03 0 3.06 0 0 Z " fill="#656569" transform="translate(158,46)"/>
<path d="M0 0 C2.31 0 4.62 0 7 0 C8.15941038 3.47823115 7.70820884 5.45895578 7 9 C6.01 9 5.02 9 4 9 C3.67 9.66 3.34 10.32 3 11 C2.34 11 1.68 11 1 11 C1.66 8.69 2.32 6.38 3 4 C2.01 3.67 1.02 3.34 0 3 C0 2.01 0 1.02 0 0 Z " fill="#AFADB0" transform="translate(207,45)"/>
<path d="M0 0 C1.32 0 2.64 0 4 0 C4.66 0.99 5.32 1.98 6 3 C6.33 2.01 6.66 1.02 7 0 C8.32 0 9.64 0 11 0 C11 0.66 11 1.32 11 2 C10.505 2.4125 10.01 2.825 9.5 3.25 C7.34152142 5.76822501 7.78625039 7.79375585 8 11 C6.35 11 4.7 11 3 11 C3.0928125 9.329375 3.0928125 9.329375 3.1875 7.625 C3.125625 6.42875 3.06375 5.2325 3 4 C2.01 3.34 1.02 2.68 0 2 C0 1.34 0 0.68 0 0 Z " fill="#9D9BB1" transform="translate(114,110)"/>
<path d="M0 0 C2.94887797 0.50842724 5.37371875 1.59306362 8 3 C7.625 5.4375 7.625 5.4375 7 8 C4.29120665 9.35439668 1.99066732 9.06501451 -1 9 C-1 8.67 -1 8.34 -1 8 C0.65 7.67 2.3 7.34 4 7 C4.33 5.68 4.66 4.36 5 3 C4.01 3 3.02 3 2 3 C2 3.66 2 4.32 2 5 C2.66 5.33 3.32 5.66 4 6 C2.0625 6.5625 2.0625 6.5625 0 7 C-1 6 -1 6 -1.125 3.5 C-1 1 -1 1 0 0 Z " fill="#E2AD57" transform="translate(122,78)"/>
<path d="M0 0 C0.66 0 1.32 0 2 0 C2.33 2.64 2.66 5.28 3 8 C0.03 8 -2.94 8 -6 8 C-6 6.02 -6 4.04 -6 2 C-4.68 1.67 -3.36 1.34 -2 1 C-2 1.99 -2 2.98 -2 4 C-1.34 4.33 -0.68 4.66 0 5 C0 3.35 0 1.7 0 0 Z " fill="#9A651F" transform="translate(159,78)"/>
<path d="M0 0 C6.15234375 -0.09765625 6.15234375 -0.09765625 8 0 C9 1 9 1 9.0625 4.0625 C9.041875 5.031875 9.02125 6.00125 9 7 C7.35 7 5.7 7 4 7 C4 5.35 4 3.7 4 2 C1.48916886 3.25541557 1.12874554 4.50063488 0 7 C0 4.69 0 2.38 0 0 Z " fill="#875C18" transform="translate(321,79)"/>
<path d="M0 0 C0.99 0 1.98 0 3 0 C3.33 1.32 3.66 2.64 4 4 C4.66 3.34 5.32 2.68 6 2 C5.67 1.34 5.34 0.68 5 0 C6.65 0.33 8.3 0.66 10 1 C10.33 2.98 10.66 4.96 11 7 C8.03 7 5.06 7 2 7 C1.34 4.69 0.68 2.38 0 0 Z " fill="#9DA2AE" transform="translate(379,114)"/>
<path d="M0 0 C1.4540625 0.0309375 1.4540625 0.0309375 2.9375 0.0625 C3.2675 2.3725 3.5975 4.6825 3.9375 7.0625 C1.2975 7.0625 -1.3425 7.0625 -4.0625 7.0625 C-4.10504356 5.06295254 -4.10330783 3.06208364 -4.0625 1.0625 C-3.0625 0.0625 -3.0625 0.0625 0 0 Z " fill="#7C7A89" transform="translate(364.0625,113.9375)"/>
<path d="M0 0 C0.99 0 1.98 0 3 0 C3 0.66 3 1.32 3 2 C2.34 2 1.68 2 1 2 C1.33 2.99 1.66 3.98 2 5 C3.32 4.34 4.64 3.68 6 3 C6 2.01 6 1.02 6 0 C7.32 0 8.64 0 10 0 C10 2.31 10 4.62 10 7 C9.67 6.01 9.34 5.02 9 4 C8.34 4 7.68 4 7 4 C7.33 4.99 7.66 5.98 8 7 C1.84765625 7.09765625 1.84765625 7.09765625 0 7 C-1 6 -1 6 -1.125 3.5 C-1 1 -1 1 0 0 Z " fill="#7F4E0D" transform="translate(237,79)"/>
<path d="M0 0 C0.66 0 1.32 0 2 0 C2 3.3 2 6.6 2 10 C0.35 10 -1.3 10 -3 10 C-4.125 5.25 -4.125 5.25 -3 3 C-2.01 3 -1.02 3 0 3 C0 2.01 0 1.02 0 0 Z " fill="#8C8F95" transform="translate(261,46)"/>
<path d="M0 0 C1.65 0 3.3 0 5 0 C5 0.66 5 1.32 5 2 C5.99 2 6.98 2 8 2 C8.33 3.98 8.66 5.96 9 8 C11.97 8.495 11.97 8.495 15 9 C15 9.33 15 9.66 15 10 C8.9453125 10.1953125 8.9453125 10.1953125 7 10 C6.34 9.34 5.68 8.68 5 8 C4.67 8.66 4.34 9.32 4 10 C2.68 9.67 1.36 9.34 0 9 C0.99 8.34 1.98 7.68 3 7 C2.42547254 3.06924356 2.42547254 3.06924356 0 0 Z " fill="#626165" transform="translate(110,46)"/>
<path d="M0 0 C1.32 0 2.64 0 4 0 C4.33 1.32 4.66 2.64 5 4 C5.33 2.68 5.66 1.36 6 0 C7.32 0 8.64 0 10 0 C10 0.66 10 1.32 10 2 C9.34 2 8.68 2 8 2 C7.67 4.97 7.34 7.94 7 11 C5.35 11 3.7 11 2 11 C2.66 10.67 3.32 10.34 4 10 C3.525625 8.906875 3.05125 7.81375 2.5625 6.6875 C1.59812191 4.46523745 0.76833172 2.30499515 0 0 Z " fill="#B1B2C6" transform="translate(282,110)"/>
<path d="M0 0 C0 0.66 0 1.32 0 2 C-1.32 2 -2.64 2 -4 2 C-3.67 2.66 -3.34 3.32 -3 4 C-2.01 4 -1.02 4 0 4 C0 4.66 0 5.32 0 6 C-3.3 5.67 -6.6 5.34 -10 5 C-10.33 4.01 -10.66 3.02 -11 2 C-9.68 2 -8.36 2 -7 2 C-7 1.34 -7 0.68 -7 0 C-3.86650268 -1.04449911 -3.01031744 -0.93423645 0 0 Z " fill="#7D808F" transform="translate(328,115)"/>
<path d="M0 0 C2.4375 0.8125 2.4375 0.8125 5 2 C5.33 2.99 5.66 3.98 6 5 C5.67 5.66 5.34 6.32 5 7 C4.34 7 3.68 7 3 7 C3 7.66 3 8.32 3 9 C2.01 9 1.02 9 0 9 C-0.66 6.69 -1.32 4.38 -2 2 C-1.34 2 -0.68 2 0 2 C0 1.34 0 0.68 0 0 Z " fill="#271B2E" transform="translate(391,112)"/>
<path d="M0 0 C0.66 0 1.32 0 2 0 C2 1.98 2 3.96 2 6 C2.66 6 3.32 6 4 6 C3.67 4.35 3.34 2.7 3 1 C4.32 1.33 5.64 1.66 7 2 C6.67 3.32 6.34 4.64 6 6 C6.66 6 7.32 6 8 6 C8 5.01 8 4.02 8 3 C8.66 3 9.32 3 10 3 C10.33 4.32 10.66 5.64 11 7 C7.37 7 3.74 7 0 7 C-0.38133299 5.0085944 -0.71325582 3.00720923 -1 1 C-0.67 0.67 -0.34 0.34 0 0 Z " fill="#BFBFD4" transform="translate(165,114)"/>
<path d="M0 0 C1.98 0 3.96 0 6 0 C6 0.99 6 1.98 6 3 C4.35 2.67 2.7 2.34 1 2 C1 2.66 1 3.32 1 4 C3.475 4.99 3.475 4.99 6 6 C5.67 7.65 5.34 9.3 5 11 C3.68 10.67 2.36 10.34 1 10 C1.99 10 2.98 10 4 10 C4 9.01 4 8.02 4 7 C1.525 6.01 1.525 6.01 -1 5 C-0.67 3.35 -0.34 1.7 0 0 Z " fill="#A6A7B7" transform="translate(435,110)"/>
<path d="M0 0 C0.66 0 1.32 0 2 0 C2 1.32 2 2.64 2 4 C2.99 4 3.98 4 5 4 C5.33 5.98 5.66 7.96 6 10 C2.7 10 -0.6 10 -4 10 C-4.33 7.69 -4.66 5.38 -5 3 C-4.01 2.67 -3.02 2.34 -2 2 C-0.95550089 5.13349732 -1.06576355 5.98968256 -2 9 C-0.02 9 1.96 9 4 9 C4 7.68 4 6.36 4 5 C3.01 5.33 2.02 5.66 1 6 C0.67 4.02 0.34 2.04 0 0 Z " fill="#5E5D65" transform="translate(191,46)"/>
<path d="M0 0 C1.32 0 2.64 0 4 0 C4 0.66 4 1.32 4 2 C3.67 2.33 3.34 2.66 3 3 C3.66 3.33 4.32 3.66 5 4 C5.33 2.68 5.66 1.36 6 0 C6.33 0 6.66 0 7 0 C7.33 2.31 7.66 4.62 8 7 C5.03 7 2.06 7 -1 7 C-1 6.34 -1 5.68 -1 5 C-0.01 5 0.98 5 2 5 C1.01 4.34 0.02 3.68 -1 3 C-0.67 2.01 -0.34 1.02 0 0 Z " fill="#ABA9BF" transform="translate(344,114)"/>
<path d="M0 0 C0.99 0 1.98 0 3 0 C3.33 0.99 3.66 1.98 4 3 C6.97 3.495 6.97 3.495 10 4 C10 4.99 10 5.98 10 7 C9.34 7 8.68 7 8 7 C8 7.99 8 8.98 8 10 C7.34 10 6.68 10 6 10 C6 8.68 6 7.36 6 6 C5.34 6 4.68 6 4 6 C4 7.32 4 8.64 4 10 C3.34 10 2.68 10 2 10 C2 7.69 2 5.38 2 3 C1.34 3 0.68 3 0 3 C0 2.01 0 1.02 0 0 Z " fill="#2A2944" transform="translate(165,110)"/>
<path d="M0 0 C1.67542976 0.28604898 3.34385343 0.61781233 5 1 C5.625 2.875 5.625 2.875 6 5 C5.34 5.66 4.68 6.32 4 7 C2.68 7 1.36 7 0 7 C-0.38133299 5.0085944 -0.71325582 3.00720923 -1 1 C-0.67 0.67 -0.34 0.34 0 0 Z " fill="#8E899A" transform="translate(207,114)"/>
<path d="M0 0 C3.96 0 7.92 0 12 0 C12 0.99 12 1.98 12 3 C11.34 3 10.68 3 10 3 C9.67 3.66 9.34 4.32 9 5 C8.34 5 7.68 5 7 5 C6.67 3.68 6.34 2.36 6 1 C5.01 1.33 4.02 1.66 3 2 C1.78130071 4.50447516 1.78130071 4.50447516 1 7 C0.67 7 0.34 7 0 7 C0 4.69 0 2.38 0 0 Z " fill="#EEBA52" transform="translate(224,78)"/>
<path d="M0 0 C0.66 0.33 1.32 0.66 2 1 C2 6.94 2 12.88 2 19 C1.01 19 0.02 19 -1 19 C-0.67 12.73 -0.34 6.46 0 0 Z " fill="#3B2308" transform="translate(358,72)"/>
<path d="M0 0 C0.66 0 1.32 0 2 0 C2.33 5.94 2.66 11.88 3 18 C2.01 17.67 1.02 17.34 0 17 C0 11.39 0 5.78 0 0 Z " fill="#2F1906" transform="translate(273,74)"/>
<path d="M0 0 C1.65 0 3.3 0 5 0 C5 2.97 5 5.94 5 9 C3.68 9.33 2.36 9.66 1 10 C0.67 6.7 0.34 3.4 0 0 Z " fill="#F9BC46" transform="translate(351,77)"/>
<path d="M0 0 C0.66 0 1.32 0 2 0 C2 0.66 2 1.32 2 2 C2.99 2.33 3.98 2.66 5 3 C2 5 2 5 -0.1875 4.625 C-0.785625 4.41875 -1.38375 4.2125 -2 4 C-2 4.66 -2 5.32 -2 6 C-1.34 6 -0.68 6 0 6 C0 6.66 0 7.32 0 8 C-1.32 7.67 -2.64 7.34 -4 7 C-4.33 5.68 -4.66 4.36 -5 3 C-4.360625 2.690625 -3.72125 2.38125 -3.0625 2.0625 C-1.06389179 1.1654837 -1.06389179 1.1654837 0 0 Z " fill="#E2B059" transform="translate(208,77)"/>
<path d="M0 0 C0.66 1.65 1.32 3.3 2 5 C2.66 5 3.32 5 4 5 C4 6.32 4 7.64 4 9 C2.02 9 0.04 9 -2 9 C-2 7.02 -2 5.04 -2 3 C-2.66 3 -3.32 3 -4 3 C-4 2.34 -4 1.68 -4 1 C-2 0 -2 0 0 0 Z " fill="#E4E7E9" transform="translate(191,46)"/>
<path d="M0 0 C1.32 0.33 2.64 0.66 4 1 C4 1.66 4 2.32 4 3 C3.67 3.33 3.34 3.66 3 4 C3 4.99 3 5.98 3 7 C2.01 7 1.02 7 0 7 C0 7.99 0 8.98 0 10 C-1.32 10.33 -2.64 10.66 -4 11 C-3.125 6.25 -3.125 6.25 -2 4 C-1.34 4 -0.68 4 0 4 C0 2.68 0 1.36 0 0 Z " fill="#17172F" transform="translate(235,117)"/>
<path d="M0 0 C1.32 0 2.64 0 4 0 C4.33 0.99 4.66 1.98 5 3 C5.33 2.01 5.66 1.02 6 0 C6.66 0 7.32 0 8 0 C8 1.98 8 3.96 8 6 C5.36 6 2.72 6 0 6 C0 4 0 2 0 0 Z " fill="#2F324C" transform="translate(368,115)"/>
<path d="M0 0 C0.99 0 1.98 0 3 0 C2.98839844 0.69867188 2.97679687 1.39734375 2.96484375 2.1171875 C2.95582031 3.02726562 2.94679687 3.93734375 2.9375 4.875 C2.92589844 5.77992187 2.91429687 6.68484375 2.90234375 7.6171875 C2.83750743 10.0168585 2.83750743 10.0168585 4 12 C2.02 12 0.04 12 -2 12 C-1.34 8.04 -0.68 4.08 0 0 Z " fill="#CD8A2E" transform="translate(170,79)"/>
<path d="M0 0 C1.98 0.66 3.96 1.32 6 2 C3.79020692 4.81939117 1.59937954 7.53058944 -1 10 C-2.85776765 6.86501708 -3.20140476 4.62528568 -3 1 C-2.34 2.32 -1.68 3.64 -1 5 C-0.67 3.35 -0.34 1.7 0 0 Z " fill="#26233A" transform="translate(140,113)"/>
<path d="M0 0 C0.33 0 0.66 0 1 0 C1 2.97 1 5.94 1 9 C-0.65 8.67 -2.3 8.34 -4 8 C-4 6.35 -4 4.7 -4 3 C-2.68 2.67 -1.36 2.34 0 2 C0 1.34 0 0.68 0 0 Z " fill="#986627" transform="translate(318,77)"/>
<path d="M0 0 C1.98 0.495 1.98 0.495 4 1 C4.33 2.65 4.66 4.3 5 6 C3.35 6.33 1.7 6.66 0 7 C-1.125 2.25 -1.125 2.25 0 0 Z " fill="#A67426" transform="translate(130,79)"/>
<path d="M0 0 C-0.99 0.495 -0.99 0.495 -2 1 C-2 2.65 -2 4.3 -2 6 C-2.639375 6.103125 -3.27875 6.20625 -3.9375 6.3125 C-4.618125 6.539375 -5.29875 6.76625 -6 7 C-6.33 7.99 -6.66 8.98 -7 10 C-7 8.68 -7 7.36 -7 6 C-6.01 6 -5.02 6 -4 6 C-4 5.34 -4 4.68 -4 4 C-5.32 4 -6.64 4 -8 4 C-8.33 2.68 -8.66 1.36 -9 0 C-3.375 -1.125 -3.375 -1.125 0 0 Z " fill="#E3B553" transform="translate(292,76)"/>
<path d="M0 0 C0.66 0 1.32 0 2 0 C2.33 1.65 2.66 3.3 3 5 C3.33 3.35 3.66 1.7 4 0 C4.66 0 5.32 0 6 0 C6.38133299 1.9914056 6.71325582 3.99279077 7 6 C6 7 6 7 3.5625 7.1875 C1 7 1 7 -1 5 C-0.625 2.375 -0.625 2.375 0 0 Z " fill="#ACA5B7" transform="translate(131,114)"/>
<path d="M0 0 C0.99 0 1.98 0 3 0 C3 0.99 3 1.98 3 3 C3.66 3 4.32 3 5 3 C5 2.01 5 1.02 5 0 C5.66 0.33 6.32 0.66 7 1 C6.60348083 2.31872662 6.18201309 3.62997101 5.75 4.9375 C5.40195312 6.03384766 5.40195312 6.03384766 5.046875 7.15234375 C4 9 4 9 1.890625 9.75390625 C0.95476562 9.87572266 0.95476562 9.87572266 0 10 C0 9.34 0 8.68 0 8 C0.66 8 1.32 8 2 8 C1.34 5.36 0.68 2.72 0 0 Z " fill="#9292A3" transform="translate(410,114)"/>
<path d="M0 0 C1.4540625 0.0309375 1.4540625 0.0309375 2.9375 0.0625 C2.586875 0.84625 2.23625 1.63 1.875 2.4375 C1.565625 3.30375 1.25625 4.17 0.9375 5.0625 C1.2675 5.7225 1.5975 6.3825 1.9375 7.0625 C0.2875 7.0625 -1.3625 7.0625 -3.0625 7.0625 C-3.44383299 5.0710944 -3.77575582 3.06970923 -4.0625 1.0625 C-3.0625 0.0625 -3.0625 0.0625 0 0 Z " fill="#A5A6BA" transform="translate(357.0625,113.9375)"/>
<path d="M0 0 C1.98 0.495 1.98 0.495 4 1 C4.33 2.65 4.66 4.3 5 6 C3.35 6.33 1.7 6.66 0 7 C-1.125 2.25 -1.125 2.25 0 0 Z " fill="#966923" transform="translate(175,79)"/>
<path d="M0 0 C0.99 0 1.98 0 3 0 C3.33 1.98 3.66 3.96 4 6 C2.35 6.33 0.7 6.66 -1 7 C-1.625 5.1875 -1.625 5.1875 -2 3 C-1.34 2.01 -0.68 1.02 0 0 Z " fill="#9E7224" transform="translate(227,79)"/>
<path d="M0 0 C0.99 0.66 1.98 1.32 3 2 C2.67 2.66 2.34 3.32 2 4 C1.95977609 6.3329866 1.95679753 8.66706666 2 11 C1.01 11 0.02 11 -1 11 C-1 9.35 -1 7.7 -1 6 C-2.32 5.67 -3.64 5.34 -5 5 C-4.01 5 -3.02 5 -2 5 C-1.34 3.35 -0.68 1.7 0 0 Z " fill="#DCDFE3" transform="translate(182,44)"/>
<path d="M0 0 C0.99 0 1.98 0 3 0 C3.33 1.65 3.66 3.3 4 5 C4 3.35 4 1.7 4 0 C4.99 0 5.98 0 7 0 C7 2.31 7 4.62 7 7 C5.02 7 3.04 7 1 7 C0.67 4.69 0.34 2.38 0 0 Z " fill="#B8B8BE" transform="translate(298,114)"/>
<path d="M0 0 C1.65 0 3.3 0 5 0 C5.33 2.31 5.66 4.62 6 7 C4.02 7 2.04 7 0 7 C0 4.66666667 0 2.33333333 0 0 Z " fill="#B1B0BD" transform="translate(333,114)"/>
<path d="M0 0 C1.9375 0.3125 1.9375 0.3125 4 1 C5.04449911 4.13349732 4.93423645 4.98968256 4 8 C2.68 7.67 1.36 7.34 0 7 C0 4.69 0 2.38 0 0 Z " fill="#F0BB50" transform="translate(309,78)"/>
<path d="M0 0 C2.875 -0.125 2.875 -0.125 6 0 C6.66 0.66 7.32 1.32 8 2 C6.875 3.5625 6.875 3.5625 5 5 C1.8125 4.6875 1.8125 4.6875 -1 4 C-0.67 2.68 -0.34 1.36 0 0 Z " fill="#FCC44C" transform="translate(197,74)"/>
<path d="M0 0 C0.99 0 1.98 0 3 0 C3 2.64 3 5.28 3 8 C1.68 7.67 0.36 7.34 -1 7 C-1.625 5.1875 -1.625 5.1875 -2 3 C-1.34 2.01 -0.68 1.02 0 0 Z " fill="#F0F1F0" transform="translate(119,47)"/>
<path d="M0 0 C0.99 0.33 1.98 0.66 3 1 C3.33 3.31 3.66 5.62 4 8 C2.35 7.67 0.7 7.34 -1 7 C-1.04254356 5.00045254 -1.04080783 2.99958364 -1 1 C-0.67 0.67 -0.34 0.34 0 0 Z " fill="#EFF1F6" transform="translate(238,47)"/>
<path d="M0 0 C1.65 0.33 3.3 0.66 5 1 C5.042721 2.66611905 5.04063832 4.33382885 5 6 C4 7 4 7 2.15234375 7.09765625 C0.1015625 7.06510417 -1.94921875 7.03255208 -4 7 C-3.01 6.34 -2.02 5.68 -1 5 C-0.27034634 2.43717258 -0.27034634 2.43717258 0 0 Z " fill="#D9A75C" transform="translate(344,80)"/>
<path d="M0 0 C1.98 0.495 1.98 0.495 4 1 C4 2.98 4 4.96 4 7 C2.35 6.67 0.7 6.34 -1 6 C-0.67 4.02 -0.34 2.04 0 0 Z " fill="#A26C28" transform="translate(164,79)"/>
<path d="M0 0 C0.99 1.485 0.99 1.485 2 3 C2.66 3.66 3.32 4.32 4 5 C4.125 8.625 4.125 8.625 4 12 C2.68 12 1.36 12 0 12 C0 8.04 0 4.08 0 0 Z " fill="#D39D3D" transform="translate(319,77)"/>
<path d="M0 0 C1.98 0 3.96 0 6 0 C6 2.31 6 4.62 6 7 C4.35 7 2.7 7 1 7 C1.020625 6.21625 1.04125 5.4325 1.0625 4.625 C1.18684063 2.01885039 1.18684063 2.01885039 0 0 Z " fill="#EDBB4F" transform="translate(133,79)"/>
<path d="M0 0 C1.32 0 2.64 0 4 0 C4 0.99 4 1.98 4 3 C4.66 2.67 5.32 2.34 6 2 C6 3.32 6 4.64 6 6 C4.02 6.33 2.04 6.66 0 7 C0.33 6.34 0.66 5.68 1 5 C1.66 5.33 2.32 5.66 3 6 C3 5.34 3 4.68 3 4 C1.68 3.67 0.36 3.34 -1 3 C-0.67 2.01 -0.34 1.02 0 0 Z " fill="#A4A4B7" transform="translate(236,114)"/>
<path d="M0 0 C2.97 0.495 2.97 0.495 6 1 C6 1.66 6 2.32 6 3 C6.66 3.33 7.32 3.66 8 4 C7.67 5.32 7.34 6.64 7 8 C6.34 7.67 5.68 7.34 5 7 C5 6.01 5 5.02 5 4 C3.35 3.67 1.7 3.34 0 3 C0 2.01 0 1.02 0 0 Z " fill="#16142D" transform="translate(113,106)"/>
<path d="M0 0 C1.98 0.495 1.98 0.495 4 1 C3.67 2.98 3.34 4.96 3 7 C3.66 7.33 4.32 7.66 5 8 C5 8.66 5 9.32 5 10 C3.02 10 1.04 10 -1 10 C-0.01 7.36 0.98 4.72 2 2 C1.34 2 0.68 2 0 2 C0 1.34 0 0.68 0 0 Z " fill="#45434B" transform="translate(139,46)"/>
<path d="M0 0 C1.67542976 0.28604898 3.34385343 0.61781233 5 1 C5 1.66 5 2.32 5 3 C3.68 3 2.36 3 1 3 C1.33 3.66 1.66 4.32 2 5 C2.99 5 3.98 5 5 5 C5 5.66 5 6.32 5 7 C3.35 7 1.7 7 0 7 C-0.38133299 5.0085944 -0.71325582 3.00720923 -1 1 C-0.67 0.67 -0.34 0.34 0 0 Z " fill="#B3B1BC" transform="translate(269,114)"/>
<path d="M0 0 C2.375 -0.125 2.375 -0.125 5 0 C7 2 7 2 7 6 C5 6 3 6 1 6 C1.33 4.68 1.66 3.36 2 2 C1.34 2 0.68 2 0 2 C0 1.34 0 0.68 0 0 Z " fill="#908D9C" transform="translate(143,114)"/>
<path d="M0 0 C0.33 0.66 0.66 1.32 1 2 C2.32 1.67 3.64 1.34 5 1 C5.66 1.99 6.32 2.98 7 4 C5.02 4.33 3.04 4.66 1 5 C0.67 7.31 0.34 9.62 0 12 C-0.33 12 -0.66 12 -1 12 C-1.02698189 10.37509046 -1.04638757 8.75005367 -1.0625 7.125 C-1.07410156 6.22007813 -1.08570313 5.31515625 -1.09765625 4.3828125 C-1 2 -1 2 0 0 Z " fill="#EFBE59" transform="translate(293,75)"/>
<path d="M0 0 C1.65 0 3.3 0 5 0 C5 0.99 5 1.98 5 3 C5.99 3 6.98 3 8 3 C8 3.66 8 4.32 8 5 C4.7 5 1.4 5 -2 5 C-1.34 4.34 -0.68 3.68 0 3 C0 2.01 0 1.02 0 0 Z " fill="#E4E6E8" transform="translate(161,52)"/>
<path d="M0 0 C0.99 0.33 1.98 0.66 3 1 C2.67 2.32 2.34 3.64 2 5 C2.99 5.33 3.98 5.66 5 6 C3.75 7.5625 3.75 7.5625 2 9 C-0.1875 8.6875 -0.1875 8.6875 -2 8 C-1.67 7.01 -1.34 6.02 -1 5 C-0.65179959 3.33637583 -0.31595508 1.67004829 0 0 Z " fill="#1C203A" transform="translate(308,113)"/>
<path d="M0 0 C0.66 0 1.32 0 2 0 C2.6875 1.8125 2.6875 1.8125 3 4 C1.5625 5.75 1.5625 5.75 0 7 C-0.66 6.34 -1.32 5.68 -2 5 C-2.99 4.67 -3.98 4.34 -5 4 C-5 3.34 -5 2.68 -5 2 C-3.35 2 -1.7 2 0 2 C0 1.34 0 0.68 0 0 Z " fill="#1A1426" transform="translate(465,115)"/>
<path d="M0 0 C0.99 0 1.98 0 3 0 C3 2.31 3 4.62 3 7 C1.35 7.33 -0.3 7.66 -2 8 C-1.125 1.125 -1.125 1.125 0 0 Z " fill="#171432" transform="translate(177,112)"/>
<path d="M0 0 C0.99 0.33 1.98 0.66 3 1 C3 1.66 3 2.32 3 3 C3.99 3.33 4.98 3.66 6 4 C5.01 4.33 4.02 4.66 3 5 C2.67 5.99 2.34 6.98 2 8 C2.66 8 3.32 8 4 8 C4 8.66 4 9.32 4 10 C2.68 10 1.36 10 0 10 C0 6.7 0 3.4 0 0 Z " fill="#1F1B36" transform="translate(470,111)"/>
<path d="M0 0 C0.99 0.33 1.98 0.66 3 1 C3 2.98 3 4.96 3 7 C3.99 7.33 4.98 7.66 6 8 C6 8.66 6 9.32 6 10 C3.83125748 9.49396008 2.00032373 9.00016187 0 8 C-0.6875 4.5 -0.6875 4.5 -1 1 C-0.67 0.67 -0.34 0.34 0 0 Z " fill="#DBAA59" transform="translate(330,78)"/>
<path d="M0 0 C1.32 0.33 2.64 0.66 4 1 C4 3.31 4 5.62 4 8 C2.68 8.33 1.36 8.66 0 9 C0 6.03 0 3.06 0 0 Z " fill="#BC8E42" transform="translate(293,80)"/>
<path d="M0 0 C0.33 0.66 0.66 1.32 1 2 C2.32 2 3.64 2 5 2 C5 4.31 5 6.62 5 9 C4.67 9 4.34 9 4 9 C4 7.35 4 5.7 4 4 C3.34 4 2.68 4 2 4 C2 5.65 2 7.3 2 9 C1.34 9 0.68 9 0 9 C0 6.03 0 3.06 0 0 Z " fill="#875315" transform="translate(300,77)"/>
<path d="M0 0 C0.99 0 1.98 0 3 0 C3.33 1.32 3.66 2.64 4 4 C2.68 4 1.36 4 0 4 C0 4.66 0 5.32 0 6 C0.99 6.33 1.98 6.66 3 7 C1.35 6.67 -0.3 6.34 -2 6 C-1.125 1.125 -1.125 1.125 0 0 Z " fill="#7D7E83" transform="translate(171,49)"/>
<path d="M0 0 C2.125 0.375 2.125 0.375 4 1 C4 1.66 4 2.32 4 3 C2.68 3 1.36 3 0 3 C0.33 3.66 0.66 4.32 1 5 C1.99 5 2.98 5 4 5 C4 5.66 4 6.32 4 7 C2.35 7 0.7 7 -1 7 C-1.625 4.625 -1.625 4.625 -2 2 C-1.34 1.34 -0.68 0.68 0 0 Z " fill="#B7B8C5" transform="translate(156,114)"/>
<path d="M0 0 C2.125 0.375 2.125 0.375 4 1 C4 1.66 4 2.32 4 3 C2.68 3 1.36 3 0 3 C0.33 3.66 0.66 4.32 1 5 C1.99 5 2.98 5 4 5 C4 5.66 4 6.32 4 7 C2.35 6.67 0.7 6.34 -1 6 C-1.625 4.125 -1.625 4.125 -2 2 C-1.34 1.34 -0.68 0.68 0 0 Z " fill="#B6B7C3" transform="translate(460,114)"/>
<path d="M0 0 C1.32 0 2.64 0 4 0 C4 4 4 4 3 7 C1.68 7 0.36 7 -1 7 C-0.67 6.34 -0.34 5.68 0 5 C-0.32380126 3.66431979 -0.65657551 2.33076989 -1 1 C-0.67 0.67 -0.34 0.34 0 0 Z " fill="#B6B5C4" transform="translate(419,114)"/>
<path d="M0 0 C0.66 0.66 1.32 1.32 2 2 C1.625 4.125 1.625 4.125 1 6 C-0.65 5.67 -2.3 5.34 -4 5 C-3.67 3.68 -3.34 2.36 -3 1 C-2.01 1.33 -1.02 1.66 0 2 C0 1.34 0 0.68 0 0 Z " fill="#8C5C1F" transform="translate(259,80)"/>
<path d="M0 0 C0.33 1.32 0.66 2.64 1 4 C1.99 4 2.98 4 4 4 C4.33 2.68 4.66 1.36 5 0 C6.32 1.65 7.64 3.3 9 5 C7.68 4.67 6.36 4.34 5 4 C4.67 4.99 4.34 5.98 4 7 C2.68 6.34 1.36 5.68 0 5 C0 3.35 0 1.7 0 0 Z " fill="#222039" transform="translate(338,115)"/>
<path d="M0 0 C0.66 0 1.32 0 2 0 C2 1.32 2 2.64 2 4 C2.99 4 3.98 4 5 4 C5 5.98 5 7.96 5 10 C4.67 10 4.34 10 4 10 C4 8.35 4 6.7 4 5 C1.5 6 1.5 6 0 10 C0 6.7 0 3.4 0 0 Z " fill="#C7CBD0" transform="translate(185,110)"/>
<path d="M0 0 C0 1.32 0 2.64 0 4 C-1.98 4 -3.96 4 -6 4 C-6.33 3.01 -6.66 2.02 -7 1 C-4 0 -4 0 0 0 Z " fill="#FCAF32" transform="translate(267,86)"/>
<path d="M0 0 C0.99 0 1.98 0 3 0 C3 0.66 3 1.32 3 2 C3.99 2.33 4.98 2.66 6 3 C3.36 3.99 0.72 4.98 -2 6 C-2 4.68 -2 3.36 -2 2 C-1.34 2 -0.68 2 0 2 C0 1.34 0 0.68 0 0 Z " fill="#DEAC57" transform="translate(240,79)"/>
<path d="M0 0 C0.66 0.33 1.32 0.66 2 1 C1.835 1.5775 1.67 2.155 1.5 2.75 C0.85537969 5.26664369 0.85537969 5.26664369 1 9 C-0.32 8.34 -1.64 7.68 -3 7 C-2.67 6.67 -2.34 6.34 -2 6 C-1.95936168 4.33382885 -1.957279 2.66611905 -2 1 C-1.34 0.67 -0.68 0.34 0 0 Z " fill="#272538" transform="translate(458,114)"/>
<path d="M0 0 C0.66 0.33 1.32 0.66 2 1 C2 3.64 2 6.28 2 9 C0.68 8.67 -0.64 8.34 -2 8 C-1.125 2.25 -1.125 2.25 0 0 Z " fill="#1F1D2F" transform="translate(290,112)"/>
<path d="M0 0 C2.64 0 5.28 0 8 0 C8 1.98 8 3.96 8 6 C7.67 4.68 7.34 3.36 7 2 C6.01 2 5.02 2 4 2 C3.67 3.32 3.34 4.64 3 6 C3 4.68 3 3.36 3 2 C2.01 1.67 1.02 1.34 0 1 C0 0.67 0 0.34 0 0 Z " fill="#C7CAD5" transform="translate(222,114)"/>
<path d="M0 0 C1.2065625 0.0309375 1.2065625 0.0309375 2.4375 0.0625 C2.7675 0.7225 3.0975 1.3825 3.4375 2.0625 C1.7875 2.3925 0.1375 2.7225 -1.5625 3.0625 C-1.28632467 5.00324861 -1.28632467 5.00324861 -0.5625 7.0625 C0.4275 7.7225 1.4175 8.3825 2.4375 9.0625 C-2.4375 8.1875 -2.4375 8.1875 -3.5625 7.0625 C-3.6875 4.0625 -3.6875 4.0625 -3.5625 1.0625 C-2.5625 0.0625 -2.5625 0.0625 0 0 Z " fill="#85510B" transform="translate(205.5625,76.9375)"/>
<path d="M0 0 C2.97 0 5.94 0 9 0 C8.67 0.99 8.34 1.98 8 3 C2.25 3.125 2.25 3.125 0 2 C0 1.34 0 0.68 0 0 Z " fill="#FEC644" transform="translate(163,74)"/>
<path d="M0 0 C1.32 0.33 2.64 0.66 4 1 C4.33 3.31 4.66 5.62 5 8 C4.01 8.495 4.01 8.495 3 9 C3 8.01 3 7.02 3 6 C2.34 6 1.68 6 1 6 C1.33 4.68 1.66 3.36 2 2 C1.34 2 0.68 2 0 2 C0 1.34 0 0.68 0 0 Z " fill="#48474E" transform="translate(281,46)"/>
<path d="M0 0 C0.99 0.33 1.98 0.66 3 1 C2.67 2.65 2.34 4.3 2 6 C2.99 6.33 3.98 6.66 5 7 C3.35 7.33 1.7 7.66 0 8 C-0.38063221 5.6739143 -0.71269945 3.33944736 -1 1 C-0.67 0.67 -0.34 0.34 0 0 Z " fill="#A6AABE" transform="translate(442,113)"/>
<path d="M0 0 C1.32 0 2.64 0 4 0 C4 0.99 4 1.98 4 3 C2.68 3 1.36 3 0 3 C0.95865509 5.33075929 0.95865509 5.33075929 4 7 C2.35 6.67 0.7 6.34 -1 6 C-1.042721 4.33388095 -1.04063832 2.66617115 -1 1 C-0.67 0.67 -0.34 0.34 0 0 Z " fill="#BEC0CE" transform="translate(317,114)"/>
<path d="M0 0 C0.66 0.99 1.32 1.98 2 3 C1.125 6.1875 1.125 6.1875 0 9 C-0.66 8.67 -1.32 8.34 -2 8 C-1.125 1.125 -1.125 1.125 0 0 Z " fill="#252438" transform="translate(123,112)"/>
<path d="M0 0 C0.33 0 0.66 0 1 0 C1 2.64 1 5.28 1 8 C0.01 8 -0.98 8 -2 8 C-2.125 5.125 -2.125 5.125 -2 2 C-1.34 1.34 -0.68 0.68 0 0 Z " fill="#FBB736" transform="translate(279,80)"/>
<path d="M0 0 C0.99 0 1.98 0 3 0 C3 0.66 3 1.32 3 2 C2.34 2 1.68 2 1 2 C1.33 2.99 1.66 3.98 2 5 C2.99 5.33 3.98 5.66 5 6 C3.34385343 6.38218767 1.67542976 6.71395102 0 7 C-1 6 -1 6 -1.125 3.5 C-1 1 -1 1 0 0 Z " fill="#A06C1A" transform="translate(237,79)"/>
<path d="M0 0 C0 0.66 0 1.32 0 2 C-0.66 2.66 -1.32 3.32 -2 4 C-1.01 5.485 -1.01 5.485 0 7 C-1.32 7.33 -2.64 7.66 -4 8 C-4.33 5.69 -4.66 3.38 -5 1 C-2 0 -2 0 0 0 Z " fill="#C6C5CA" transform="translate(201,49)"/>
<path d="M0 0 C0.66 0 1.32 0 2 0 C2 1.65 2 3.3 2 5 C2.66 5.33 3.32 5.66 4 6 C1.69 6 -0.62 6 -3 6 C-2.34 5.67 -1.68 5.34 -1 5 C-0.34444881 2.47266765 -0.34444881 2.47266765 0 0 Z " fill="#75737C" transform="translate(187,115)"/>
<path d="M0 0 C2.475 0.495 2.475 0.495 5 1 C5.33 2.98 5.66 4.96 6 7 C4.35 7 2.7 7 1 7 C1.66 6.67 2.32 6.34 3 6 C2.690625 5.38125 2.38125 4.7625 2.0625 4.125 C1.375 2.75 0.6875 1.375 0 0 Z " fill="#BDC2CC" transform="translate(384,114)"/>
<path d="M0 0 C1.32 1.32 2.64 2.64 4 4 C3.34 5.32 2.68 6.64 2 8 C2 6.68 2 5.36 2 4 C1.34 4 0.68 4 0 4 C0 4.99 0 5.98 0 7 C-0.66 6.67 -1.32 6.34 -2 6 C-1.125 1.125 -1.125 1.125 0 0 Z " fill="#2B273D" transform="translate(376,107)"/>
<path d="M0 0 C2.475 0.495 2.475 0.495 5 1 C4.34 2.65 3.68 4.3 3 6 C3.66 6.33 4.32 6.66 5 7 C4.34 7 3.68 7 3 7 C2.67 7.66 2.34 8.32 2 9 C1.34 8.34 0.68 7.68 0 7 C0.30271961 5.65938457 0.63837971 4.32594105 1 3 C0.67 2.01 0.34 1.02 0 0 Z " fill="#151D34" transform="translate(395,112)"/>
<path d="M0 0 C2.475 0.99 2.475 0.99 5 2 C5 2.99 5 3.98 5 5 C3.35 5.33 1.7 5.66 0 6 C0 4.02 0 2.04 0 0 Z " fill="#4B4966" transform="translate(434,115)"/>
<path d="M0 0 C2.0625 1.75 2.0625 1.75 4 4 C3.75 6.25 3.75 6.25 3 8 C2.01 7.67 1.02 7.34 0 7 C-0.38133299 5.0085944 -0.71325582 3.00720923 -1 1 C-0.67 0.67 -0.34 0.34 0 0 Z " fill="#141832" transform="translate(282,112)"/>
<path d="M0 0 C1.65 0 3.3 0 5 0 C5 1.32 5 2.64 5 4 C3.35 4 1.7 4 0 4 C0 2.68 0 1.36 0 0 Z " fill="#777C8F" transform="translate(427,110)"/>
<path d="M0 0 C0.99 0 1.98 0 3 0 C3.33 2.64 3.66 5.28 4 8 C3.01 8 2.02 8 1 8 C0.67 5.36 0.34 2.72 0 0 Z " fill="#966716" transform="translate(221,78)"/>
<path d="M0 0 C1.32 0 2.64 0 4 0 C3.67 1.32 3.34 2.64 3 4 C2.34 4 1.68 4 1 4 C1 4.66 1 5.32 1 6 C1.99 6.33 2.98 6.66 4 7 C3.01 7.33 2.02 7.66 1 8 C0 7 0 7 -0.0625 3.4375 C-0.041875 2.303125 -0.02125 1.16875 0 0 Z " fill="#D6DDDE" transform="translate(263,49)"/>
<path d="M0 0 C2 4 2 4 2 6 C2.66 6.33 3.32 6.66 4 7 C3.01 8.485 3.01 8.485 2 10 C1.34 10 0.68 10 0 10 C0 6.7 0 3.4 0 0 Z " fill="#181C2C" transform="translate(389,115)"/>
<path d="M0 0 C0.99 0.66 1.98 1.32 3 2 C2.34 2 1.68 2 1 2 C1.33 3.98 1.66 5.96 2 8 C1.01 7.67 0.02 7.34 -1 7 C-1.33 5.02 -1.66 3.04 -2 1 C-1.34 0.67 -0.68 0.34 0 0 Z " fill="#B1BEC5" transform="translate(203,113)"/>
<path d="M0 0 C1.98 0 3.96 0 6 0 C6 0.99 6 1.98 6 3 C5.34 3 4.68 3 4 3 C4 3.99 4 4.98 4 6 C3.34 6 2.68 6 2 6 C2 4.68 2 3.36 2 2 C1.34 1.34 0.68 0.68 0 0 Z " fill="#6A6D79" transform="translate(169,114)"/>
<path d="M0 0 C4.75 0.75 4.75 0.75 7 3 C6.01 3.33 5.02 3.66 4 4 C4 3.34 4 2.68 4 2 C1.48916886 3.25541557 1.12874554 4.50063488 0 7 C0 4.69 0 2.38 0 0 Z " fill="#A67A22" transform="translate(321,79)"/>
<path d="M0 0 C0.99 0.33 1.98 0.66 3 1 C2.67 2.65 2.34 4.3 2 6 C1.01 5.67 0.02 5.34 -1 5 C-0.67 3.35 -0.34 1.7 0 0 Z " fill="#262D3E" transform="translate(152,115)"/>
<path d="M0 0 C1.65 0 3.3 0 5 0 C5 1.32 5 2.64 5 4 C4.34 4 3.68 4 3 4 C3 4.66 3 5.32 3 6 C2.34 6 1.68 6 1 6 C1.33 4.68 1.66 3.36 2 2 C1.34 2 0.68 2 0 2 C0 1.34 0 0.68 0 0 Z " fill="#AAA2B1" transform="translate(257,114)"/>
<path d="M0 0 C1.2065625 0.0309375 1.2065625 0.0309375 2.4375 0.0625 C2.4375 2.0425 2.4375 4.0225 2.4375 6.0625 C1.7775 4.7425 1.1175 3.4225 0.4375 2.0625 C-0.2225 2.0625 -0.8825 2.0625 -1.5625 2.0625 C-1.8925 3.3825 -2.2225 4.7025 -2.5625 6.0625 C-2.94468767 4.40635343 -3.27645102 2.73792976 -3.5625 1.0625 C-2.5625 0.0625 -2.5625 0.0625 0 0 Z " fill="#D6D5E4" transform="translate(363.5625,113.9375)"/>
<path d="M0 0 C0.33 0.66 0.66 1.32 1 2 C1.66 2.33 2.32 2.66 3 3 C2.34 3 1.68 3 1 3 C1.33 4.98 1.66 6.96 2 9 C1.34 9 0.68 9 0 9 C-0.66 6.69 -1.32 4.38 -2 2 C-1.34 2 -0.68 2 0 2 C0 1.34 0 0.68 0 0 Z " fill="#CDC8D3" transform="translate(391,112)"/>
<path d="M0 0 C1.66666667 0 3.33333333 0 5 0 C4.34 1.98 3.68 3.96 3 6 C2.34 6 1.68 6 1 6 C0.67 4.02 0.34 2.04 0 0 Z " fill="#9C6715" transform="translate(249,80)"/>
<path d="M0 0 C0.99 0 1.98 0 3 0 C2.67 2.31 2.34 4.62 2 7 C-0.31 7 -2.62 7 -5 7 C-4.67 6.34 -4.34 5.68 -4 5 C-2.35 5.33 -0.7 5.66 1 6 C0.67 4.02 0.34 2.04 0 0 Z " fill="#9B99A0" transform="translate(241,50)"/>
<path d="M0 0 C0.99 1.485 0.99 1.485 2 3 C2.66 3 3.32 3 4 3 C4 4.32 4 5.64 4 7 C2.68 7 1.36 7 0 7 C0 4.69 0 2.38 0 0 Z " fill="#ACACB5" transform="translate(191,48)"/>
<path d="M0 0 C0.66 0.33 1.32 0.66 2 1 C1.34 3.31 0.68 5.62 0 8 C-0.33 8 -0.66 8 -1 8 C-1.33 5.69 -1.66 3.38 -2 1 C-1.34 0.67 -0.68 0.34 0 0 Z " fill="#777E7D" transform="translate(188,48)"/>
<path d="M0 0 C0.33 0.99 0.66 1.98 1 3 C1.99 3 2.98 3 4 3 C4 3.99 4 4.98 4 6 C2.35 5.67 0.7 5.34 -1 5 C-0.67 3.35 -0.34 1.7 0 0 Z " fill="#ECEDEE" transform="translate(280,49)"/>
<path d="M0 0 C2.97 0.495 2.97 0.495 6 1 C6 1.66 6 2.32 6 3 C6.99 2.67 7.98 2.34 9 2 C9 2.66 9 3.32 9 4 C6.75 4.25 6.75 4.25 4 4 C1.6875 2 1.6875 2 0 0 Z " fill="#33384B" transform="translate(240,120)"/>
<path d="M0 0 C0.99 0.33 1.98 0.66 3 1 C3 2.65 3 4.3 3 6 C2.01 5.67 1.02 5.34 0 5 C-0.33 4.01 -0.66 3.02 -1 2 C-0.67 1.34 -0.34 0.68 0 0 Z " fill="#BD8C3C" transform="translate(144,79)"/>
<path d="M0 0 C1.98 0.495 1.98 0.495 4 1 C4 1.99 4 2.98 4 4 C2.35 4 0.7 4 -1 4 C-0.67 2.68 -0.34 1.36 0 0 Z " fill="#E8EAED" transform="translate(162,46)"/>
</svg>
