<?xml version="1.0" encoding="UTF-8"?>
<svg version="1.1" xmlns="http://www.w3.org/2000/svg" width="512" height="512">
<path d="M0 0 C4.25949509 4.51764631 5.85318253 8.41404358 6.3125 14.5 C5.65427262 24.20885391 -0.27272899 28.90631906 -7 35.3125 C-14.72093204 42.8201944 -21.86882125 50.25820359 -27.9375 59.1875 C-28.67484375 60.25355469 -29.4121875 61.31960937 -30.171875 62.41796875 C-56.94135314 102.02757547 -67.57907557 149.96886841 -59.08984375 197.125 C-49.96446002 244.23081098 -23.77872673 286.97498048 16.0625 314.1875 C20.65866537 317.11748357 25.30732224 319.9590055 30.01928711 322.69897461 C35.46622681 325.92577058 40.2622968 329.03318491 42.875 335.0625 C43.51319586 342.29538645 43.543281 347.98155629 38.65625 353.88671875 C30.0836837 362.23688356 16.82082595 360.55342534 5.6875 360.5 C4.88503845 360.49784485 4.0825769 360.4956897 3.25579834 360.49346924 C-46.36373871 360.27941593 -91.64639623 340.48081822 -126.8125 305.6875 C-161.61772636 270.50735199 -178.58698888 223.32755543 -178.36349487 174.35391235 C-178.24955643 162.4279184 -177.81772174 150.81025158 -174.9375 139.1875 C-174.62353271 137.87555664 -174.62353271 137.87555664 -174.30322266 136.53710938 C-167.41472644 108.24211149 -155.30772578 81.18825027 -135.9375 59.1875 C-135.19628906 58.33671875 -134.45507812 57.4859375 -133.69140625 56.609375 C-131.47305305 54.10267433 -129.21898575 51.63680081 -126.9375 49.1875 C-126.25300781 48.44886719 -125.56851563 47.71023437 -124.86328125 46.94921875 C-114.64584814 36.31628929 -102.58874865 27.68577714 -89.9375 20.1875 C-89.32132812 19.81915039 -88.70515625 19.45080078 -88.0703125 19.07128906 C-67.80226316 7.14829881 -22.73218768 -14.02624346 0 0 Z " fill="#000000" transform="translate(177.9375,3.8125)"/>
<path d="M0 0 C0.81670166 0.76207764 0.81670166 0.76207764 1.64990234 1.53955078 C28.91854315 27.04701478 45.9249147 59.72471369 54 96 C54.16371094 96.68513672 54.32742188 97.37027344 54.49609375 98.07617188 C64.78407568 142.33149912 53.76044936 192.39865968 30.8046875 230.7734375 C28.96703725 233.6080316 27.04128586 236.30921409 25 239 C24.24460937 240.03511719 23.48921875 241.07023437 22.7109375 242.13671875 C-6.530414 281.69162958 -49.08510401 306.31963436 -97.546875 313.92578125 C-99.21733171 314.14890913 -100.88919678 314.36183113 -102.5625 314.5625 C-103.67588745 314.70896973 -103.67588745 314.70896973 -104.81176758 314.85839844 C-111.39860943 315.50175385 -116.59165369 313.87315824 -121.8125 309.8125 C-126.16916152 304.21107805 -127.45989548 299.30568016 -126.71484375 292.2734375 C-124.4401297 285.03910101 -118.3568285 280.27728198 -113.0625 275.1875 C-79.09286186 241.81857993 -59.71157337 196.511876 -58.76538086 148.8737793 C-58.43622259 98.07368633 -78.52600265 51.86367905 -113.875 15.8125 C-124.94251562 4.81759396 -137.69855453 -4.00573458 -151.1484375 -11.83203125 C-156.96533248 -15.28629999 -161.73232114 -18.37599069 -164 -25 C-165.05406056 -31.00814517 -164.24991959 -36.03833293 -161.1875 -41.3125 C-157.92135603 -45.95386248 -154.33839493 -47.61086563 -148.796875 -48.625 C-94.95820863 -55.84359214 -39.0883983 -37.56471261 0 0 Z " fill="#000000" transform="translate(455,197)"/>
<path d="M0 0 C4.64218402 3.31584573 8.11270297 7.3299109 9.625 12.875 C16.18155323 58.95174304 3.33254717 107.50282517 -24.22265625 144.79296875 C-55.09177962 185.37350864 -98.20486512 210.29439439 -148.38867188 218.19189453 C-156.08647754 219.21351689 -163.873246 219.11877055 -171.625 219.125 C-172.3803302 219.12567474 -173.1356604 219.12634949 -173.91387939 219.12704468 C-186.28695487 219.10953391 -198.23211442 218.41874675 -210.375 215.875 C-211.19000977 215.70871094 -212.00501953 215.54242188 -212.84472656 215.37109375 C-259.13893943 205.63253709 -300.64142343 178.08889963 -326.73242188 138.48144531 C-342.38023795 113.65146844 -358.52978948 78.18800488 -354.375 47.875 C-352.70870602 42.45486398 -349.26767376 39.58158548 -344.375 36.875 C-338.88627459 35.04542486 -334.0631382 35.34918646 -328.5625 37.0625 C-323.84788641 39.67859297 -320.43839103 43.81626576 -316.93823242 47.83862305 C-290.5547252 78.10060883 -249.57698641 96.40952747 -210.375 101.875 C-209.73199951 101.9692627 -209.08899902 102.06352539 -208.42651367 102.16064453 C-201.00200734 103.13363692 -193.53957106 103.11859124 -186.0625 103.125 C-185.35324371 103.12567474 -184.64398743 103.12634949 -183.91323853 103.12704468 C-172.18189263 103.10937425 -160.85519418 102.4132224 -149.375 99.875 C-148.59447266 99.70339355 -147.81394531 99.53178711 -147.00976562 99.35498047 C-97.1625438 88.00855223 -56.91585618 58.3111032 -29.42822266 15.57324219 C-27.94511117 13.18183665 -26.60670185 10.71473598 -25.25 8.25 C-19.50967869 -1.34385177 -10.42888899 -3.47629633 0 0 Z " fill="#000000" transform="translate(354.375,292.125)"/>
<path d="M0 0 C0.78836243 0.00215515 1.57672485 0.0043103 2.38897705 0.00653076 C41.47445799 0.17747725 79.98672259 11.48393447 111.375 35.3125 C112.22835938 35.95574219 113.08171875 36.59898438 113.9609375 37.26171875 C147.42654147 63.28465685 169.38386316 98.21562381 179.375 139.3125 C179.55289062 140.04339844 179.73078125 140.77429688 179.9140625 141.52734375 C182.23910084 151.43643573 185.62269769 166.00059533 180.75 175.5625 C177.09205413 179.79801627 173.07858608 182.86690089 167.39453125 183.55078125 C166.66621094 183.57527344 165.93789063 183.59976563 165.1875 183.625 C164.47207031 183.66238281 163.75664062 183.69976562 163.01953125 183.73828125 C155.33925789 182.50172321 150.58827358 177.93722013 145.6875 172.25 C120.69365788 144.51889662 86.55781482 127.28244783 50.375 119.3125 C49.2624585 119.0647583 49.2624585 119.0647583 48.12744141 118.81201172 C25.62567022 114.05381956 -0.19933701 114.34314916 -22.625 119.3125 C-23.39344238 119.47878906 -24.16188477 119.64507812 -24.95361328 119.81640625 C-58.37132666 127.27479237 -87.44295801 143.32671142 -112.625 166.3125 C-113.44355469 167.05886719 -114.26210937 167.80523437 -115.10546875 168.57421875 C-126.86910499 179.83816071 -136.18922273 193.68835975 -144.59375 207.5625 C-148.51540792 214.02979551 -151.27408308 217.86219436 -158.625 220.3125 C-165.15977012 221.09873467 -170.19545314 220.07994068 -175.625 216.3125 C-183.73757989 208.41340905 -182.60144883 195.52149089 -182.79370117 184.99243164 C-183.21229037 135.0607197 -163.96048181 88.30423372 -129.04833984 52.73974609 C-94.8824579 18.48009844 -48.19331276 -0.23828427 0 0 Z " fill="#000000" transform="translate(329.625,0.6875)"/>
</svg>
