<?xml version="1.0" standalone="no"?>
<!DOCTYPE svg PUBLIC "-//W3C//DTD SVG 20010904//EN"
 "http://www.w3.org/TR/2001/REC-SVG-20010904/DTD/svg10.dtd">
<svg version="1.0" xmlns="http://www.w3.org/2000/svg"
 width="512.000000pt" height="512.000000pt" viewBox="0 0 512.000000 512.000000"
 preserveAspectRatio="xMidYMid meet">

<g transform="translate(0.000000,512.000000) scale(0.100000,-0.100000)"
fill="#000000" stroke="none">
<path d="M2390 5113 c-371 -35 -643 -110 -940 -257 -156 -77 -303 -168 -352
-217 -50 -48 -52 -96 -9 -140 39 -38 93 -40 142 -3 133 99 379 226 569 292
272 95 471 127 780 126 249 0 381 -17 600 -75 633 -168 1186 -621 1483 -1215
166 -333 241 -654 241 -1039 1 -234 -13 -355 -65 -564 -148 -600 -532 -1118
-1069 -1441 -536 -323 -1192 -414 -1806 -250 -149 40 -252 78 -416 157 l-137
65 -453 -122 c-674 -182 -678 -183 -684 -177 -3 3 62 248 145 544 83 296 151
547 151 558 0 11 -31 81 -69 155 -170 333 -247 632 -258 1000 -15 498 106 932
377 1354 38 61 70 120 70 132 0 37 -22 74 -51 90 -68 35 -108 8 -197 -129
-257 -396 -386 -820 -399 -1302 -11 -444 74 -830 268 -1217 l51 -102 -172
-617 c-124 -441 -171 -624 -166 -643 8 -34 38 -64 72 -72 19 -5 213 43 661
165 l634 171 57 -29 c169 -85 398 -165 595 -206 859 -182 1745 87 2348 712
389 403 622 886 700 1453 17 123 18 507 1 625 -69 485 -248 908 -540 1275 -92
116 -289 312 -401 400 -466 365 -1021 555 -1596 548 -71 0 -146 -3 -165 -5z"/>
<path d="M2351 4709 c-238 -25 -495 -100 -716 -208 -634 -311 -1068 -905
-1177 -1611 -17 -112 -17 -498 0 -610 42 -273 129 -522 267 -765 36 -63 65
-120 65 -125 0 -6 -43 -164 -95 -350 -52 -186 -95 -355 -95 -375 0 -45 45 -95
84 -95 14 0 190 45 392 99 l367 99 96 -53 c304 -167 613 -251 966 -262 357
-11 673 54 983 202 140 67 277 149 297 178 26 37 19 94 -14 128 -47 47 -82 41
-212 -37 -114 -69 -285 -146 -405 -184 -222 -69 -502 -101 -727 -81 -314 27
-542 100 -877 280 -41 23 -82 41 -91 41 -8 0 -148 -36 -309 -80 -162 -44 -296
-77 -298 -75 -3 2 30 129 73 281 43 152 78 289 78 304 0 16 -32 84 -76 162
-173 302 -252 548 -279 870 -38 460 100 925 387 1306 551 733 1559 975 2380
573 312 -153 572 -379 766 -667 321 -477 409 -1097 233 -1655 -40 -127 -131
-326 -200 -437 -77 -123 -54 -202 59 -202 48 0 69 20 130 122 144 244 228 472
278 755 29 166 32 499 6 662 -87 535 -341 985 -752 1329 -432 363 -1017 540
-1584 481z"/>
<path d="M820 4403 c-56 -22 -83 -89 -56 -141 20 -38 44 -52 91 -52 50 0 95
44 95 94 0 62 -76 120 -130 99z"/>
<path d="M1610 3767 c-127 -52 -218 -142 -285 -281 -67 -139 -79 -196 -80
-371 0 -166 9 -215 70 -363 129 -318 486 -759 804 -996 389 -289 887 -479
1185 -451 183 17 329 73 431 167 115 105 164 212 172 378 6 120 -4 169 -46
227 -26 35 -61 56 -288 168 -232 114 -265 128 -323 132 -111 9 -159 -23 -290
-193 -45 -57 -86 -104 -93 -104 -23 1 -123 46 -188 85 -231 140 -424 316 -550
503 l-49 74 71 76 c91 99 119 147 126 216 8 78 -3 113 -127 397 -97 225 -115
259 -154 295 -56 52 -100 64 -227 64 -85 0 -114 -5 -159 -23z m239 -187 c17
-9 211 -440 226 -501 6 -23 -5 -40 -75 -120 -99 -115 -120 -153 -120 -218 0
-165 345 -541 682 -742 148 -89 218 -114 314 -114 73 0 84 3 118 28 20 16 72
74 115 130 119 155 105 147 204 102 158 -74 382 -188 390 -199 13 -18 -3 -168
-23 -213 -23 -52 -91 -127 -145 -159 -102 -59 -298 -80 -462 -49 -256 49 -652
245 -903 449 -318 258 -644 712 -711 991 -57 237 40 524 203 603 47 23 155 30
187 12z"/>
<path d="M3974 1240 c-56 -22 -81 -101 -48 -149 58 -82 184 -44 184 55 0 72
-71 121 -136 94z"/>
</g>
</svg>
